M48
;DRILL file {KiCad 4.0.6} date Wednesday, April 11, 2018 'PMt' 08:10:00 PM
;FORMAT={-:-/ absolute / inch / decimal}
FMAT,2
INCH,TZ
T1C0.016
T2C0.020
T3C0.022
T4C0.024
T5C0.031
T6C0.039
T7C0.047
T8C0.126
%
G90
G05
M72
T1
X6.13Y-3.63
X6.14Y-3.36
X6.17Y-3.45
X6.55Y-3.48
X6.605Y-3.73
X6.65Y-3.445
X6.68Y-3.47
X6.71Y-3.515
X6.745Y-3.375
X6.805Y-3.48
X6.985Y-3.445
X6.99Y-2.975
X6.99Y-3.24
X7.065Y-3.58
X7.095Y-3.115
X7.095Y-3.445
X7.185Y-3.67
X7.185Y-3.71
X7.24Y-3.495
X7.24Y-3.77
X7.24Y-3.81
X7.33Y-2.895
X7.33Y-3.4
X7.775Y-2.895
X7.775Y-3.405
X7.99Y-3.125
X8.21Y-2.9
X8.21Y-3.345
X8.355Y-4.24
X8.355Y-4.495
X8.39Y-4.015
X8.585Y-3.88
T4
X6.46Y-4.32
X6.75Y-3.875
X6.86Y-4.4
X6.98Y-4.28
X7.045Y-2.935
X7.55Y-3.105
X7.55Y-3.58
X7.995Y-3.58
X8.41Y-3.11
T5
X7.2Y-4.1
X7.2Y-4.2
X7.2Y-4.3
X7.2Y-4.4
X7.5Y-4.1
X7.5Y-4.2
X7.5Y-4.3
X7.5Y-4.4
T6
X6.08Y-2.96
X6.08Y-3.06
X6.65Y-4.7
X6.66Y-4.18
X6.75Y-4.7
X6.76Y-4.18
X7.1Y-4.68
X7.2Y-4.68
X7.3Y-4.68
X7.4Y-4.68
X7.5Y-4.68
X7.6Y-4.68
X8.16Y-3.96
X8.16Y-4.06
X8.16Y-4.16
X8.16Y-4.26
X8.16Y-4.36
X8.16Y-4.46
X8.16Y-4.56
X8.16Y-4.66
X8.48Y-3.96
X8.48Y-4.06
X8.48Y-4.16
X8.48Y-4.26
X8.48Y-4.36
X8.48Y-4.46
X8.48Y-4.56
X8.48Y-4.66
T7
X5.4413Y-3.2081
X5.4413Y-3.6019
X5.4413Y-3.8031
X5.4413Y-4.1969
X5.4413Y-4.4031
X5.4413Y-4.7969
X5.52Y-3.2081
X5.52Y-3.605
X5.52Y-3.8031
X5.52Y-4.2
X5.52Y-4.4031
X5.52Y-4.8
X5.7169Y-3.405
X5.7169Y-4.
X5.7169Y-4.6
T8
X5.5118Y-2.9921
X5.5118Y-5.
X8.5433Y-2.9921
X8.5433Y-5.
T2
X6.0122Y-5.1109G85X6.0122Y-5.0854
G05
X6.2878Y-5.1109G85X6.2878Y-5.0854
G05
T3
X6.0457Y-4.9919G85X6.0575Y-4.9919
G05
X6.2425Y-4.9919G85X6.2543Y-4.9919
G05
T5
X5.52Y-3.3912G85X5.52Y-3.4188
G05
X5.52Y-3.9862G85X5.52Y-4.0138
G05
X5.52Y-4.5862G85X5.52Y-4.6138
G05
X5.7031Y-3.2081G85X5.7306Y-3.2081
G05
X5.7031Y-3.3066G85X5.7306Y-3.3066
G05
X5.7031Y-3.5034G85X5.7306Y-3.5034
G05
X5.7031Y-3.6019G85X5.7306Y-3.6019
G05
X5.7031Y-3.8031G85X5.7306Y-3.8031
G05
X5.7031Y-3.9016G85X5.7306Y-3.9016
G05
X5.7031Y-4.0984G85X5.7306Y-4.0984
G05
X5.7031Y-4.1969G85X5.7306Y-4.1969
G05
X5.7031Y-4.4031G85X5.7306Y-4.4031
G05
X5.7031Y-4.5016G85X5.7306Y-4.5016
G05
X5.7031Y-4.6984G85X5.7306Y-4.6984
G05
X5.7031Y-4.7969G85X5.7306Y-4.7969
G05
T0
M30
