G04 #@! TF.FileFunction,Copper,L1,Top,Signal*
%FSLAX46Y46*%
G04 Gerber Fmt 4.6, Leading zero omitted, Abs format (unit mm)*
G04 Created by KiCad (PCBNEW 4.0.6) date Wednesday, April 11, 2018 'PMt' 08:09:55 PM*
%MOMM*%
%LPD*%
G01*
G04 APERTURE LIST*
%ADD10C,0.100000*%
%ADD11R,2.750000X1.000000*%
%ADD12C,6.400000*%
%ADD13O,1.500000X2.500000*%
%ADD14O,2.500000X1.500000*%
%ADD15C,2.000000*%
%ADD16C,1.600000*%
%ADD17R,0.850000X2.700000*%
%ADD18R,2.700000X0.760000*%
%ADD19R,1.500000X1.250000*%
%ADD20R,1.700000X1.700000*%
%ADD21O,1.700000X1.700000*%
%ADD22R,0.400000X1.350000*%
%ADD23O,1.250000X0.950000*%
%ADD24O,1.000000X1.550000*%
%ADD25R,1.500000X1.300000*%
%ADD26R,1.600000X1.600000*%
%ADD27O,1.600000X1.600000*%
%ADD28R,1.700000X2.000000*%
%ADD29C,1.100000*%
%ADD30C,0.654000*%
%ADD31C,0.381000*%
%ADD32C,0.508000*%
%ADD33C,0.254000*%
G04 APERTURE END LIST*
D10*
D11*
X183307000Y-74200000D03*
X189057000Y-74200000D03*
X189057000Y-78200000D03*
X183307000Y-78200000D03*
D12*
X217000000Y-76000000D03*
D13*
X140208000Y-86487000D03*
D14*
X145208000Y-81487000D03*
X145208000Y-83987000D03*
X145208000Y-88987000D03*
X145208000Y-91487000D03*
D15*
X145208000Y-86487000D03*
D16*
X140208000Y-91567000D03*
X138208000Y-91487000D03*
X138208000Y-81487000D03*
X140208000Y-81487000D03*
D12*
X140000000Y-76000000D03*
X140000000Y-127000000D03*
D17*
X172720000Y-91590000D03*
X167640000Y-91590000D03*
X168910000Y-91590000D03*
X171450000Y-91590000D03*
X170180000Y-91590000D03*
X165100000Y-91590000D03*
X166370000Y-91590000D03*
X163830000Y-91590000D03*
X162560000Y-91590000D03*
D18*
X175170000Y-89840000D03*
X175170000Y-88640000D03*
X175170000Y-87440000D03*
X175170000Y-86240000D03*
X175170000Y-81440000D03*
X175170000Y-82640000D03*
X175170000Y-83840000D03*
X175170000Y-85040000D03*
X175170000Y-77840000D03*
X175170000Y-76640000D03*
X175170000Y-75440000D03*
X175170000Y-74240000D03*
X175170000Y-79040000D03*
X175170000Y-80240000D03*
X159870000Y-80240000D03*
X159870000Y-79040000D03*
X159870000Y-74240000D03*
X159870000Y-75440000D03*
X159870000Y-76640000D03*
X159870000Y-77840000D03*
X159870000Y-85040000D03*
X159870000Y-83840000D03*
X159870000Y-82640000D03*
X159870000Y-81440000D03*
X159870000Y-86240000D03*
X159870000Y-87440000D03*
X159870000Y-88640000D03*
X159870000Y-89840000D03*
D19*
X168930000Y-115570000D03*
X171430000Y-115570000D03*
X168930000Y-110998000D03*
X171430000Y-110998000D03*
X185440000Y-99060000D03*
X187940000Y-99060000D03*
D20*
X168910000Y-119380000D03*
D21*
X171450000Y-119380000D03*
D20*
X169164000Y-106172000D03*
D21*
X171704000Y-106172000D03*
D22*
X154910000Y-126793000D03*
X155560000Y-126793000D03*
X156210000Y-126793000D03*
X156860000Y-126793000D03*
X157510000Y-126793000D03*
D23*
X153710000Y-126793000D03*
X158710000Y-126793000D03*
D24*
X152710000Y-129493000D03*
X159710000Y-129493000D03*
D20*
X180340000Y-118872000D03*
D21*
X182880000Y-118872000D03*
X185420000Y-118872000D03*
X187960000Y-118872000D03*
X190500000Y-118872000D03*
X193040000Y-118872000D03*
D20*
X207264000Y-118364000D03*
D21*
X207264000Y-115824000D03*
X207264000Y-113284000D03*
X207264000Y-110744000D03*
X207264000Y-108204000D03*
X207264000Y-105664000D03*
X207264000Y-103124000D03*
X207264000Y-100584000D03*
D20*
X215392000Y-100584000D03*
D21*
X215392000Y-103124000D03*
X215392000Y-105664000D03*
X215392000Y-108204000D03*
X215392000Y-110744000D03*
X215392000Y-113284000D03*
X215392000Y-115824000D03*
X215392000Y-118364000D03*
D25*
X153336000Y-108204000D03*
X156036000Y-108204000D03*
X153336000Y-104648000D03*
X156036000Y-104648000D03*
X159686000Y-104648000D03*
X162386000Y-104648000D03*
X162386000Y-108204000D03*
X159686000Y-108204000D03*
D11*
X194610000Y-74200000D03*
X200360000Y-74200000D03*
X200360000Y-78200000D03*
X194610000Y-78200000D03*
X183307000Y-86900000D03*
X189057000Y-86900000D03*
X189057000Y-90900000D03*
X183307000Y-90900000D03*
X194610000Y-86900000D03*
X200360000Y-86900000D03*
X200360000Y-90900000D03*
X194610000Y-90900000D03*
X205659000Y-86900000D03*
X211409000Y-86900000D03*
X211409000Y-90900000D03*
X205659000Y-90900000D03*
X205659000Y-74200000D03*
X211409000Y-74200000D03*
X211409000Y-78200000D03*
X205659000Y-78200000D03*
D26*
X182880000Y-104140000D03*
D27*
X190500000Y-111760000D03*
X182880000Y-106680000D03*
X190500000Y-109220000D03*
X182880000Y-109220000D03*
X190500000Y-106680000D03*
X182880000Y-111760000D03*
X190500000Y-104140000D03*
D25*
X178228000Y-115316000D03*
X180928000Y-115316000D03*
D28*
X179324000Y-96552000D03*
X179324000Y-100552000D03*
X175006000Y-96552000D03*
X175006000Y-100552000D03*
D13*
X140208000Y-101600000D03*
D14*
X145208000Y-96600000D03*
X145208000Y-99100000D03*
X145208000Y-104100000D03*
X145208000Y-106600000D03*
D15*
X145208000Y-101600000D03*
D16*
X140208000Y-106680000D03*
X138208000Y-106600000D03*
X138208000Y-96600000D03*
X140208000Y-96600000D03*
D13*
X140208000Y-116840000D03*
D14*
X145208000Y-111840000D03*
X145208000Y-114340000D03*
X145208000Y-119340000D03*
X145208000Y-121840000D03*
D15*
X145208000Y-116840000D03*
D16*
X140208000Y-121920000D03*
X138208000Y-121840000D03*
X138208000Y-111840000D03*
X140208000Y-111840000D03*
D20*
X154432000Y-77724000D03*
D21*
X154432000Y-75184000D03*
D12*
X217000000Y-127000000D03*
D29*
X171450000Y-98425000D03*
X178943000Y-74549000D03*
X191770000Y-78867000D03*
X213614000Y-78994000D03*
X203073000Y-90932000D03*
X191770000Y-90932000D03*
X164084000Y-109728000D03*
X177292000Y-108712000D03*
X174244000Y-111760000D03*
D30*
X156718000Y-87630000D03*
X155956000Y-85344000D03*
X155702000Y-92202000D03*
X197485000Y-73533000D03*
X177546000Y-75565000D03*
X177546000Y-82296000D03*
X186182000Y-86360000D03*
X197485000Y-86487000D03*
X183896000Y-88773000D03*
X168910000Y-87503000D03*
X208534000Y-84963000D03*
X202946000Y-79375000D03*
X208534000Y-73660000D03*
X218059000Y-98552000D03*
X167767000Y-94742000D03*
X183896000Y-95758000D03*
X183896000Y-96774000D03*
X166370000Y-88392000D03*
X186182000Y-73533000D03*
X180213000Y-87503000D03*
X177419000Y-87503000D03*
X172847000Y-88392000D03*
X179451000Y-90932000D03*
X169672000Y-88138000D03*
X182499000Y-93218000D03*
X213106000Y-101981000D03*
X182499000Y-94234000D03*
X170434000Y-89281000D03*
X212217000Y-114173000D03*
X212217000Y-107696000D03*
X180213000Y-79121000D03*
X171323000Y-85725000D03*
D31*
X168910000Y-119380000D02*
X168910000Y-121158000D01*
X170180000Y-122428000D02*
X178816000Y-122428000D01*
X168910000Y-121158000D02*
X170180000Y-122428000D01*
X168910000Y-119380000D02*
X168910000Y-115590000D01*
X168910000Y-115590000D02*
X168930000Y-115570000D01*
D32*
X170180000Y-91590000D02*
X170180000Y-102108000D01*
X175514000Y-107442000D02*
X175514000Y-119126000D01*
X175514000Y-119126000D02*
X178816000Y-122428000D01*
X170180000Y-102108000D02*
X175514000Y-107442000D01*
X215392000Y-103124000D02*
X217932000Y-103124000D01*
X220218000Y-105410000D02*
X220218000Y-120650000D01*
X220218000Y-120650000D02*
X218440000Y-122428000D01*
X218440000Y-122428000D02*
X178816000Y-122428000D01*
X217932000Y-103124000D02*
X220218000Y-105410000D01*
D31*
X172720000Y-91590000D02*
X172720000Y-93345000D01*
X171450000Y-94615000D02*
X171450000Y-98425000D01*
X172720000Y-93345000D02*
X171450000Y-94615000D01*
X175170000Y-74240000D02*
X178634000Y-74240000D01*
X178634000Y-74240000D02*
X178943000Y-74549000D01*
X171450000Y-119380000D02*
X171450000Y-115590000D01*
X171450000Y-115590000D02*
X171430000Y-115570000D01*
X194610000Y-78200000D02*
X192437000Y-78200000D01*
X192437000Y-78200000D02*
X191770000Y-78867000D01*
X194610000Y-78200000D02*
X200360000Y-78200000D01*
X205659000Y-78200000D02*
X211409000Y-78200000D01*
X211409000Y-78200000D02*
X211441000Y-78232000D01*
X211441000Y-78232000D02*
X212852000Y-78232000D01*
X212852000Y-78232000D02*
X213614000Y-78994000D01*
X211409000Y-90900000D02*
X205659000Y-90900000D01*
X205659000Y-90900000D02*
X205627000Y-90932000D01*
X205627000Y-90932000D02*
X203073000Y-90932000D01*
X200360000Y-90900000D02*
X203041000Y-90900000D01*
X203041000Y-90900000D02*
X203073000Y-90932000D01*
X200360000Y-90900000D02*
X194610000Y-90900000D01*
X194610000Y-90900000D02*
X191802000Y-90900000D01*
X191738000Y-90900000D02*
X191770000Y-90932000D01*
X191738000Y-90900000D02*
X189057000Y-90900000D01*
X191802000Y-90900000D02*
X191770000Y-90932000D01*
X183307000Y-90900000D02*
X189057000Y-90900000D01*
X157510000Y-128113000D02*
X158330000Y-128113000D01*
X158330000Y-128113000D02*
X159710000Y-129493000D01*
X157510000Y-126793000D02*
X157510000Y-128113000D01*
X156130000Y-129493000D02*
X152710000Y-129493000D01*
X157510000Y-128113000D02*
X156130000Y-129493000D01*
X157510000Y-126793000D02*
X158710000Y-126793000D01*
D32*
X162386000Y-108204000D02*
X162560000Y-108204000D01*
X162560000Y-108204000D02*
X164084000Y-109728000D01*
X162386000Y-104648000D02*
X162386000Y-108204000D01*
X171430000Y-110998000D02*
X171430000Y-106446000D01*
X171430000Y-106446000D02*
X171704000Y-106172000D01*
X190500000Y-104140000D02*
X190500000Y-101620000D01*
X190500000Y-101620000D02*
X187940000Y-99060000D01*
D31*
X154910000Y-118999000D02*
X154910000Y-126793000D01*
X154910000Y-119046000D02*
X154910000Y-118999000D01*
X154910000Y-118999000D02*
X154910000Y-116108000D01*
X158242000Y-112776000D02*
X168880000Y-112776000D01*
X154910000Y-116108000D02*
X158242000Y-112776000D01*
X168880000Y-112776000D02*
X173228000Y-112776000D01*
X181336000Y-101620000D02*
X182880000Y-101620000D01*
X177292000Y-105664000D02*
X181336000Y-101620000D01*
X177292000Y-108712000D02*
X177292000Y-105664000D01*
X173228000Y-112776000D02*
X174244000Y-111760000D01*
X168880000Y-112776000D02*
X168880000Y-111048000D01*
D32*
X182880000Y-116332000D02*
X181944000Y-116332000D01*
X181944000Y-116332000D02*
X180928000Y-115316000D01*
X182880000Y-118872000D02*
X182880000Y-116332000D01*
X185166000Y-106426000D02*
X182880000Y-104140000D01*
X185166000Y-114046000D02*
X185166000Y-106426000D01*
X182880000Y-116332000D02*
X185166000Y-114046000D01*
X215392000Y-108204000D02*
X216407998Y-108204000D01*
X185673998Y-121665998D02*
X182880000Y-118872000D01*
X218124368Y-121665998D02*
X185673998Y-121665998D01*
X219455998Y-120334368D02*
X218124368Y-121665998D01*
X219455998Y-111252000D02*
X219455998Y-120334368D01*
X216407998Y-108204000D02*
X219455998Y-111252000D01*
X168910000Y-91590000D02*
X168910000Y-105918000D01*
X168910000Y-105918000D02*
X169164000Y-106172000D01*
X168930000Y-110998000D02*
X168930000Y-106406000D01*
X168930000Y-106406000D02*
X169164000Y-106172000D01*
X182880000Y-104140000D02*
X182880000Y-101620000D01*
X182880000Y-101620000D02*
X185440000Y-99060000D01*
D33*
X145208000Y-91487000D02*
X146003000Y-91487000D01*
X146003000Y-91487000D02*
X153650000Y-83840000D01*
X153650000Y-83840000D02*
X159870000Y-83840000D01*
X156908000Y-87440000D02*
X159870000Y-87440000D01*
X156718000Y-87630000D02*
X156908000Y-87440000D01*
X154432000Y-75184000D02*
X155448000Y-75184000D01*
X156904000Y-76640000D02*
X159870000Y-76640000D01*
X155448000Y-75184000D02*
X156904000Y-76640000D01*
X156852000Y-86240000D02*
X159870000Y-86240000D01*
X155956000Y-85344000D02*
X156852000Y-86240000D01*
X145208000Y-81487000D02*
X159823000Y-81487000D01*
X159823000Y-81487000D02*
X159870000Y-81440000D01*
X158248000Y-88640000D02*
X159870000Y-88640000D01*
X157480000Y-89408000D02*
X158248000Y-88640000D01*
X157480000Y-90424000D02*
X157480000Y-89408000D01*
X155702000Y-92202000D02*
X157480000Y-90424000D01*
X200360000Y-74200000D02*
X198152000Y-74200000D01*
X198152000Y-74200000D02*
X197485000Y-73533000D01*
X194610000Y-74200000D02*
X196818000Y-74200000D01*
X196818000Y-74200000D02*
X197485000Y-73533000D01*
X175170000Y-82640000D02*
X177202000Y-82640000D01*
X191897000Y-75565000D02*
X193262000Y-74200000D01*
X190373000Y-75565000D02*
X191897000Y-75565000D01*
X179324000Y-75565000D02*
X190373000Y-75565000D01*
X177546000Y-75565000D02*
X179324000Y-75565000D01*
X177202000Y-82640000D02*
X177546000Y-82296000D01*
X193262000Y-74200000D02*
X194610000Y-74200000D01*
X189057000Y-86900000D02*
X186722000Y-86900000D01*
X186722000Y-86900000D02*
X186182000Y-86360000D01*
X183307000Y-86900000D02*
X185642000Y-86900000D01*
X185642000Y-86900000D02*
X186182000Y-86360000D01*
X175170000Y-81440000D02*
X177847000Y-81440000D01*
X177847000Y-81440000D02*
X183307000Y-86900000D01*
X200360000Y-86900000D02*
X197898000Y-86900000D01*
X197898000Y-86900000D02*
X197485000Y-86487000D01*
X194610000Y-86900000D02*
X197072000Y-86900000D01*
X197072000Y-86900000D02*
X197485000Y-86487000D01*
X166370000Y-91590000D02*
X166370000Y-90043000D01*
X193167000Y-88773000D02*
X194610000Y-87330000D01*
X183896000Y-88773000D02*
X193167000Y-88773000D01*
X168910000Y-87503000D02*
X168910000Y-87503000D01*
X166370000Y-90043000D02*
X168910000Y-87503000D01*
X194610000Y-87330000D02*
X194610000Y-86900000D01*
X211409000Y-86900000D02*
X210471000Y-86900000D01*
X210471000Y-86900000D02*
X208534000Y-84963000D01*
X208534000Y-84963000D02*
X206597000Y-86900000D01*
X206597000Y-86900000D02*
X205659000Y-86900000D01*
X175170000Y-77840000D02*
X178827000Y-77840000D01*
X202946000Y-77470000D02*
X202946000Y-79375000D01*
X202049004Y-76573004D02*
X202946000Y-77470000D01*
X180093996Y-76573004D02*
X202049004Y-76573004D01*
X178827000Y-77840000D02*
X180093996Y-76573004D01*
X175170000Y-77840000D02*
X176414000Y-77840000D01*
X211409000Y-74200000D02*
X209074000Y-74200000D01*
X209074000Y-74200000D02*
X208534000Y-73660000D01*
X205659000Y-74200000D02*
X207994000Y-74200000D01*
X207994000Y-74200000D02*
X208534000Y-73660000D01*
X175170000Y-76640000D02*
X178626002Y-76640000D01*
X203789998Y-76069002D02*
X205659000Y-74200000D01*
X179197000Y-76069002D02*
X203789998Y-76069002D01*
X178626002Y-76640000D02*
X179197000Y-76069002D01*
X140208000Y-86487000D02*
X140208000Y-85979000D01*
X140208000Y-85979000D02*
X143383000Y-82804000D01*
X143383000Y-82804000D02*
X159706000Y-82804000D01*
X159706000Y-82804000D02*
X159870000Y-82640000D01*
X145208000Y-121840000D02*
X147019000Y-121840000D01*
X153336000Y-115523000D02*
X153336000Y-108204000D01*
X147019000Y-121840000D02*
X153336000Y-115523000D01*
X145208000Y-111840000D02*
X146144000Y-111840000D01*
X146144000Y-111840000D02*
X153336000Y-104648000D01*
X180340000Y-118872000D02*
X180340000Y-117428000D01*
X180340000Y-117428000D02*
X178228000Y-115316000D01*
X178228000Y-115316000D02*
X178228000Y-114380000D01*
X178228000Y-114380000D02*
X180848000Y-111760000D01*
X180848000Y-111760000D02*
X182880000Y-111760000D01*
X187960000Y-118872000D02*
X187960000Y-109220000D01*
X187960000Y-109220000D02*
X190500000Y-106680000D01*
X190500000Y-118872000D02*
X190500000Y-118363998D01*
X190500000Y-118363998D02*
X188468002Y-116332000D01*
X188468002Y-116332000D02*
X188468002Y-111251998D01*
X188468002Y-111251998D02*
X190500000Y-109220000D01*
X175170000Y-79040000D02*
X178481000Y-79040000D01*
X205867000Y-111887000D02*
X207264000Y-113284000D01*
X205867000Y-110236000D02*
X205867000Y-111887000D01*
X206629000Y-109474000D02*
X205867000Y-110236000D01*
X207821234Y-109474000D02*
X206629000Y-109474000D01*
X208325236Y-108969998D02*
X207821234Y-109474000D01*
X212217000Y-108969998D02*
X208325236Y-108969998D01*
X213868000Y-107318998D02*
X212217000Y-108969998D01*
X213868000Y-102616000D02*
X213868000Y-107318998D01*
X214630000Y-101854000D02*
X213868000Y-102616000D01*
X217805000Y-101854000D02*
X214630000Y-101854000D01*
X219329000Y-100330000D02*
X217805000Y-101854000D01*
X219329000Y-85090000D02*
X219329000Y-100330000D01*
X214503000Y-80264000D02*
X219329000Y-85090000D01*
X179705000Y-80264000D02*
X214503000Y-80264000D01*
X178481000Y-79040000D02*
X179705000Y-80264000D01*
X207264000Y-113284000D02*
X212852000Y-113284000D01*
X212852000Y-113284000D02*
X215392000Y-110744000D01*
X175170000Y-80240000D02*
X178968234Y-80240000D01*
X218824998Y-97786002D02*
X218059000Y-98552000D01*
X218824998Y-85298764D02*
X218824998Y-97786002D01*
X214294236Y-80768002D02*
X218824998Y-85298764D01*
X179496236Y-80768002D02*
X214294236Y-80768002D01*
X178968234Y-80240000D02*
X179496236Y-80768002D01*
X208534000Y-109474000D02*
X207264000Y-110744000D01*
X215392000Y-113284000D02*
X215646000Y-113284000D01*
X215646000Y-113284000D02*
X217170000Y-111760000D01*
X217170000Y-111760000D02*
X217170000Y-110490000D01*
X217170000Y-110490000D02*
X216154000Y-109474000D01*
X216154000Y-109474000D02*
X208534000Y-109474000D01*
X163830000Y-91590000D02*
X163830000Y-93345000D01*
X163830000Y-93345000D02*
X165227000Y-94742000D01*
X165227000Y-94742000D02*
X167767000Y-94742000D01*
X183896000Y-95758000D02*
X196977000Y-95758000D01*
X196977000Y-95758000D02*
X209423000Y-95758000D01*
X209423000Y-95758000D02*
X211328000Y-97663000D01*
X211328000Y-97663000D02*
X211328000Y-106172000D01*
X211328000Y-106172000D02*
X209296000Y-108204000D01*
X209296000Y-108204000D02*
X207264000Y-108204000D01*
X159870000Y-79040000D02*
X161717000Y-79040000D01*
X210058000Y-102870000D02*
X207264000Y-105664000D01*
X210058000Y-98425000D02*
X210058000Y-102870000D01*
X208407000Y-96774000D02*
X210058000Y-98425000D01*
X183896000Y-96774000D02*
X208407000Y-96774000D01*
X166370000Y-83693000D02*
X166370000Y-88392000D01*
X161717000Y-79040000D02*
X166370000Y-83693000D01*
X189057000Y-74200000D02*
X186849000Y-74200000D01*
X186849000Y-74200000D02*
X186182000Y-73533000D01*
X183307000Y-74200000D02*
X185515000Y-74200000D01*
X185515000Y-74200000D02*
X186182000Y-73533000D01*
X175170000Y-87440000D02*
X177356000Y-87440000D01*
X209553998Y-100834002D02*
X207264000Y-103124000D01*
X209553998Y-98633764D02*
X209553998Y-100834002D01*
X208198236Y-97278002D02*
X209553998Y-98633764D01*
X184531000Y-97278002D02*
X208198236Y-97278002D01*
X184273002Y-97536000D02*
X184531000Y-97278002D01*
X183515000Y-97536000D02*
X184273002Y-97536000D01*
X180213000Y-94234000D02*
X183515000Y-97536000D01*
X180213000Y-93980000D02*
X180213000Y-94234000D01*
X180213000Y-93599000D02*
X180213000Y-93980000D01*
X180213000Y-90297000D02*
X180213000Y-93599000D01*
X180213000Y-87503000D02*
X180213000Y-90297000D01*
X177356000Y-87440000D02*
X177419000Y-87503000D01*
X175170000Y-87440000D02*
X173800000Y-87440000D01*
X182513000Y-73406000D02*
X183307000Y-74200000D01*
X173482000Y-73406000D02*
X182513000Y-73406000D01*
X172723998Y-74164002D02*
X173482000Y-73406000D01*
X172723998Y-86363998D02*
X172723998Y-74164002D01*
X173800000Y-87440000D02*
X172723998Y-86363998D01*
X162877500Y-75247500D02*
X162885496Y-75247500D01*
X172219996Y-87764996D02*
X172847000Y-88392000D01*
X172219996Y-84582000D02*
X172219996Y-87764996D01*
X162885496Y-75247500D02*
X172219996Y-84582000D01*
X207264000Y-100584000D02*
X208160996Y-100584000D01*
X179708998Y-91189998D02*
X179451000Y-90932000D01*
X179708998Y-94442764D02*
X179708998Y-91189998D01*
X183306236Y-98040002D02*
X179708998Y-94442764D01*
X184481766Y-98040002D02*
X183306236Y-98040002D01*
X184739764Y-97782004D02*
X184481766Y-98040002D01*
X207989472Y-97782004D02*
X184739764Y-97782004D01*
X209049996Y-98842528D02*
X207989472Y-97782004D01*
X209049996Y-99695000D02*
X209049996Y-98842528D01*
X208160996Y-100584000D02*
X209049996Y-99695000D01*
X162941000Y-75311000D02*
X162877500Y-75247500D01*
X162877500Y-75247500D02*
X161870000Y-74240000D01*
X161870000Y-74240000D02*
X159870000Y-74240000D01*
X159870000Y-74240000D02*
X161166024Y-74240000D01*
X161229766Y-77840000D02*
X169672000Y-86282234D01*
X169672000Y-86282234D02*
X169672000Y-88138000D01*
X182499000Y-93218000D02*
X183134000Y-93218000D01*
X183134000Y-93218000D02*
X183645998Y-93729998D01*
X183645998Y-93729998D02*
X211536764Y-93729998D01*
X211536764Y-93729998D02*
X215392000Y-97585234D01*
X215392000Y-100584000D02*
X215392000Y-97585234D01*
X161229766Y-77840000D02*
X159870000Y-77840000D01*
X159870000Y-77840000D02*
X161057624Y-77840000D01*
X159870000Y-75440000D02*
X161673000Y-75440000D01*
X213106000Y-96139000D02*
X213106000Y-101981000D01*
X211201000Y-94234000D02*
X213106000Y-96139000D01*
X210439000Y-94234000D02*
X211201000Y-94234000D01*
X185801000Y-94234000D02*
X210439000Y-94234000D01*
X182499000Y-94234000D02*
X185801000Y-94234000D01*
X170434000Y-86331468D02*
X170434000Y-89281000D01*
X162002766Y-77900234D02*
X170434000Y-86331468D01*
X162002766Y-75769766D02*
X162002766Y-77900234D01*
X161673000Y-75440000D02*
X162002766Y-75769766D01*
X215392000Y-105664000D02*
X215392000Y-105663998D01*
X175170000Y-83840000D02*
X178328000Y-83840000D01*
X212217000Y-115697000D02*
X214884000Y-118364000D01*
X212217000Y-114173000D02*
X212217000Y-115697000D01*
X212217000Y-97028000D02*
X212217000Y-107696000D01*
X210185000Y-94996000D02*
X212217000Y-97028000D01*
X181864000Y-94996000D02*
X210185000Y-94996000D01*
X181102000Y-94234000D02*
X181864000Y-94996000D01*
X181102000Y-86614000D02*
X181102000Y-94234000D01*
X178328000Y-83840000D02*
X181102000Y-86614000D01*
X175170000Y-83840000D02*
X173375000Y-83840000D01*
X173734000Y-75440000D02*
X175170000Y-75440000D01*
X173228000Y-75946000D02*
X173734000Y-75440000D01*
X173228000Y-83693000D02*
X173228000Y-75946000D01*
X173375000Y-83840000D02*
X173228000Y-83693000D01*
X157480000Y-108204000D02*
X157480000Y-107950000D01*
X161036000Y-93114000D02*
X162560000Y-91590000D01*
X161036000Y-105918000D02*
X161036000Y-93114000D01*
X160528000Y-106426000D02*
X161036000Y-105918000D01*
X159004000Y-106426000D02*
X160528000Y-106426000D01*
X157480000Y-107950000D02*
X159004000Y-106426000D01*
X156036000Y-108204000D02*
X157480000Y-108204000D01*
X157480000Y-108204000D02*
X159686000Y-108204000D01*
X157480000Y-104648000D02*
X157480000Y-92230000D01*
X157480000Y-92230000D02*
X159870000Y-89840000D01*
X156036000Y-104648000D02*
X157480000Y-104648000D01*
X157480000Y-104648000D02*
X159686000Y-104648000D01*
X183307000Y-78200000D02*
X189057000Y-78200000D01*
X175170000Y-89840000D02*
X173533000Y-89840000D01*
X181134000Y-78200000D02*
X183307000Y-78200000D01*
X180213000Y-79121000D02*
X181134000Y-78200000D01*
X171323000Y-88392000D02*
X171323000Y-85725000D01*
X172212000Y-89281000D02*
X171323000Y-88392000D01*
X172974000Y-89281000D02*
X172212000Y-89281000D01*
X173533000Y-89840000D02*
X172974000Y-89281000D01*
X175170000Y-89840000D02*
X176962000Y-89840000D01*
X173371000Y-95361000D02*
X173371000Y-98917000D01*
X173863000Y-94869000D02*
X173371000Y-95361000D01*
X175895000Y-94869000D02*
X173863000Y-94869000D01*
X177419000Y-93345000D02*
X175895000Y-94869000D01*
X177419000Y-90297000D02*
X177419000Y-93345000D01*
X176962000Y-89840000D02*
X177419000Y-90297000D01*
X173371000Y-98917000D02*
X177689000Y-98917000D01*
X177689000Y-98917000D02*
X179324000Y-100552000D01*
X173371000Y-98917000D02*
X175006000Y-100552000D01*
X175170000Y-86240000D02*
X177556998Y-86240000D01*
X178184998Y-93373002D02*
X175006000Y-96552000D01*
X178184998Y-86868000D02*
X178184998Y-93373002D01*
X177556998Y-86240000D02*
X178184998Y-86868000D01*
X175170000Y-85040000D02*
X177877000Y-85040000D01*
X178689000Y-85852000D02*
X178689000Y-95917000D01*
X177877000Y-85040000D02*
X178689000Y-85852000D01*
X178689000Y-95917000D02*
X179324000Y-96552000D01*
M02*
