G04 #@! TF.FileFunction,Legend,Bot*
%FSLAX46Y46*%
G04 Gerber Fmt 4.6, Leading zero omitted, Abs format (unit mm)*
G04 Created by KiCad (PCBNEW 4.0.6) date Wednesday, April 11, 2018 'PMt' 08:09:55 PM*
%MOMM*%
%LPD*%
G01*
G04 APERTURE LIST*
%ADD10C,0.100000*%
%ADD11C,0.120000*%
%ADD12C,0.150000*%
G04 APERTURE END LIST*
D10*
D11*
X150964000Y-82812000D02*
X150964000Y-83812000D01*
X149264000Y-83812000D02*
X149264000Y-82812000D01*
X153424000Y-89574000D02*
X154424000Y-89574000D01*
X154424000Y-91274000D02*
X153424000Y-91274000D01*
X153424000Y-86018000D02*
X154424000Y-86018000D01*
X154424000Y-87718000D02*
X153424000Y-87718000D01*
X150964000Y-75192000D02*
X150964000Y-76192000D01*
X149264000Y-76192000D02*
X149264000Y-75192000D01*
X160774000Y-98132000D02*
X159774000Y-98132000D01*
X159774000Y-96432000D02*
X160774000Y-96432000D01*
X154424000Y-101434000D02*
X153424000Y-101434000D01*
X153424000Y-99734000D02*
X154424000Y-99734000D01*
X196635000Y-77462000D02*
X196635000Y-76462000D01*
X198335000Y-76462000D02*
X198335000Y-77462000D01*
X185332000Y-90162000D02*
X185332000Y-89162000D01*
X187032000Y-89162000D02*
X187032000Y-90162000D01*
X196635000Y-90162000D02*
X196635000Y-89162000D01*
X198335000Y-89162000D02*
X198335000Y-90162000D01*
X207684000Y-90162000D02*
X207684000Y-89162000D01*
X209384000Y-89162000D02*
X209384000Y-90162000D01*
X207684000Y-77462000D02*
X207684000Y-76462000D01*
X209384000Y-76462000D02*
X209384000Y-77462000D01*
X142910000Y-109719000D02*
X144110000Y-109719000D01*
X144110000Y-107959000D02*
X142910000Y-107959000D01*
X154524000Y-93100000D02*
X153324000Y-93100000D01*
X153324000Y-94860000D02*
X154524000Y-94860000D01*
X153324000Y-98162000D02*
X154524000Y-98162000D01*
X154524000Y-96402000D02*
X153324000Y-96402000D01*
X197450000Y-104530000D02*
X196250000Y-104530000D01*
X196250000Y-106290000D02*
X197450000Y-106290000D01*
X197450000Y-108340000D02*
X196250000Y-108340000D01*
X196250000Y-110100000D02*
X197450000Y-110100000D01*
X187290000Y-109610000D02*
X186090000Y-109610000D01*
X186090000Y-111370000D02*
X187290000Y-111370000D01*
X197450000Y-112150000D02*
X196250000Y-112150000D01*
X196250000Y-113910000D02*
X197450000Y-113910000D01*
X187290000Y-105800000D02*
X186090000Y-105800000D01*
X186090000Y-107560000D02*
X187290000Y-107560000D01*
X187062000Y-77308000D02*
X187062000Y-76108000D01*
X185302000Y-76108000D02*
X185302000Y-77308000D01*
D12*
X150280666Y-80621143D02*
X150328285Y-80668762D01*
X150471142Y-80716381D01*
X150566380Y-80716381D01*
X150709238Y-80668762D01*
X150804476Y-80573524D01*
X150852095Y-80478286D01*
X150899714Y-80287810D01*
X150899714Y-80144952D01*
X150852095Y-79954476D01*
X150804476Y-79859238D01*
X150709238Y-79764000D01*
X150566380Y-79716381D01*
X150471142Y-79716381D01*
X150328285Y-79764000D01*
X150280666Y-79811619D01*
X149947333Y-79716381D02*
X149328285Y-79716381D01*
X149661619Y-80097333D01*
X149518761Y-80097333D01*
X149423523Y-80144952D01*
X149375904Y-80192571D01*
X149328285Y-80287810D01*
X149328285Y-80525905D01*
X149375904Y-80621143D01*
X149423523Y-80668762D01*
X149518761Y-80716381D01*
X149804476Y-80716381D01*
X149899714Y-80668762D01*
X149947333Y-80621143D01*
X157392666Y-90781143D02*
X157440285Y-90828762D01*
X157583142Y-90876381D01*
X157678380Y-90876381D01*
X157821238Y-90828762D01*
X157916476Y-90733524D01*
X157964095Y-90638286D01*
X158011714Y-90447810D01*
X158011714Y-90304952D01*
X157964095Y-90114476D01*
X157916476Y-90019238D01*
X157821238Y-89924000D01*
X157678380Y-89876381D01*
X157583142Y-89876381D01*
X157440285Y-89924000D01*
X157392666Y-89971619D01*
X156535523Y-90209714D02*
X156535523Y-90876381D01*
X156773619Y-89828762D02*
X157011714Y-90543048D01*
X156392666Y-90543048D01*
X157265666Y-87225143D02*
X157313285Y-87272762D01*
X157456142Y-87320381D01*
X157551380Y-87320381D01*
X157694238Y-87272762D01*
X157789476Y-87177524D01*
X157837095Y-87082286D01*
X157884714Y-86891810D01*
X157884714Y-86748952D01*
X157837095Y-86558476D01*
X157789476Y-86463238D01*
X157694238Y-86368000D01*
X157551380Y-86320381D01*
X157456142Y-86320381D01*
X157313285Y-86368000D01*
X157265666Y-86415619D01*
X156408523Y-86320381D02*
X156599000Y-86320381D01*
X156694238Y-86368000D01*
X156741857Y-86415619D01*
X156837095Y-86558476D01*
X156884714Y-86748952D01*
X156884714Y-87129905D01*
X156837095Y-87225143D01*
X156789476Y-87272762D01*
X156694238Y-87320381D01*
X156503761Y-87320381D01*
X156408523Y-87272762D01*
X156360904Y-87225143D01*
X156313285Y-87129905D01*
X156313285Y-86891810D01*
X156360904Y-86796571D01*
X156408523Y-86748952D01*
X156503761Y-86701333D01*
X156694238Y-86701333D01*
X156789476Y-86748952D01*
X156837095Y-86796571D01*
X156884714Y-86891810D01*
X150280666Y-79097143D02*
X150328285Y-79144762D01*
X150471142Y-79192381D01*
X150566380Y-79192381D01*
X150709238Y-79144762D01*
X150804476Y-79049524D01*
X150852095Y-78954286D01*
X150899714Y-78763810D01*
X150899714Y-78620952D01*
X150852095Y-78430476D01*
X150804476Y-78335238D01*
X150709238Y-78240000D01*
X150566380Y-78192381D01*
X150471142Y-78192381D01*
X150328285Y-78240000D01*
X150280666Y-78287619D01*
X149947333Y-78192381D02*
X149280666Y-78192381D01*
X149709238Y-79192381D01*
X163742666Y-97639143D02*
X163790285Y-97686762D01*
X163933142Y-97734381D01*
X164028380Y-97734381D01*
X164171238Y-97686762D01*
X164266476Y-97591524D01*
X164314095Y-97496286D01*
X164361714Y-97305810D01*
X164361714Y-97162952D01*
X164314095Y-96972476D01*
X164266476Y-96877238D01*
X164171238Y-96782000D01*
X164028380Y-96734381D01*
X163933142Y-96734381D01*
X163790285Y-96782000D01*
X163742666Y-96829619D01*
X163171238Y-97162952D02*
X163266476Y-97115333D01*
X163314095Y-97067714D01*
X163361714Y-96972476D01*
X163361714Y-96924857D01*
X163314095Y-96829619D01*
X163266476Y-96782000D01*
X163171238Y-96734381D01*
X162980761Y-96734381D01*
X162885523Y-96782000D01*
X162837904Y-96829619D01*
X162790285Y-96924857D01*
X162790285Y-96972476D01*
X162837904Y-97067714D01*
X162885523Y-97115333D01*
X162980761Y-97162952D01*
X163171238Y-97162952D01*
X163266476Y-97210571D01*
X163314095Y-97258190D01*
X163361714Y-97353429D01*
X163361714Y-97543905D01*
X163314095Y-97639143D01*
X163266476Y-97686762D01*
X163171238Y-97734381D01*
X162980761Y-97734381D01*
X162885523Y-97686762D01*
X162837904Y-97639143D01*
X162790285Y-97543905D01*
X162790285Y-97353429D01*
X162837904Y-97258190D01*
X162885523Y-97210571D01*
X162980761Y-97162952D01*
X157265666Y-100941143D02*
X157313285Y-100988762D01*
X157456142Y-101036381D01*
X157551380Y-101036381D01*
X157694238Y-100988762D01*
X157789476Y-100893524D01*
X157837095Y-100798286D01*
X157884714Y-100607810D01*
X157884714Y-100464952D01*
X157837095Y-100274476D01*
X157789476Y-100179238D01*
X157694238Y-100084000D01*
X157551380Y-100036381D01*
X157456142Y-100036381D01*
X157313285Y-100084000D01*
X157265666Y-100131619D01*
X156789476Y-101036381D02*
X156599000Y-101036381D01*
X156503761Y-100988762D01*
X156456142Y-100941143D01*
X156360904Y-100798286D01*
X156313285Y-100607810D01*
X156313285Y-100226857D01*
X156360904Y-100131619D01*
X156408523Y-100084000D01*
X156503761Y-100036381D01*
X156694238Y-100036381D01*
X156789476Y-100084000D01*
X156837095Y-100131619D01*
X156884714Y-100226857D01*
X156884714Y-100464952D01*
X156837095Y-100560190D01*
X156789476Y-100607810D01*
X156694238Y-100655429D01*
X156503761Y-100655429D01*
X156408523Y-100607810D01*
X156360904Y-100560190D01*
X156313285Y-100464952D01*
X195714857Y-77319143D02*
X195762476Y-77366762D01*
X195905333Y-77414381D01*
X196000571Y-77414381D01*
X196143429Y-77366762D01*
X196238667Y-77271524D01*
X196286286Y-77176286D01*
X196333905Y-76985810D01*
X196333905Y-76842952D01*
X196286286Y-76652476D01*
X196238667Y-76557238D01*
X196143429Y-76462000D01*
X196000571Y-76414381D01*
X195905333Y-76414381D01*
X195762476Y-76462000D01*
X195714857Y-76509619D01*
X194762476Y-77414381D02*
X195333905Y-77414381D01*
X195048191Y-77414381D02*
X195048191Y-76414381D01*
X195143429Y-76557238D01*
X195238667Y-76652476D01*
X195333905Y-76700095D01*
X193810095Y-77414381D02*
X194381524Y-77414381D01*
X194095810Y-77414381D02*
X194095810Y-76414381D01*
X194191048Y-76557238D01*
X194286286Y-76652476D01*
X194381524Y-76700095D01*
X184538857Y-90019143D02*
X184586476Y-90066762D01*
X184729333Y-90114381D01*
X184824571Y-90114381D01*
X184967429Y-90066762D01*
X185062667Y-89971524D01*
X185110286Y-89876286D01*
X185157905Y-89685810D01*
X185157905Y-89542952D01*
X185110286Y-89352476D01*
X185062667Y-89257238D01*
X184967429Y-89162000D01*
X184824571Y-89114381D01*
X184729333Y-89114381D01*
X184586476Y-89162000D01*
X184538857Y-89209619D01*
X183586476Y-90114381D02*
X184157905Y-90114381D01*
X183872191Y-90114381D02*
X183872191Y-89114381D01*
X183967429Y-89257238D01*
X184062667Y-89352476D01*
X184157905Y-89400095D01*
X183205524Y-89209619D02*
X183157905Y-89162000D01*
X183062667Y-89114381D01*
X182824571Y-89114381D01*
X182729333Y-89162000D01*
X182681714Y-89209619D01*
X182634095Y-89304857D01*
X182634095Y-89400095D01*
X182681714Y-89542952D01*
X183253143Y-90114381D01*
X182634095Y-90114381D01*
X195841857Y-90019143D02*
X195889476Y-90066762D01*
X196032333Y-90114381D01*
X196127571Y-90114381D01*
X196270429Y-90066762D01*
X196365667Y-89971524D01*
X196413286Y-89876286D01*
X196460905Y-89685810D01*
X196460905Y-89542952D01*
X196413286Y-89352476D01*
X196365667Y-89257238D01*
X196270429Y-89162000D01*
X196127571Y-89114381D01*
X196032333Y-89114381D01*
X195889476Y-89162000D01*
X195841857Y-89209619D01*
X194889476Y-90114381D02*
X195460905Y-90114381D01*
X195175191Y-90114381D02*
X195175191Y-89114381D01*
X195270429Y-89257238D01*
X195365667Y-89352476D01*
X195460905Y-89400095D01*
X194556143Y-89114381D02*
X193937095Y-89114381D01*
X194270429Y-89495333D01*
X194127571Y-89495333D01*
X194032333Y-89542952D01*
X193984714Y-89590571D01*
X193937095Y-89685810D01*
X193937095Y-89923905D01*
X193984714Y-90019143D01*
X194032333Y-90066762D01*
X194127571Y-90114381D01*
X194413286Y-90114381D01*
X194508524Y-90066762D01*
X194556143Y-90019143D01*
X206890857Y-90019143D02*
X206938476Y-90066762D01*
X207081333Y-90114381D01*
X207176571Y-90114381D01*
X207319429Y-90066762D01*
X207414667Y-89971524D01*
X207462286Y-89876286D01*
X207509905Y-89685810D01*
X207509905Y-89542952D01*
X207462286Y-89352476D01*
X207414667Y-89257238D01*
X207319429Y-89162000D01*
X207176571Y-89114381D01*
X207081333Y-89114381D01*
X206938476Y-89162000D01*
X206890857Y-89209619D01*
X205938476Y-90114381D02*
X206509905Y-90114381D01*
X206224191Y-90114381D02*
X206224191Y-89114381D01*
X206319429Y-89257238D01*
X206414667Y-89352476D01*
X206509905Y-89400095D01*
X205081333Y-89447714D02*
X205081333Y-90114381D01*
X205319429Y-89066762D02*
X205557524Y-89781048D01*
X204938476Y-89781048D01*
X206890857Y-77319143D02*
X206938476Y-77366762D01*
X207081333Y-77414381D01*
X207176571Y-77414381D01*
X207319429Y-77366762D01*
X207414667Y-77271524D01*
X207462286Y-77176286D01*
X207509905Y-76985810D01*
X207509905Y-76842952D01*
X207462286Y-76652476D01*
X207414667Y-76557238D01*
X207319429Y-76462000D01*
X207176571Y-76414381D01*
X207081333Y-76414381D01*
X206938476Y-76462000D01*
X206890857Y-76509619D01*
X205938476Y-77414381D02*
X206509905Y-77414381D01*
X206224191Y-77414381D02*
X206224191Y-76414381D01*
X206319429Y-76557238D01*
X206414667Y-76652476D01*
X206509905Y-76700095D01*
X205033714Y-76414381D02*
X205509905Y-76414381D01*
X205557524Y-76890571D01*
X205509905Y-76842952D01*
X205414667Y-76795333D01*
X205176571Y-76795333D01*
X205081333Y-76842952D01*
X205033714Y-76890571D01*
X204986095Y-76985810D01*
X204986095Y-77223905D01*
X205033714Y-77319143D01*
X205081333Y-77366762D01*
X205176571Y-77414381D01*
X205414667Y-77414381D01*
X205509905Y-77366762D01*
X205557524Y-77319143D01*
X143676666Y-111069381D02*
X144010000Y-110593190D01*
X144248095Y-111069381D02*
X144248095Y-110069381D01*
X143867142Y-110069381D01*
X143771904Y-110117000D01*
X143724285Y-110164619D01*
X143676666Y-110259857D01*
X143676666Y-110402714D01*
X143724285Y-110497952D01*
X143771904Y-110545571D01*
X143867142Y-110593190D01*
X144248095Y-110593190D01*
X143343333Y-110069381D02*
X142724285Y-110069381D01*
X143057619Y-110450333D01*
X142914761Y-110450333D01*
X142819523Y-110497952D01*
X142771904Y-110545571D01*
X142724285Y-110640810D01*
X142724285Y-110878905D01*
X142771904Y-110974143D01*
X142819523Y-111021762D01*
X142914761Y-111069381D01*
X143200476Y-111069381D01*
X143295714Y-111021762D01*
X143343333Y-110974143D01*
X157392666Y-94432381D02*
X157726000Y-93956190D01*
X157964095Y-94432381D02*
X157964095Y-93432381D01*
X157583142Y-93432381D01*
X157487904Y-93480000D01*
X157440285Y-93527619D01*
X157392666Y-93622857D01*
X157392666Y-93765714D01*
X157440285Y-93860952D01*
X157487904Y-93908571D01*
X157583142Y-93956190D01*
X157964095Y-93956190D01*
X156821238Y-93860952D02*
X156916476Y-93813333D01*
X156964095Y-93765714D01*
X157011714Y-93670476D01*
X157011714Y-93622857D01*
X156964095Y-93527619D01*
X156916476Y-93480000D01*
X156821238Y-93432381D01*
X156630761Y-93432381D01*
X156535523Y-93480000D01*
X156487904Y-93527619D01*
X156440285Y-93622857D01*
X156440285Y-93670476D01*
X156487904Y-93765714D01*
X156535523Y-93813333D01*
X156630761Y-93860952D01*
X156821238Y-93860952D01*
X156916476Y-93908571D01*
X156964095Y-93956190D01*
X157011714Y-94051429D01*
X157011714Y-94241905D01*
X156964095Y-94337143D01*
X156916476Y-94384762D01*
X156821238Y-94432381D01*
X156630761Y-94432381D01*
X156535523Y-94384762D01*
X156487904Y-94337143D01*
X156440285Y-94241905D01*
X156440285Y-94051429D01*
X156487904Y-93956190D01*
X156535523Y-93908571D01*
X156630761Y-93860952D01*
X157392666Y-97734381D02*
X157726000Y-97258190D01*
X157964095Y-97734381D02*
X157964095Y-96734381D01*
X157583142Y-96734381D01*
X157487904Y-96782000D01*
X157440285Y-96829619D01*
X157392666Y-96924857D01*
X157392666Y-97067714D01*
X157440285Y-97162952D01*
X157487904Y-97210571D01*
X157583142Y-97258190D01*
X157964095Y-97258190D01*
X156916476Y-97734381D02*
X156726000Y-97734381D01*
X156630761Y-97686762D01*
X156583142Y-97639143D01*
X156487904Y-97496286D01*
X156440285Y-97305810D01*
X156440285Y-96924857D01*
X156487904Y-96829619D01*
X156535523Y-96782000D01*
X156630761Y-96734381D01*
X156821238Y-96734381D01*
X156916476Y-96782000D01*
X156964095Y-96829619D01*
X157011714Y-96924857D01*
X157011714Y-97162952D01*
X156964095Y-97258190D01*
X156916476Y-97305810D01*
X156821238Y-97353429D01*
X156630761Y-97353429D01*
X156535523Y-97305810D01*
X156487904Y-97258190D01*
X156440285Y-97162952D01*
X197492857Y-107562381D02*
X197826191Y-107086190D01*
X198064286Y-107562381D02*
X198064286Y-106562381D01*
X197683333Y-106562381D01*
X197588095Y-106610000D01*
X197540476Y-106657619D01*
X197492857Y-106752857D01*
X197492857Y-106895714D01*
X197540476Y-106990952D01*
X197588095Y-107038571D01*
X197683333Y-107086190D01*
X198064286Y-107086190D01*
X196540476Y-107562381D02*
X197111905Y-107562381D01*
X196826191Y-107562381D02*
X196826191Y-106562381D01*
X196921429Y-106705238D01*
X197016667Y-106800476D01*
X197111905Y-106848095D01*
X195588095Y-107562381D02*
X196159524Y-107562381D01*
X195873810Y-107562381D02*
X195873810Y-106562381D01*
X195969048Y-106705238D01*
X196064286Y-106800476D01*
X196159524Y-106848095D01*
X197492857Y-111372381D02*
X197826191Y-110896190D01*
X198064286Y-111372381D02*
X198064286Y-110372381D01*
X197683333Y-110372381D01*
X197588095Y-110420000D01*
X197540476Y-110467619D01*
X197492857Y-110562857D01*
X197492857Y-110705714D01*
X197540476Y-110800952D01*
X197588095Y-110848571D01*
X197683333Y-110896190D01*
X198064286Y-110896190D01*
X196540476Y-111372381D02*
X197111905Y-111372381D01*
X196826191Y-111372381D02*
X196826191Y-110372381D01*
X196921429Y-110515238D01*
X197016667Y-110610476D01*
X197111905Y-110658095D01*
X196159524Y-110467619D02*
X196111905Y-110420000D01*
X196016667Y-110372381D01*
X195778571Y-110372381D01*
X195683333Y-110420000D01*
X195635714Y-110467619D01*
X195588095Y-110562857D01*
X195588095Y-110658095D01*
X195635714Y-110800952D01*
X196207143Y-111372381D01*
X195588095Y-111372381D01*
X187332857Y-112642381D02*
X187666191Y-112166190D01*
X187904286Y-112642381D02*
X187904286Y-111642381D01*
X187523333Y-111642381D01*
X187428095Y-111690000D01*
X187380476Y-111737619D01*
X187332857Y-111832857D01*
X187332857Y-111975714D01*
X187380476Y-112070952D01*
X187428095Y-112118571D01*
X187523333Y-112166190D01*
X187904286Y-112166190D01*
X186380476Y-112642381D02*
X186951905Y-112642381D01*
X186666191Y-112642381D02*
X186666191Y-111642381D01*
X186761429Y-111785238D01*
X186856667Y-111880476D01*
X186951905Y-111928095D01*
X186047143Y-111642381D02*
X185428095Y-111642381D01*
X185761429Y-112023333D01*
X185618571Y-112023333D01*
X185523333Y-112070952D01*
X185475714Y-112118571D01*
X185428095Y-112213810D01*
X185428095Y-112451905D01*
X185475714Y-112547143D01*
X185523333Y-112594762D01*
X185618571Y-112642381D01*
X185904286Y-112642381D01*
X185999524Y-112594762D01*
X186047143Y-112547143D01*
X197492857Y-115182381D02*
X197826191Y-114706190D01*
X198064286Y-115182381D02*
X198064286Y-114182381D01*
X197683333Y-114182381D01*
X197588095Y-114230000D01*
X197540476Y-114277619D01*
X197492857Y-114372857D01*
X197492857Y-114515714D01*
X197540476Y-114610952D01*
X197588095Y-114658571D01*
X197683333Y-114706190D01*
X198064286Y-114706190D01*
X196540476Y-115182381D02*
X197111905Y-115182381D01*
X196826191Y-115182381D02*
X196826191Y-114182381D01*
X196921429Y-114325238D01*
X197016667Y-114420476D01*
X197111905Y-114468095D01*
X195683333Y-114515714D02*
X195683333Y-115182381D01*
X195921429Y-114134762D02*
X196159524Y-114849048D01*
X195540476Y-114849048D01*
X187332857Y-108832381D02*
X187666191Y-108356190D01*
X187904286Y-108832381D02*
X187904286Y-107832381D01*
X187523333Y-107832381D01*
X187428095Y-107880000D01*
X187380476Y-107927619D01*
X187332857Y-108022857D01*
X187332857Y-108165714D01*
X187380476Y-108260952D01*
X187428095Y-108308571D01*
X187523333Y-108356190D01*
X187904286Y-108356190D01*
X186380476Y-108832381D02*
X186951905Y-108832381D01*
X186666191Y-108832381D02*
X186666191Y-107832381D01*
X186761429Y-107975238D01*
X186856667Y-108070476D01*
X186951905Y-108118095D01*
X185475714Y-107832381D02*
X185951905Y-107832381D01*
X185999524Y-108308571D01*
X185951905Y-108260952D01*
X185856667Y-108213333D01*
X185618571Y-108213333D01*
X185523333Y-108260952D01*
X185475714Y-108308571D01*
X185428095Y-108403810D01*
X185428095Y-108641905D01*
X185475714Y-108737143D01*
X185523333Y-108784762D01*
X185618571Y-108832381D01*
X185856667Y-108832381D01*
X185951905Y-108784762D01*
X185999524Y-108737143D01*
X184411857Y-77160381D02*
X184745191Y-76684190D01*
X184983286Y-77160381D02*
X184983286Y-76160381D01*
X184602333Y-76160381D01*
X184507095Y-76208000D01*
X184459476Y-76255619D01*
X184411857Y-76350857D01*
X184411857Y-76493714D01*
X184459476Y-76588952D01*
X184507095Y-76636571D01*
X184602333Y-76684190D01*
X184983286Y-76684190D01*
X183459476Y-77160381D02*
X184030905Y-77160381D01*
X183745191Y-77160381D02*
X183745191Y-76160381D01*
X183840429Y-76303238D01*
X183935667Y-76398476D01*
X184030905Y-76446095D01*
X182602333Y-76160381D02*
X182792810Y-76160381D01*
X182888048Y-76208000D01*
X182935667Y-76255619D01*
X183030905Y-76398476D01*
X183078524Y-76588952D01*
X183078524Y-76969905D01*
X183030905Y-77065143D01*
X182983286Y-77112762D01*
X182888048Y-77160381D01*
X182697571Y-77160381D01*
X182602333Y-77112762D01*
X182554714Y-77065143D01*
X182507095Y-76969905D01*
X182507095Y-76731810D01*
X182554714Y-76636571D01*
X182602333Y-76588952D01*
X182697571Y-76541333D01*
X182888048Y-76541333D01*
X182983286Y-76588952D01*
X183030905Y-76636571D01*
X183078524Y-76731810D01*
M02*
