G04 #@! TF.FileFunction,Copper,L2,Bot,Signal*
%FSLAX46Y46*%
G04 Gerber Fmt 4.6, Leading zero omitted, Abs format (unit mm)*
G04 Created by KiCad (PCBNEW 4.0.6) date Wednesday, April 11, 2018 'PMt' 08:09:55 PM*
%MOMM*%
%LPD*%
G01*
G04 APERTURE LIST*
%ADD10C,0.100000*%
%ADD11C,6.400000*%
%ADD12O,1.500000X2.500000*%
%ADD13O,2.500000X1.500000*%
%ADD14C,2.000000*%
%ADD15C,1.600000*%
%ADD16R,1.250000X1.500000*%
%ADD17R,1.500000X1.250000*%
%ADD18R,1.700000X1.700000*%
%ADD19O,1.700000X1.700000*%
%ADD20O,1.250000X0.950000*%
%ADD21O,1.000000X1.550000*%
%ADD22R,1.500000X1.300000*%
%ADD23R,1.300000X1.500000*%
%ADD24R,1.600000X1.600000*%
%ADD25O,1.600000X1.600000*%
%ADD26C,1.100000*%
%ADD27C,0.654000*%
%ADD28C,0.381000*%
%ADD29C,0.254000*%
G04 APERTURE END LIST*
D10*
D11*
X217000000Y-76000000D03*
D12*
X140208000Y-86487000D03*
D13*
X145208000Y-81487000D03*
X145208000Y-83987000D03*
X145208000Y-88987000D03*
X145208000Y-91487000D03*
D14*
X145208000Y-86487000D03*
D15*
X140208000Y-91567000D03*
X138208000Y-91487000D03*
X138208000Y-81487000D03*
X140208000Y-81487000D03*
D11*
X140000000Y-76000000D03*
X140000000Y-127000000D03*
D16*
X150114000Y-84562000D03*
X150114000Y-82062000D03*
D17*
X155174000Y-90424000D03*
X152674000Y-90424000D03*
X155174000Y-86868000D03*
X152674000Y-86868000D03*
D16*
X150114000Y-76942000D03*
X150114000Y-74442000D03*
D17*
X159024000Y-97282000D03*
X161524000Y-97282000D03*
X152674000Y-100584000D03*
X155174000Y-100584000D03*
D16*
X197485000Y-75712000D03*
X197485000Y-78212000D03*
X186182000Y-88412000D03*
X186182000Y-90912000D03*
X197485000Y-88412000D03*
X197485000Y-90912000D03*
X208534000Y-88412000D03*
X208534000Y-90912000D03*
X208534000Y-75712000D03*
X208534000Y-78212000D03*
D18*
X168910000Y-119380000D03*
D19*
X171450000Y-119380000D03*
D18*
X169164000Y-106172000D03*
D19*
X171704000Y-106172000D03*
D20*
X153710000Y-126793000D03*
X158710000Y-126793000D03*
D21*
X152710000Y-129493000D03*
X159710000Y-129493000D03*
D18*
X180340000Y-118872000D03*
D19*
X182880000Y-118872000D03*
X185420000Y-118872000D03*
X187960000Y-118872000D03*
X190500000Y-118872000D03*
X193040000Y-118872000D03*
D18*
X207264000Y-118364000D03*
D19*
X207264000Y-115824000D03*
X207264000Y-113284000D03*
X207264000Y-110744000D03*
X207264000Y-108204000D03*
X207264000Y-105664000D03*
X207264000Y-103124000D03*
X207264000Y-100584000D03*
D18*
X215392000Y-100584000D03*
D19*
X215392000Y-103124000D03*
X215392000Y-105664000D03*
X215392000Y-108204000D03*
X215392000Y-110744000D03*
X215392000Y-113284000D03*
X215392000Y-115824000D03*
X215392000Y-118364000D03*
D22*
X144860000Y-108839000D03*
X142160000Y-108839000D03*
X152574000Y-93980000D03*
X155274000Y-93980000D03*
X155274000Y-97282000D03*
X152574000Y-97282000D03*
X195500000Y-105410000D03*
X198200000Y-105410000D03*
X195500000Y-109220000D03*
X198200000Y-109220000D03*
X185340000Y-110490000D03*
X188040000Y-110490000D03*
X195500000Y-113030000D03*
X198200000Y-113030000D03*
X185340000Y-106680000D03*
X188040000Y-106680000D03*
D23*
X186182000Y-75358000D03*
X186182000Y-78058000D03*
D24*
X182880000Y-104140000D03*
D25*
X190500000Y-111760000D03*
X182880000Y-106680000D03*
X190500000Y-109220000D03*
X182880000Y-109220000D03*
X190500000Y-106680000D03*
X182880000Y-111760000D03*
X190500000Y-104140000D03*
D12*
X140208000Y-101600000D03*
D13*
X145208000Y-96600000D03*
X145208000Y-99100000D03*
X145208000Y-104100000D03*
X145208000Y-106600000D03*
D14*
X145208000Y-101600000D03*
D15*
X140208000Y-106680000D03*
X138208000Y-106600000D03*
X138208000Y-96600000D03*
X140208000Y-96600000D03*
D12*
X140208000Y-116840000D03*
D13*
X145208000Y-111840000D03*
X145208000Y-114340000D03*
X145208000Y-119340000D03*
X145208000Y-121840000D03*
D14*
X145208000Y-116840000D03*
D15*
X140208000Y-121920000D03*
X138208000Y-121840000D03*
X138208000Y-111840000D03*
X140208000Y-111840000D03*
D18*
X154432000Y-77724000D03*
D19*
X154432000Y-75184000D03*
D11*
X217000000Y-127000000D03*
D26*
X171450000Y-98425000D03*
X178943000Y-74549000D03*
X191770000Y-78867000D03*
X213614000Y-78994000D03*
X203073000Y-90932000D03*
X191770000Y-90932000D03*
X164084000Y-109728000D03*
X177292000Y-108712000D03*
X174244000Y-111760000D03*
D27*
X156718000Y-87630000D03*
X155956000Y-85344000D03*
X155702000Y-92202000D03*
X197485000Y-73533000D03*
X177546000Y-75565000D03*
X177546000Y-82296000D03*
X186182000Y-86360000D03*
X197485000Y-86487000D03*
X183896000Y-88773000D03*
X168910000Y-87503000D03*
X208534000Y-84963000D03*
X202946000Y-79375000D03*
X208534000Y-73660000D03*
X218059000Y-98552000D03*
X167767000Y-94742000D03*
X183896000Y-95758000D03*
X183896000Y-96774000D03*
X166370000Y-88392000D03*
X186182000Y-73533000D03*
X180213000Y-87503000D03*
X177419000Y-87503000D03*
X172847000Y-88392000D03*
X179451000Y-90932000D03*
X169672000Y-88138000D03*
X182499000Y-93218000D03*
X213106000Y-101981000D03*
X182499000Y-94234000D03*
X170434000Y-89281000D03*
X212217000Y-114173000D03*
X212217000Y-107696000D03*
X180213000Y-79121000D03*
X171323000Y-85725000D03*
D28*
X179324000Y-74930000D02*
X179324000Y-76962000D01*
X178943000Y-74549000D02*
X179324000Y-74930000D01*
X152710000Y-129493000D02*
X152710000Y-120706000D01*
X152710000Y-120706000D02*
X152654000Y-120650000D01*
X153710000Y-126793000D02*
X153710000Y-120690000D01*
X153710000Y-120690000D02*
X153670000Y-120650000D01*
X159710000Y-129493000D02*
X159710000Y-120721000D01*
X159710000Y-120721000D02*
X159639000Y-120650000D01*
X158710000Y-126793000D02*
X158710000Y-120690000D01*
X158710000Y-120690000D02*
X158750000Y-120650000D01*
X174244000Y-111760000D02*
X177292000Y-108712000D01*
D29*
X146003000Y-91487000D02*
X150114000Y-87376000D01*
X150114000Y-87376000D02*
X150114000Y-84562000D01*
X150054000Y-84502000D02*
X150114000Y-84562000D01*
X150054000Y-84502000D02*
X150114000Y-84562000D01*
X155174000Y-90424000D02*
X155174000Y-89174000D01*
X155174000Y-89174000D02*
X156718000Y-87630000D01*
X140208000Y-101600000D02*
X140208000Y-99949000D01*
X148229000Y-94869000D02*
X152674000Y-90424000D01*
X143764000Y-94869000D02*
X148229000Y-94869000D01*
X142494000Y-96139000D02*
X143764000Y-94869000D01*
X142494000Y-97663000D02*
X142494000Y-96139000D01*
X140208000Y-99949000D02*
X142494000Y-97663000D01*
X142160000Y-108839000D02*
X142160000Y-103552000D01*
X142160000Y-103552000D02*
X140208000Y-101600000D01*
X155174000Y-86868000D02*
X155174000Y-86126000D01*
X155174000Y-86126000D02*
X155956000Y-85344000D01*
X145208000Y-106600000D02*
X145749000Y-106600000D01*
X145749000Y-106600000D02*
X150368000Y-101981000D01*
X150368000Y-101981000D02*
X150368000Y-96186000D01*
X150368000Y-96186000D02*
X152574000Y-93980000D01*
X152574000Y-93980000D02*
X152574000Y-93298000D01*
X153924000Y-88118000D02*
X152674000Y-86868000D01*
X153924000Y-91948000D02*
X153924000Y-88118000D01*
X152574000Y-93298000D02*
X153924000Y-91948000D01*
X145208000Y-81487000D02*
X145208000Y-79348000D01*
X145208000Y-79348000D02*
X150114000Y-74442000D01*
X150054000Y-74502000D02*
X150114000Y-74442000D01*
X150054000Y-74502000D02*
X150114000Y-74442000D01*
X155274000Y-97282000D02*
X159024000Y-97282000D01*
X155274000Y-93980000D02*
X155274000Y-97282000D01*
X152574000Y-97282000D02*
X152574000Y-96346000D01*
X154686000Y-92202000D02*
X155702000Y-92202000D01*
X153924000Y-92964000D02*
X154686000Y-92202000D01*
X153924000Y-94996000D02*
X153924000Y-92964000D01*
X152574000Y-96346000D02*
X153924000Y-94996000D01*
X152574000Y-97282000D02*
X152574000Y-100484000D01*
X152574000Y-100484000D02*
X152674000Y-100584000D01*
X197485000Y-73533000D02*
X197485000Y-75712000D01*
X177546000Y-82296000D02*
X177546000Y-75565000D01*
X186182000Y-86360000D02*
X186182000Y-88412000D01*
X197485000Y-86487000D02*
X197485000Y-88412000D01*
X180721000Y-86741000D02*
X183896000Y-88773000D01*
X169672000Y-86741000D02*
X180721000Y-86741000D01*
X168910000Y-87503000D02*
X169672000Y-86741000D01*
X208534000Y-84963000D02*
X208534000Y-88412000D01*
X202946000Y-79375000D02*
X208534000Y-84963000D01*
X208534000Y-73660000D02*
X208534000Y-75712000D01*
X190500000Y-106680000D02*
X194230000Y-106680000D01*
X194230000Y-106680000D02*
X195500000Y-105410000D01*
X190500000Y-109220000D02*
X195500000Y-109220000D01*
X188040000Y-110490000D02*
X188040000Y-112050424D01*
X188040000Y-112050424D02*
X191051578Y-115062002D01*
X191051578Y-115062002D02*
X205485998Y-115062002D01*
X205485998Y-115062002D02*
X207264000Y-113284000D01*
X218059000Y-110617000D02*
X215392000Y-113284000D01*
X218059000Y-98552000D02*
X218059000Y-110617000D01*
X188214000Y-106680000D02*
X189230000Y-107696000D01*
X203454000Y-114554000D02*
X207264000Y-110744000D01*
X191262000Y-114554000D02*
X203454000Y-114554000D01*
X189230000Y-112522000D02*
X191262000Y-114554000D01*
X189230000Y-107696000D02*
X189230000Y-112522000D01*
X188040000Y-106680000D02*
X188214000Y-106680000D01*
X167767000Y-94742000D02*
X168783000Y-95758000D01*
X168783000Y-95758000D02*
X183896000Y-95758000D01*
X202438000Y-113030000D02*
X203200000Y-112268000D01*
X203200000Y-112268000D02*
X207264000Y-108204000D01*
X198200000Y-113030000D02*
X202438000Y-113030000D01*
X167259000Y-96774000D02*
X183896000Y-96774000D01*
X166370000Y-95885000D02*
X167259000Y-96774000D01*
X166370000Y-88392000D02*
X166370000Y-95885000D01*
X186182000Y-73533000D02*
X186182000Y-75358000D01*
X177419000Y-87503000D02*
X180213000Y-87503000D01*
X198200000Y-109220000D02*
X201168000Y-109220000D01*
X201168000Y-109220000D02*
X207264000Y-103124000D01*
X176911000Y-88392000D02*
X172847000Y-88392000D01*
X179451000Y-90932000D02*
X176911000Y-88392000D01*
X202438000Y-105410000D02*
X205232000Y-102616000D01*
X205232000Y-102616000D02*
X207264000Y-100584000D01*
X198200000Y-105410000D02*
X202438000Y-105410000D01*
X169672000Y-88138000D02*
X170688000Y-88138000D01*
X176276000Y-93218000D02*
X182499000Y-93218000D01*
X175768000Y-93218000D02*
X176276000Y-93218000D01*
X170688000Y-88138000D02*
X175768000Y-93218000D01*
X214503000Y-105664000D02*
X215392000Y-105664000D01*
X213106000Y-104267000D02*
X214503000Y-105664000D01*
X213106000Y-101981000D02*
X213106000Y-104267000D01*
X173863000Y-94234000D02*
X182499000Y-94234000D01*
X170434000Y-90805000D02*
X173863000Y-94234000D01*
X170434000Y-89281000D02*
X170434000Y-90805000D01*
X212217000Y-107696000D02*
X212217000Y-114173000D01*
X182880000Y-109220000D02*
X184070000Y-109220000D01*
X184070000Y-109220000D02*
X185340000Y-110490000D01*
X190500000Y-111760000D02*
X194230000Y-111760000D01*
X194230000Y-111760000D02*
X195500000Y-113030000D01*
X182880000Y-106680000D02*
X185340000Y-106680000D01*
X180213000Y-82169000D02*
X180213000Y-79121000D01*
X179070000Y-83312000D02*
X180213000Y-82169000D01*
X173736000Y-83312000D02*
X179070000Y-83312000D01*
X171323000Y-85725000D02*
X173736000Y-83312000D01*
G36*
X144669185Y-78809185D02*
X144504004Y-79056395D01*
X144446000Y-79348000D01*
X144446000Y-80146769D01*
X144141054Y-80207427D01*
X143691728Y-80507657D01*
X143391498Y-80956983D01*
X143286071Y-81487000D01*
X143391498Y-82017017D01*
X143691728Y-82466343D01*
X144096795Y-82737000D01*
X143691728Y-83007657D01*
X143391498Y-83456983D01*
X143286071Y-83987000D01*
X143391498Y-84517017D01*
X143691728Y-84966343D01*
X144126225Y-85256664D01*
X143822722Y-85559637D01*
X143573284Y-86160352D01*
X143572716Y-86810795D01*
X143821106Y-87411943D01*
X144126069Y-87717440D01*
X143691728Y-88007657D01*
X143391498Y-88456983D01*
X143286071Y-88987000D01*
X143391498Y-89517017D01*
X143691728Y-89966343D01*
X144096795Y-90237000D01*
X143691728Y-90507657D01*
X143391498Y-90956983D01*
X143286071Y-91487000D01*
X143391498Y-92017017D01*
X143691728Y-92466343D01*
X144141054Y-92766573D01*
X144671071Y-92872000D01*
X145744929Y-92872000D01*
X146274946Y-92766573D01*
X146724272Y-92466343D01*
X147024502Y-92017017D01*
X147129929Y-91487000D01*
X147121750Y-91445880D01*
X150652815Y-87914815D01*
X150693995Y-87853185D01*
X150817996Y-87667605D01*
X150876000Y-87376000D01*
X150876000Y-85933662D01*
X150974317Y-85915162D01*
X151190441Y-85776090D01*
X151335431Y-85563890D01*
X151386440Y-85312000D01*
X151386440Y-83812000D01*
X151342162Y-83576683D01*
X151203090Y-83360559D01*
X151134994Y-83314031D01*
X151277327Y-83171698D01*
X151374000Y-82938309D01*
X151374000Y-82347750D01*
X151215250Y-82189000D01*
X150241000Y-82189000D01*
X150241000Y-82209000D01*
X149987000Y-82209000D01*
X149987000Y-82189000D01*
X149012750Y-82189000D01*
X148854000Y-82347750D01*
X148854000Y-82938309D01*
X148950673Y-83171698D01*
X149091910Y-83312936D01*
X149037559Y-83347910D01*
X148892569Y-83560110D01*
X148841560Y-83812000D01*
X148841560Y-85312000D01*
X148885838Y-85547317D01*
X149024910Y-85763441D01*
X149237110Y-85908431D01*
X149352000Y-85931697D01*
X149352000Y-87060370D01*
X147056570Y-89355800D01*
X147129929Y-88987000D01*
X147024502Y-88456983D01*
X146724272Y-88007657D01*
X146289775Y-87717336D01*
X146593278Y-87414363D01*
X146842716Y-86813648D01*
X146843284Y-86163205D01*
X146594894Y-85562057D01*
X146289931Y-85256560D01*
X146724272Y-84966343D01*
X147024502Y-84517017D01*
X147129929Y-83987000D01*
X147024502Y-83456983D01*
X146724272Y-83007657D01*
X146319205Y-82737000D01*
X146724272Y-82466343D01*
X147024502Y-82017017D01*
X147129929Y-81487000D01*
X147069995Y-81185691D01*
X148854000Y-81185691D01*
X148854000Y-81776250D01*
X149012750Y-81935000D01*
X149987000Y-81935000D01*
X149987000Y-80835750D01*
X150241000Y-80835750D01*
X150241000Y-81935000D01*
X151215250Y-81935000D01*
X151374000Y-81776250D01*
X151374000Y-81185691D01*
X151277327Y-80952302D01*
X151098699Y-80773673D01*
X150865310Y-80677000D01*
X150399750Y-80677000D01*
X150241000Y-80835750D01*
X149987000Y-80835750D01*
X149828250Y-80677000D01*
X149362690Y-80677000D01*
X149129301Y-80773673D01*
X148950673Y-80952302D01*
X148854000Y-81185691D01*
X147069995Y-81185691D01*
X147024502Y-80956983D01*
X146724272Y-80507657D01*
X146274946Y-80207427D01*
X145970000Y-80146769D01*
X145970000Y-79663630D01*
X148405880Y-77227750D01*
X148854000Y-77227750D01*
X148854000Y-77818309D01*
X148950673Y-78051698D01*
X149129301Y-78230327D01*
X149362690Y-78327000D01*
X149828250Y-78327000D01*
X149987000Y-78168250D01*
X149987000Y-77069000D01*
X150241000Y-77069000D01*
X150241000Y-78168250D01*
X150399750Y-78327000D01*
X150865310Y-78327000D01*
X151098699Y-78230327D01*
X151277327Y-78051698D01*
X151294702Y-78009750D01*
X152947000Y-78009750D01*
X152947000Y-78700310D01*
X153043673Y-78933699D01*
X153222302Y-79112327D01*
X153455691Y-79209000D01*
X154146250Y-79209000D01*
X154305000Y-79050250D01*
X154305000Y-77851000D01*
X154559000Y-77851000D01*
X154559000Y-79050250D01*
X154717750Y-79209000D01*
X155408309Y-79209000D01*
X155641698Y-79112327D01*
X155820327Y-78933699D01*
X155917000Y-78700310D01*
X155917000Y-78009750D01*
X155758250Y-77851000D01*
X154559000Y-77851000D01*
X154305000Y-77851000D01*
X153105750Y-77851000D01*
X152947000Y-78009750D01*
X151294702Y-78009750D01*
X151374000Y-77818309D01*
X151374000Y-77227750D01*
X151215250Y-77069000D01*
X150241000Y-77069000D01*
X149987000Y-77069000D01*
X149012750Y-77069000D01*
X148854000Y-77227750D01*
X148405880Y-77227750D01*
X148915690Y-76717940D01*
X149012750Y-76815000D01*
X149987000Y-76815000D01*
X149987000Y-76795000D01*
X150241000Y-76795000D01*
X150241000Y-76815000D01*
X151215250Y-76815000D01*
X151374000Y-76656250D01*
X151374000Y-76327000D01*
X153243240Y-76327000D01*
X153222302Y-76335673D01*
X153043673Y-76514301D01*
X152947000Y-76747690D01*
X152947000Y-77438250D01*
X153105750Y-77597000D01*
X154305000Y-77597000D01*
X154305000Y-77577000D01*
X154559000Y-77577000D01*
X154559000Y-77597000D01*
X155758250Y-77597000D01*
X155917000Y-77438250D01*
X155917000Y-76747690D01*
X155820327Y-76514301D01*
X155641698Y-76335673D01*
X155620760Y-76327000D01*
X176784000Y-76327000D01*
X176784000Y-81697383D01*
X176730931Y-81750359D01*
X176584167Y-82103807D01*
X176583833Y-82486514D01*
X176610065Y-82550000D01*
X173736000Y-82550000D01*
X173444395Y-82608004D01*
X173197184Y-82773185D01*
X171207471Y-84762898D01*
X171132486Y-84762833D01*
X170778783Y-84908980D01*
X170507931Y-85179359D01*
X170361167Y-85532807D01*
X170360833Y-85915514D01*
X170387065Y-85979000D01*
X169672000Y-85979000D01*
X169380395Y-86037004D01*
X169287329Y-86099189D01*
X169133185Y-86202184D01*
X168794471Y-86540898D01*
X168719486Y-86540833D01*
X168365783Y-86686980D01*
X168094931Y-86957359D01*
X167948167Y-87310807D01*
X167947833Y-87693514D01*
X168093980Y-88047217D01*
X168364359Y-88318069D01*
X168717807Y-88464833D01*
X168766176Y-88464875D01*
X168855980Y-88682217D01*
X169126359Y-88953069D01*
X169472160Y-89096658D01*
X169471833Y-89471514D01*
X169617980Y-89825217D01*
X169672000Y-89879332D01*
X169672000Y-90805000D01*
X169730004Y-91096605D01*
X169828493Y-91244004D01*
X169895185Y-91343815D01*
X173324184Y-94772815D01*
X173563191Y-94932514D01*
X173571395Y-94937996D01*
X173863000Y-94996000D01*
X169098630Y-94996000D01*
X168729102Y-94626472D01*
X168729167Y-94551486D01*
X168583020Y-94197783D01*
X168312641Y-93926931D01*
X167959193Y-93780167D01*
X167576486Y-93779833D01*
X167222783Y-93925980D01*
X167132000Y-94016604D01*
X167132000Y-88990617D01*
X167185069Y-88937641D01*
X167331833Y-88584193D01*
X167332167Y-88201486D01*
X167186020Y-87847783D01*
X166915641Y-87576931D01*
X166562193Y-87430167D01*
X166179486Y-87429833D01*
X165825783Y-87575980D01*
X165554931Y-87846359D01*
X165408167Y-88199807D01*
X165407833Y-88582514D01*
X165553980Y-88936217D01*
X165608000Y-88990332D01*
X165608000Y-95885000D01*
X165666004Y-96176605D01*
X165746326Y-96296815D01*
X165831185Y-96423815D01*
X166720185Y-97312815D01*
X166967395Y-97477996D01*
X167259000Y-97536000D01*
X183297383Y-97536000D01*
X183350359Y-97589069D01*
X183703807Y-97735833D01*
X184086514Y-97736167D01*
X184440217Y-97590020D01*
X184711069Y-97319641D01*
X184857833Y-96966193D01*
X184858167Y-96583486D01*
X184726842Y-96265655D01*
X184857833Y-95950193D01*
X184858167Y-95567486D01*
X184712020Y-95213783D01*
X184441641Y-94942931D01*
X184088193Y-94796167D01*
X183705486Y-94795833D01*
X183351783Y-94941980D01*
X183297668Y-94996000D01*
X183097332Y-94996000D01*
X183314069Y-94779641D01*
X183460833Y-94426193D01*
X183461167Y-94043486D01*
X183329842Y-93725655D01*
X183460833Y-93410193D01*
X183461167Y-93027486D01*
X183315020Y-92673783D01*
X183044641Y-92402931D01*
X182691193Y-92256167D01*
X182308486Y-92255833D01*
X181954783Y-92401980D01*
X181900668Y-92456000D01*
X176083630Y-92456000D01*
X172981748Y-89354118D01*
X173037514Y-89354167D01*
X173391217Y-89208020D01*
X173445332Y-89154000D01*
X176595370Y-89154000D01*
X178488898Y-91047529D01*
X178488833Y-91122514D01*
X178634980Y-91476217D01*
X178905359Y-91747069D01*
X179258807Y-91893833D01*
X179641514Y-91894167D01*
X179995217Y-91748020D01*
X180266069Y-91477641D01*
X180382289Y-91197750D01*
X184922000Y-91197750D01*
X184922000Y-91788309D01*
X185018673Y-92021698D01*
X185197301Y-92200327D01*
X185430690Y-92297000D01*
X185896250Y-92297000D01*
X186055000Y-92138250D01*
X186055000Y-91039000D01*
X186309000Y-91039000D01*
X186309000Y-92138250D01*
X186467750Y-92297000D01*
X186933310Y-92297000D01*
X187166699Y-92200327D01*
X187345327Y-92021698D01*
X187442000Y-91788309D01*
X187442000Y-91197750D01*
X196225000Y-91197750D01*
X196225000Y-91788309D01*
X196321673Y-92021698D01*
X196500301Y-92200327D01*
X196733690Y-92297000D01*
X197199250Y-92297000D01*
X197358000Y-92138250D01*
X197358000Y-91039000D01*
X197612000Y-91039000D01*
X197612000Y-92138250D01*
X197770750Y-92297000D01*
X198236310Y-92297000D01*
X198469699Y-92200327D01*
X198648327Y-92021698D01*
X198745000Y-91788309D01*
X198745000Y-91197750D01*
X207274000Y-91197750D01*
X207274000Y-91788309D01*
X207370673Y-92021698D01*
X207549301Y-92200327D01*
X207782690Y-92297000D01*
X208248250Y-92297000D01*
X208407000Y-92138250D01*
X208407000Y-91039000D01*
X208661000Y-91039000D01*
X208661000Y-92138250D01*
X208819750Y-92297000D01*
X209285310Y-92297000D01*
X209518699Y-92200327D01*
X209697327Y-92021698D01*
X209794000Y-91788309D01*
X209794000Y-91197750D01*
X209635250Y-91039000D01*
X208661000Y-91039000D01*
X208407000Y-91039000D01*
X207432750Y-91039000D01*
X207274000Y-91197750D01*
X198745000Y-91197750D01*
X198586250Y-91039000D01*
X197612000Y-91039000D01*
X197358000Y-91039000D01*
X196383750Y-91039000D01*
X196225000Y-91197750D01*
X187442000Y-91197750D01*
X187283250Y-91039000D01*
X186309000Y-91039000D01*
X186055000Y-91039000D01*
X185080750Y-91039000D01*
X184922000Y-91197750D01*
X180382289Y-91197750D01*
X180412833Y-91124193D01*
X180413167Y-90741486D01*
X180267020Y-90387783D01*
X179996641Y-90116931D01*
X179643193Y-89970167D01*
X179566731Y-89970100D01*
X177929558Y-88332928D01*
X177963217Y-88319020D01*
X178017332Y-88265000D01*
X179614383Y-88265000D01*
X179667359Y-88318069D01*
X180020807Y-88464833D01*
X180403514Y-88465167D01*
X180757217Y-88319020D01*
X181028069Y-88048641D01*
X181095786Y-87885560D01*
X182989106Y-89097284D01*
X183079980Y-89317217D01*
X183350359Y-89588069D01*
X183703807Y-89734833D01*
X184086514Y-89735167D01*
X184440217Y-89589020D01*
X184711069Y-89318641D01*
X184857833Y-88965193D01*
X184858167Y-88582486D01*
X184712020Y-88228783D01*
X184441641Y-87957931D01*
X184088193Y-87811167D01*
X183806340Y-87810921D01*
X183573651Y-87662000D01*
X184909560Y-87662000D01*
X184909560Y-89162000D01*
X184953838Y-89397317D01*
X185092910Y-89613441D01*
X185161006Y-89659969D01*
X185018673Y-89802302D01*
X184922000Y-90035691D01*
X184922000Y-90626250D01*
X185080750Y-90785000D01*
X186055000Y-90785000D01*
X186055000Y-90765000D01*
X186309000Y-90765000D01*
X186309000Y-90785000D01*
X187283250Y-90785000D01*
X187442000Y-90626250D01*
X187442000Y-90035691D01*
X187345327Y-89802302D01*
X187204090Y-89661064D01*
X187258441Y-89626090D01*
X187403431Y-89413890D01*
X187454440Y-89162000D01*
X187454440Y-87662000D01*
X196212560Y-87662000D01*
X196212560Y-89162000D01*
X196256838Y-89397317D01*
X196395910Y-89613441D01*
X196464006Y-89659969D01*
X196321673Y-89802302D01*
X196225000Y-90035691D01*
X196225000Y-90626250D01*
X196383750Y-90785000D01*
X197358000Y-90785000D01*
X197358000Y-90765000D01*
X197612000Y-90765000D01*
X197612000Y-90785000D01*
X198586250Y-90785000D01*
X198745000Y-90626250D01*
X198745000Y-90035691D01*
X198648327Y-89802302D01*
X198507090Y-89661064D01*
X198561441Y-89626090D01*
X198706431Y-89413890D01*
X198757440Y-89162000D01*
X198757440Y-87662000D01*
X198713162Y-87426683D01*
X198574090Y-87210559D01*
X198361890Y-87065569D01*
X198283072Y-87049608D01*
X198300069Y-87032641D01*
X198446833Y-86679193D01*
X198447167Y-86296486D01*
X198301020Y-85942783D01*
X198030641Y-85671931D01*
X197677193Y-85525167D01*
X197294486Y-85524833D01*
X196940783Y-85670980D01*
X196669931Y-85941359D01*
X196523167Y-86294807D01*
X196522833Y-86677514D01*
X196668980Y-87031217D01*
X196685188Y-87047453D01*
X196624683Y-87058838D01*
X196408559Y-87197910D01*
X196263569Y-87410110D01*
X196212560Y-87662000D01*
X187454440Y-87662000D01*
X187410162Y-87426683D01*
X187271090Y-87210559D01*
X187058890Y-87065569D01*
X186944000Y-87042303D01*
X186944000Y-86958617D01*
X186997069Y-86905641D01*
X187143833Y-86552193D01*
X187144167Y-86169486D01*
X186998020Y-85815783D01*
X186727641Y-85544931D01*
X186374193Y-85398167D01*
X185991486Y-85397833D01*
X185637783Y-85543980D01*
X185366931Y-85814359D01*
X185220167Y-86167807D01*
X185219833Y-86550514D01*
X185365980Y-86904217D01*
X185420000Y-86958332D01*
X185420000Y-87040338D01*
X185321683Y-87058838D01*
X185105559Y-87197910D01*
X184960569Y-87410110D01*
X184909560Y-87662000D01*
X183573651Y-87662000D01*
X181131759Y-86099189D01*
X181068809Y-86074558D01*
X181012605Y-86037004D01*
X180931699Y-86020911D01*
X180854881Y-85990854D01*
X180787300Y-85992188D01*
X180721000Y-85979000D01*
X172259169Y-85979000D01*
X172284833Y-85917193D01*
X172284900Y-85840730D01*
X174051631Y-84074000D01*
X179070000Y-84074000D01*
X179361605Y-84015996D01*
X179608815Y-83850815D01*
X180751815Y-82707815D01*
X180916996Y-82460605D01*
X180939444Y-82347750D01*
X180975000Y-82169000D01*
X180975000Y-79719617D01*
X181028069Y-79666641D01*
X181174833Y-79313193D01*
X181175167Y-78930486D01*
X181029020Y-78576783D01*
X180796394Y-78343750D01*
X184897000Y-78343750D01*
X184897000Y-78934309D01*
X184993673Y-79167698D01*
X185172301Y-79346327D01*
X185405690Y-79443000D01*
X185896250Y-79443000D01*
X186055000Y-79284250D01*
X186055000Y-78185000D01*
X186309000Y-78185000D01*
X186309000Y-79284250D01*
X186467750Y-79443000D01*
X186958310Y-79443000D01*
X187191699Y-79346327D01*
X187370327Y-79167698D01*
X187467000Y-78934309D01*
X187467000Y-78497750D01*
X196225000Y-78497750D01*
X196225000Y-79088309D01*
X196321673Y-79321698D01*
X196500301Y-79500327D01*
X196733690Y-79597000D01*
X197199250Y-79597000D01*
X197358000Y-79438250D01*
X197358000Y-78339000D01*
X197612000Y-78339000D01*
X197612000Y-79438250D01*
X197770750Y-79597000D01*
X198236310Y-79597000D01*
X198312323Y-79565514D01*
X201983833Y-79565514D01*
X202129980Y-79919217D01*
X202400359Y-80190069D01*
X202753807Y-80336833D01*
X202830270Y-80336900D01*
X207571898Y-85078529D01*
X207571833Y-85153514D01*
X207717980Y-85507217D01*
X207772000Y-85561332D01*
X207772000Y-87040338D01*
X207673683Y-87058838D01*
X207457559Y-87197910D01*
X207312569Y-87410110D01*
X207261560Y-87662000D01*
X207261560Y-89162000D01*
X207305838Y-89397317D01*
X207444910Y-89613441D01*
X207513006Y-89659969D01*
X207370673Y-89802302D01*
X207274000Y-90035691D01*
X207274000Y-90626250D01*
X207432750Y-90785000D01*
X208407000Y-90785000D01*
X208407000Y-90765000D01*
X208661000Y-90765000D01*
X208661000Y-90785000D01*
X209635250Y-90785000D01*
X209794000Y-90626250D01*
X209794000Y-90035691D01*
X209697327Y-89802302D01*
X209556090Y-89661064D01*
X209610441Y-89626090D01*
X209755431Y-89413890D01*
X209806440Y-89162000D01*
X209806440Y-87662000D01*
X209762162Y-87426683D01*
X209623090Y-87210559D01*
X209410890Y-87065569D01*
X209296000Y-87042303D01*
X209296000Y-85561617D01*
X209349069Y-85508641D01*
X209495833Y-85155193D01*
X209496167Y-84772486D01*
X209350020Y-84418783D01*
X209079641Y-84147931D01*
X208726193Y-84001167D01*
X208649731Y-84001100D01*
X203908102Y-79259471D01*
X203908167Y-79184486D01*
X203762020Y-78830783D01*
X203491641Y-78559931D01*
X203341893Y-78497750D01*
X207274000Y-78497750D01*
X207274000Y-79088309D01*
X207370673Y-79321698D01*
X207549301Y-79500327D01*
X207782690Y-79597000D01*
X208248250Y-79597000D01*
X208407000Y-79438250D01*
X208407000Y-78339000D01*
X208661000Y-78339000D01*
X208661000Y-79438250D01*
X208819750Y-79597000D01*
X209285310Y-79597000D01*
X209518699Y-79500327D01*
X209697327Y-79321698D01*
X209794000Y-79088309D01*
X209794000Y-78497750D01*
X209635250Y-78339000D01*
X208661000Y-78339000D01*
X208407000Y-78339000D01*
X207432750Y-78339000D01*
X207274000Y-78497750D01*
X203341893Y-78497750D01*
X203138193Y-78413167D01*
X202755486Y-78412833D01*
X202401783Y-78558980D01*
X202130931Y-78829359D01*
X201984167Y-79182807D01*
X201983833Y-79565514D01*
X198312323Y-79565514D01*
X198469699Y-79500327D01*
X198648327Y-79321698D01*
X198745000Y-79088309D01*
X198745000Y-78497750D01*
X198586250Y-78339000D01*
X197612000Y-78339000D01*
X197358000Y-78339000D01*
X196383750Y-78339000D01*
X196225000Y-78497750D01*
X187467000Y-78497750D01*
X187467000Y-78343750D01*
X187308250Y-78185000D01*
X186309000Y-78185000D01*
X186055000Y-78185000D01*
X185055750Y-78185000D01*
X184897000Y-78343750D01*
X180796394Y-78343750D01*
X180758641Y-78305931D01*
X180405193Y-78159167D01*
X180022486Y-78158833D01*
X179668783Y-78304980D01*
X179397931Y-78575359D01*
X179251167Y-78928807D01*
X179250833Y-79311514D01*
X179396980Y-79665217D01*
X179451000Y-79719332D01*
X179451000Y-81853370D01*
X178754370Y-82550000D01*
X178482169Y-82550000D01*
X178507833Y-82488193D01*
X178508167Y-82105486D01*
X178362020Y-81751783D01*
X178308000Y-81697668D01*
X178308000Y-76327000D01*
X184925768Y-76327000D01*
X184928838Y-76343317D01*
X185067910Y-76559441D01*
X185280110Y-76704431D01*
X185313490Y-76711191D01*
X185172301Y-76769673D01*
X184993673Y-76948302D01*
X184897000Y-77181691D01*
X184897000Y-77772250D01*
X185055750Y-77931000D01*
X186055000Y-77931000D01*
X186055000Y-77911000D01*
X186309000Y-77911000D01*
X186309000Y-77931000D01*
X187308250Y-77931000D01*
X187467000Y-77772250D01*
X187467000Y-77181691D01*
X187370327Y-76948302D01*
X187191699Y-76769673D01*
X187055713Y-76713346D01*
X187067317Y-76711162D01*
X187283441Y-76572090D01*
X187428431Y-76359890D01*
X187435091Y-76327000D01*
X196212560Y-76327000D01*
X196212560Y-76462000D01*
X196256838Y-76697317D01*
X196395910Y-76913441D01*
X196464006Y-76959969D01*
X196321673Y-77102302D01*
X196225000Y-77335691D01*
X196225000Y-77926250D01*
X196383750Y-78085000D01*
X197358000Y-78085000D01*
X197358000Y-78065000D01*
X197612000Y-78065000D01*
X197612000Y-78085000D01*
X198586250Y-78085000D01*
X198745000Y-77926250D01*
X198745000Y-77335691D01*
X198648327Y-77102302D01*
X198507090Y-76961064D01*
X198561441Y-76926090D01*
X198706431Y-76713890D01*
X198757440Y-76462000D01*
X198757440Y-76327000D01*
X207261560Y-76327000D01*
X207261560Y-76462000D01*
X207305838Y-76697317D01*
X207444910Y-76913441D01*
X207513006Y-76959969D01*
X207370673Y-77102302D01*
X207274000Y-77335691D01*
X207274000Y-77926250D01*
X207432750Y-78085000D01*
X208407000Y-78085000D01*
X208407000Y-78065000D01*
X208661000Y-78065000D01*
X208661000Y-78085000D01*
X209635250Y-78085000D01*
X209794000Y-77926250D01*
X209794000Y-77335691D01*
X209697327Y-77102302D01*
X209556090Y-76961064D01*
X209610441Y-76926090D01*
X209755431Y-76713890D01*
X209806440Y-76462000D01*
X209806440Y-76327000D01*
X213164713Y-76327000D01*
X213164336Y-76759482D01*
X213746950Y-78169515D01*
X214824811Y-79249259D01*
X216233825Y-79834333D01*
X217759482Y-79835664D01*
X219169515Y-79253050D01*
X219583000Y-78840286D01*
X219583000Y-121793000D01*
X147120580Y-121793000D01*
X147024502Y-121309983D01*
X146724272Y-120860657D01*
X146319205Y-120590000D01*
X146724272Y-120319343D01*
X147024502Y-119870017D01*
X147129929Y-119340000D01*
X147024502Y-118809983D01*
X146837424Y-118530000D01*
X167412560Y-118530000D01*
X167412560Y-120230000D01*
X167456838Y-120465317D01*
X167595910Y-120681441D01*
X167808110Y-120826431D01*
X168060000Y-120877440D01*
X169760000Y-120877440D01*
X169995317Y-120833162D01*
X170211441Y-120694090D01*
X170356431Y-120481890D01*
X170378301Y-120373893D01*
X170683076Y-120651645D01*
X171093110Y-120821476D01*
X171323000Y-120700155D01*
X171323000Y-119507000D01*
X171577000Y-119507000D01*
X171577000Y-120700155D01*
X171806890Y-120821476D01*
X172216924Y-120651645D01*
X172645183Y-120261358D01*
X172891486Y-119736892D01*
X172770819Y-119507000D01*
X171577000Y-119507000D01*
X171323000Y-119507000D01*
X171303000Y-119507000D01*
X171303000Y-119253000D01*
X171323000Y-119253000D01*
X171323000Y-118059845D01*
X171577000Y-118059845D01*
X171577000Y-119253000D01*
X172770819Y-119253000D01*
X172891486Y-119023108D01*
X172645183Y-118498642D01*
X172216924Y-118108355D01*
X172008432Y-118022000D01*
X178842560Y-118022000D01*
X178842560Y-119722000D01*
X178886838Y-119957317D01*
X179025910Y-120173441D01*
X179238110Y-120318431D01*
X179490000Y-120369440D01*
X181190000Y-120369440D01*
X181425317Y-120325162D01*
X181641441Y-120186090D01*
X181786431Y-119973890D01*
X181800086Y-119906459D01*
X181829946Y-119951147D01*
X182311715Y-120273054D01*
X182880000Y-120386093D01*
X183448285Y-120273054D01*
X183930054Y-119951147D01*
X184157702Y-119610447D01*
X184224817Y-119753358D01*
X184653076Y-120143645D01*
X185063110Y-120313476D01*
X185293000Y-120192155D01*
X185293000Y-118999000D01*
X185273000Y-118999000D01*
X185273000Y-118745000D01*
X185293000Y-118745000D01*
X185293000Y-117551845D01*
X185547000Y-117551845D01*
X185547000Y-118745000D01*
X185567000Y-118745000D01*
X185567000Y-118999000D01*
X185547000Y-118999000D01*
X185547000Y-120192155D01*
X185776890Y-120313476D01*
X186186924Y-120143645D01*
X186615183Y-119753358D01*
X186682298Y-119610447D01*
X186909946Y-119951147D01*
X187391715Y-120273054D01*
X187960000Y-120386093D01*
X188528285Y-120273054D01*
X189010054Y-119951147D01*
X189230000Y-119621974D01*
X189449946Y-119951147D01*
X189931715Y-120273054D01*
X190500000Y-120386093D01*
X191068285Y-120273054D01*
X191550054Y-119951147D01*
X191770000Y-119621974D01*
X191989946Y-119951147D01*
X192471715Y-120273054D01*
X193040000Y-120386093D01*
X193608285Y-120273054D01*
X194090054Y-119951147D01*
X194411961Y-119469378D01*
X194525000Y-118901093D01*
X194525000Y-118842907D01*
X194486579Y-118649750D01*
X205779000Y-118649750D01*
X205779000Y-119340310D01*
X205875673Y-119573699D01*
X206054302Y-119752327D01*
X206287691Y-119849000D01*
X206978250Y-119849000D01*
X207137000Y-119690250D01*
X207137000Y-118491000D01*
X207391000Y-118491000D01*
X207391000Y-119690250D01*
X207549750Y-119849000D01*
X208240309Y-119849000D01*
X208473698Y-119752327D01*
X208652327Y-119573699D01*
X208749000Y-119340310D01*
X208749000Y-118649750D01*
X208590250Y-118491000D01*
X207391000Y-118491000D01*
X207137000Y-118491000D01*
X205937750Y-118491000D01*
X205779000Y-118649750D01*
X194486579Y-118649750D01*
X194429740Y-118364000D01*
X213877907Y-118364000D01*
X213990946Y-118932285D01*
X214312853Y-119414054D01*
X214794622Y-119735961D01*
X215362907Y-119849000D01*
X215421093Y-119849000D01*
X215989378Y-119735961D01*
X216471147Y-119414054D01*
X216793054Y-118932285D01*
X216906093Y-118364000D01*
X216793054Y-117795715D01*
X216471147Y-117313946D01*
X216130447Y-117086298D01*
X216273358Y-117019183D01*
X216663645Y-116590924D01*
X216833476Y-116180890D01*
X216712155Y-115951000D01*
X215519000Y-115951000D01*
X215519000Y-115971000D01*
X215265000Y-115971000D01*
X215265000Y-115951000D01*
X214071845Y-115951000D01*
X213950524Y-116180890D01*
X214120355Y-116590924D01*
X214510642Y-117019183D01*
X214653553Y-117086298D01*
X214312853Y-117313946D01*
X213990946Y-117795715D01*
X213877907Y-118364000D01*
X194429740Y-118364000D01*
X194411961Y-118274622D01*
X194090054Y-117792853D01*
X193608285Y-117470946D01*
X193189730Y-117387690D01*
X205779000Y-117387690D01*
X205779000Y-118078250D01*
X205937750Y-118237000D01*
X207137000Y-118237000D01*
X207137000Y-115951000D01*
X207391000Y-115951000D01*
X207391000Y-118237000D01*
X208590250Y-118237000D01*
X208749000Y-118078250D01*
X208749000Y-117387690D01*
X208652327Y-117154301D01*
X208473698Y-116975673D01*
X208264122Y-116888864D01*
X208535645Y-116590924D01*
X208705476Y-116180890D01*
X208584155Y-115951000D01*
X207391000Y-115951000D01*
X207137000Y-115951000D01*
X205943845Y-115951000D01*
X205822524Y-116180890D01*
X205992355Y-116590924D01*
X206263878Y-116888864D01*
X206054302Y-116975673D01*
X205875673Y-117154301D01*
X205779000Y-117387690D01*
X193189730Y-117387690D01*
X193040000Y-117357907D01*
X192471715Y-117470946D01*
X191989946Y-117792853D01*
X191770000Y-118122026D01*
X191550054Y-117792853D01*
X191068285Y-117470946D01*
X190500000Y-117357907D01*
X189931715Y-117470946D01*
X189449946Y-117792853D01*
X189230000Y-118122026D01*
X189010054Y-117792853D01*
X188528285Y-117470946D01*
X187960000Y-117357907D01*
X187391715Y-117470946D01*
X186909946Y-117792853D01*
X186682298Y-118133553D01*
X186615183Y-117990642D01*
X186186924Y-117600355D01*
X185776890Y-117430524D01*
X185547000Y-117551845D01*
X185293000Y-117551845D01*
X185063110Y-117430524D01*
X184653076Y-117600355D01*
X184224817Y-117990642D01*
X184157702Y-118133553D01*
X183930054Y-117792853D01*
X183448285Y-117470946D01*
X182880000Y-117357907D01*
X182311715Y-117470946D01*
X181829946Y-117792853D01*
X181802150Y-117834452D01*
X181793162Y-117786683D01*
X181654090Y-117570559D01*
X181441890Y-117425569D01*
X181190000Y-117374560D01*
X179490000Y-117374560D01*
X179254683Y-117418838D01*
X179038559Y-117557910D01*
X178893569Y-117770110D01*
X178842560Y-118022000D01*
X172008432Y-118022000D01*
X171806890Y-117938524D01*
X171577000Y-118059845D01*
X171323000Y-118059845D01*
X171093110Y-117938524D01*
X170683076Y-118108355D01*
X170380063Y-118384501D01*
X170363162Y-118294683D01*
X170224090Y-118078559D01*
X170011890Y-117933569D01*
X169760000Y-117882560D01*
X168060000Y-117882560D01*
X167824683Y-117926838D01*
X167608559Y-118065910D01*
X167463569Y-118278110D01*
X167412560Y-118530000D01*
X146837424Y-118530000D01*
X146724272Y-118360657D01*
X146289775Y-118070336D01*
X146593278Y-117767363D01*
X146842716Y-117166648D01*
X146843284Y-116516205D01*
X146594894Y-115915057D01*
X146289931Y-115609560D01*
X146724272Y-115319343D01*
X147024502Y-114870017D01*
X147129929Y-114340000D01*
X147024502Y-113809983D01*
X146724272Y-113360657D01*
X146319205Y-113090000D01*
X146724272Y-112819343D01*
X147024502Y-112370017D01*
X147099161Y-111994677D01*
X173058794Y-111994677D01*
X173238820Y-112430372D01*
X173571875Y-112764009D01*
X174007255Y-112944794D01*
X174478677Y-112945206D01*
X174914372Y-112765180D01*
X175248009Y-112432125D01*
X175428794Y-111996745D01*
X175429016Y-111742418D01*
X177274448Y-109896986D01*
X177526677Y-109897206D01*
X177962372Y-109717180D01*
X178296009Y-109384125D01*
X178476794Y-108948745D01*
X178477206Y-108477323D01*
X178297180Y-108041628D01*
X177964125Y-107707991D01*
X177528745Y-107527206D01*
X177057323Y-107526794D01*
X176621628Y-107706820D01*
X176287991Y-108039875D01*
X176107206Y-108475255D01*
X176106984Y-108729582D01*
X174261552Y-110575014D01*
X174009323Y-110574794D01*
X173573628Y-110754820D01*
X173239991Y-111087875D01*
X173059206Y-111523255D01*
X173058794Y-111994677D01*
X147099161Y-111994677D01*
X147129929Y-111840000D01*
X147024502Y-111309983D01*
X146724272Y-110860657D01*
X146274946Y-110560427D01*
X145744929Y-110455000D01*
X144671071Y-110455000D01*
X144141054Y-110560427D01*
X143691728Y-110860657D01*
X143391498Y-111309983D01*
X143286071Y-111840000D01*
X143391498Y-112370017D01*
X143691728Y-112819343D01*
X144096795Y-113090000D01*
X143691728Y-113360657D01*
X143391498Y-113809983D01*
X143286071Y-114340000D01*
X143391498Y-114870017D01*
X143691728Y-115319343D01*
X144126225Y-115609664D01*
X143822722Y-115912637D01*
X143573284Y-116513352D01*
X143572716Y-117163795D01*
X143821106Y-117764943D01*
X144126069Y-118070440D01*
X143691728Y-118360657D01*
X143391498Y-118809983D01*
X143286071Y-119340000D01*
X143391498Y-119870017D01*
X143691728Y-120319343D01*
X144096795Y-120590000D01*
X143691728Y-120860657D01*
X143391498Y-121309983D01*
X143295420Y-121793000D01*
X141643111Y-121793000D01*
X141643248Y-121635813D01*
X141425243Y-121108200D01*
X141021923Y-120704176D01*
X140494691Y-120485250D01*
X139923813Y-120484752D01*
X139396200Y-120702757D01*
X139248026Y-120850673D01*
X139021923Y-120624176D01*
X138494691Y-120405250D01*
X137923813Y-120404752D01*
X137396200Y-120622757D01*
X136992176Y-121026077D01*
X136773250Y-121553309D01*
X136773041Y-121793000D01*
X136600000Y-121793000D01*
X136600000Y-116967000D01*
X138823000Y-116967000D01*
X138823000Y-117467000D01*
X138977028Y-117987349D01*
X139318460Y-118409145D01*
X139795316Y-118668173D01*
X139866815Y-118682318D01*
X140081000Y-118559656D01*
X140081000Y-116967000D01*
X140335000Y-116967000D01*
X140335000Y-118559656D01*
X140549185Y-118682318D01*
X140620684Y-118668173D01*
X141097540Y-118409145D01*
X141438972Y-117987349D01*
X141593000Y-117467000D01*
X141593000Y-116967000D01*
X140335000Y-116967000D01*
X140081000Y-116967000D01*
X138823000Y-116967000D01*
X136600000Y-116967000D01*
X136600000Y-116213000D01*
X138823000Y-116213000D01*
X138823000Y-116713000D01*
X140081000Y-116713000D01*
X140081000Y-115120344D01*
X140335000Y-115120344D01*
X140335000Y-116713000D01*
X141593000Y-116713000D01*
X141593000Y-116213000D01*
X141438972Y-115692651D01*
X141097540Y-115270855D01*
X140620684Y-115011827D01*
X140549185Y-114997682D01*
X140335000Y-115120344D01*
X140081000Y-115120344D01*
X139866815Y-114997682D01*
X139795316Y-115011827D01*
X139318460Y-115270855D01*
X138977028Y-115692651D01*
X138823000Y-116213000D01*
X136600000Y-116213000D01*
X136600000Y-112124187D01*
X136772752Y-112124187D01*
X136990757Y-112651800D01*
X137394077Y-113055824D01*
X137921309Y-113274750D01*
X138492187Y-113275248D01*
X139019800Y-113057243D01*
X139207974Y-112869397D01*
X139394077Y-113055824D01*
X139921309Y-113274750D01*
X140492187Y-113275248D01*
X141019800Y-113057243D01*
X141423824Y-112653923D01*
X141642750Y-112126691D01*
X141643248Y-111555813D01*
X141425243Y-111028200D01*
X141021923Y-110624176D01*
X140494691Y-110405250D01*
X139923813Y-110404752D01*
X139396200Y-110622757D01*
X139208026Y-110810603D01*
X139021923Y-110624176D01*
X138494691Y-110405250D01*
X137923813Y-110404752D01*
X137396200Y-110622757D01*
X136992176Y-111026077D01*
X136773250Y-111553309D01*
X136772752Y-112124187D01*
X136600000Y-112124187D01*
X136600000Y-106884187D01*
X136772752Y-106884187D01*
X136990757Y-107411800D01*
X137394077Y-107815824D01*
X137921309Y-108034750D01*
X138492187Y-108035248D01*
X139019800Y-107817243D01*
X139167974Y-107669327D01*
X139394077Y-107895824D01*
X139921309Y-108114750D01*
X140492187Y-108115248D01*
X140803548Y-107986597D01*
X140762560Y-108189000D01*
X140762560Y-109489000D01*
X140806838Y-109724317D01*
X140945910Y-109940441D01*
X141158110Y-110085431D01*
X141410000Y-110136440D01*
X142910000Y-110136440D01*
X143145317Y-110092162D01*
X143361441Y-109953090D01*
X143506431Y-109740890D01*
X143513191Y-109707510D01*
X143571673Y-109848699D01*
X143750302Y-110027327D01*
X143983691Y-110124000D01*
X144574250Y-110124000D01*
X144733000Y-109965250D01*
X144733000Y-108966000D01*
X144987000Y-108966000D01*
X144987000Y-109965250D01*
X145145750Y-110124000D01*
X145736309Y-110124000D01*
X145969698Y-110027327D01*
X146148327Y-109848699D01*
X146245000Y-109615310D01*
X146245000Y-109124750D01*
X146086250Y-108966000D01*
X144987000Y-108966000D01*
X144733000Y-108966000D01*
X144713000Y-108966000D01*
X144713000Y-108712000D01*
X144733000Y-108712000D01*
X144733000Y-108692000D01*
X144987000Y-108692000D01*
X144987000Y-108712000D01*
X146086250Y-108712000D01*
X146245000Y-108553250D01*
X146245000Y-108062690D01*
X146177204Y-107899015D01*
X146274946Y-107879573D01*
X146724272Y-107579343D01*
X147024502Y-107130017D01*
X147129929Y-106600000D01*
X147079608Y-106347022D01*
X148104630Y-105322000D01*
X167666560Y-105322000D01*
X167666560Y-107022000D01*
X167710838Y-107257317D01*
X167849910Y-107473441D01*
X168062110Y-107618431D01*
X168314000Y-107669440D01*
X170014000Y-107669440D01*
X170249317Y-107625162D01*
X170465441Y-107486090D01*
X170610431Y-107273890D01*
X170632301Y-107165893D01*
X170937076Y-107443645D01*
X171347110Y-107613476D01*
X171577000Y-107492155D01*
X171577000Y-106299000D01*
X171831000Y-106299000D01*
X171831000Y-107492155D01*
X172060890Y-107613476D01*
X172470924Y-107443645D01*
X172899183Y-107053358D01*
X173074521Y-106680000D01*
X181416887Y-106680000D01*
X181526120Y-107229151D01*
X181837189Y-107694698D01*
X182219275Y-107950000D01*
X181837189Y-108205302D01*
X181526120Y-108670849D01*
X181416887Y-109220000D01*
X181526120Y-109769151D01*
X181837189Y-110234698D01*
X182219275Y-110490000D01*
X181837189Y-110745302D01*
X181526120Y-111210849D01*
X181416887Y-111760000D01*
X181526120Y-112309151D01*
X181837189Y-112774698D01*
X182302736Y-113085767D01*
X182851887Y-113195000D01*
X182908113Y-113195000D01*
X183457264Y-113085767D01*
X183922811Y-112774698D01*
X184233880Y-112309151D01*
X184343113Y-111760000D01*
X184338438Y-111736497D01*
X184590000Y-111787440D01*
X186090000Y-111787440D01*
X186325317Y-111743162D01*
X186541441Y-111604090D01*
X186686431Y-111391890D01*
X186689081Y-111378803D01*
X186825910Y-111591441D01*
X187038110Y-111736431D01*
X187278000Y-111785010D01*
X187278000Y-112050424D01*
X187336004Y-112342029D01*
X187495014Y-112580003D01*
X187501185Y-112589239D01*
X190512762Y-115600817D01*
X190698615Y-115725000D01*
X190759973Y-115765998D01*
X191051578Y-115824002D01*
X205485998Y-115824002D01*
X205777603Y-115765998D01*
X205927427Y-115665889D01*
X205943845Y-115697000D01*
X207137000Y-115697000D01*
X207137000Y-115677000D01*
X207391000Y-115677000D01*
X207391000Y-115697000D01*
X208584155Y-115697000D01*
X208705476Y-115467110D01*
X208535645Y-115057076D01*
X208145358Y-114628817D01*
X208002447Y-114561702D01*
X208343147Y-114334054D01*
X208665054Y-113852285D01*
X208778093Y-113284000D01*
X208665054Y-112715715D01*
X208343147Y-112233946D01*
X208013974Y-112014000D01*
X208343147Y-111794054D01*
X208665054Y-111312285D01*
X208778093Y-110744000D01*
X208665054Y-110175715D01*
X208343147Y-109693946D01*
X208013974Y-109474000D01*
X208343147Y-109254054D01*
X208665054Y-108772285D01*
X208778093Y-108204000D01*
X208714942Y-107886514D01*
X211254833Y-107886514D01*
X211400980Y-108240217D01*
X211455000Y-108294332D01*
X211455000Y-113574383D01*
X211401931Y-113627359D01*
X211255167Y-113980807D01*
X211254833Y-114363514D01*
X211400980Y-114717217D01*
X211671359Y-114988069D01*
X212024807Y-115134833D01*
X212407514Y-115135167D01*
X212761217Y-114989020D01*
X213032069Y-114718641D01*
X213178833Y-114365193D01*
X213179167Y-113982486D01*
X213033020Y-113628783D01*
X212979000Y-113574668D01*
X212979000Y-108294617D01*
X213032069Y-108241641D01*
X213178833Y-107888193D01*
X213179167Y-107505486D01*
X213033020Y-107151783D01*
X212762641Y-106880931D01*
X212409193Y-106734167D01*
X212026486Y-106733833D01*
X211672783Y-106879980D01*
X211401931Y-107150359D01*
X211255167Y-107503807D01*
X211254833Y-107886514D01*
X208714942Y-107886514D01*
X208665054Y-107635715D01*
X208343147Y-107153946D01*
X208013974Y-106934000D01*
X208343147Y-106714054D01*
X208665054Y-106232285D01*
X208778093Y-105664000D01*
X208665054Y-105095715D01*
X208343147Y-104613946D01*
X208013974Y-104394000D01*
X208343147Y-104174054D01*
X208665054Y-103692285D01*
X208778093Y-103124000D01*
X208665054Y-102555715D01*
X208408340Y-102171514D01*
X212143833Y-102171514D01*
X212289980Y-102525217D01*
X212344000Y-102579332D01*
X212344000Y-104267000D01*
X212402004Y-104558605D01*
X212461736Y-104648000D01*
X212567185Y-104805815D01*
X213964184Y-106202815D01*
X213988288Y-106218921D01*
X213990946Y-106232285D01*
X214312853Y-106714054D01*
X214642026Y-106934000D01*
X214312853Y-107153946D01*
X213990946Y-107635715D01*
X213877907Y-108204000D01*
X213990946Y-108772285D01*
X214312853Y-109254054D01*
X214642026Y-109474000D01*
X214312853Y-109693946D01*
X213990946Y-110175715D01*
X213877907Y-110744000D01*
X213990946Y-111312285D01*
X214312853Y-111794054D01*
X214642026Y-112014000D01*
X214312853Y-112233946D01*
X213990946Y-112715715D01*
X213877907Y-113284000D01*
X213990946Y-113852285D01*
X214312853Y-114334054D01*
X214653553Y-114561702D01*
X214510642Y-114628817D01*
X214120355Y-115057076D01*
X213950524Y-115467110D01*
X214071845Y-115697000D01*
X215265000Y-115697000D01*
X215265000Y-115677000D01*
X215519000Y-115677000D01*
X215519000Y-115697000D01*
X216712155Y-115697000D01*
X216833476Y-115467110D01*
X216663645Y-115057076D01*
X216273358Y-114628817D01*
X216130447Y-114561702D01*
X216471147Y-114334054D01*
X216793054Y-113852285D01*
X216906093Y-113284000D01*
X216833679Y-112919951D01*
X218597816Y-111155815D01*
X218762997Y-110908604D01*
X218821000Y-110617000D01*
X218821000Y-99150617D01*
X218874069Y-99097641D01*
X219020833Y-98744193D01*
X219021167Y-98361486D01*
X218875020Y-98007783D01*
X218604641Y-97736931D01*
X218251193Y-97590167D01*
X217868486Y-97589833D01*
X217514783Y-97735980D01*
X217243931Y-98006359D01*
X217097167Y-98359807D01*
X217096833Y-98742514D01*
X217242980Y-99096217D01*
X217297000Y-99150332D01*
X217297000Y-110301369D01*
X216897511Y-110700858D01*
X216793054Y-110175715D01*
X216471147Y-109693946D01*
X216141974Y-109474000D01*
X216471147Y-109254054D01*
X216793054Y-108772285D01*
X216906093Y-108204000D01*
X216793054Y-107635715D01*
X216471147Y-107153946D01*
X216141974Y-106934000D01*
X216471147Y-106714054D01*
X216793054Y-106232285D01*
X216906093Y-105664000D01*
X216793054Y-105095715D01*
X216471147Y-104613946D01*
X216141974Y-104394000D01*
X216471147Y-104174054D01*
X216793054Y-103692285D01*
X216906093Y-103124000D01*
X216793054Y-102555715D01*
X216471147Y-102073946D01*
X216429548Y-102046150D01*
X216477317Y-102037162D01*
X216693441Y-101898090D01*
X216838431Y-101685890D01*
X216889440Y-101434000D01*
X216889440Y-99734000D01*
X216845162Y-99498683D01*
X216706090Y-99282559D01*
X216493890Y-99137569D01*
X216242000Y-99086560D01*
X214542000Y-99086560D01*
X214306683Y-99130838D01*
X214090559Y-99269910D01*
X213945569Y-99482110D01*
X213894560Y-99734000D01*
X213894560Y-101409275D01*
X213651641Y-101165931D01*
X213298193Y-101019167D01*
X212915486Y-101018833D01*
X212561783Y-101164980D01*
X212290931Y-101435359D01*
X212144167Y-101788807D01*
X212143833Y-102171514D01*
X208408340Y-102171514D01*
X208343147Y-102073946D01*
X208013974Y-101854000D01*
X208343147Y-101634054D01*
X208665054Y-101152285D01*
X208778093Y-100584000D01*
X208665054Y-100015715D01*
X208343147Y-99533946D01*
X207861378Y-99212039D01*
X207293093Y-99099000D01*
X207234907Y-99099000D01*
X206666622Y-99212039D01*
X206184853Y-99533946D01*
X205862946Y-100015715D01*
X205749907Y-100584000D01*
X205822321Y-100948049D01*
X204693188Y-102077182D01*
X204693185Y-102077184D01*
X202122370Y-104648000D01*
X199576366Y-104648000D01*
X199553162Y-104524683D01*
X199414090Y-104308559D01*
X199201890Y-104163569D01*
X198950000Y-104112560D01*
X197450000Y-104112560D01*
X197214683Y-104156838D01*
X196998559Y-104295910D01*
X196853569Y-104508110D01*
X196850919Y-104521197D01*
X196714090Y-104308559D01*
X196501890Y-104163569D01*
X196250000Y-104112560D01*
X194750000Y-104112560D01*
X194514683Y-104156838D01*
X194298559Y-104295910D01*
X194153569Y-104508110D01*
X194102560Y-104760000D01*
X194102560Y-105729810D01*
X193914370Y-105918000D01*
X191711659Y-105918000D01*
X191542811Y-105665302D01*
X191138297Y-105395014D01*
X191355134Y-105292389D01*
X191731041Y-104877423D01*
X191891904Y-104489039D01*
X191769915Y-104267000D01*
X190627000Y-104267000D01*
X190627000Y-104287000D01*
X190373000Y-104287000D01*
X190373000Y-104267000D01*
X189230085Y-104267000D01*
X189108096Y-104489039D01*
X189268959Y-104877423D01*
X189644866Y-105292389D01*
X189861703Y-105395014D01*
X189457189Y-105665302D01*
X189382162Y-105777588D01*
X189254090Y-105578559D01*
X189041890Y-105433569D01*
X188790000Y-105382560D01*
X187290000Y-105382560D01*
X187054683Y-105426838D01*
X186838559Y-105565910D01*
X186693569Y-105778110D01*
X186690919Y-105791197D01*
X186554090Y-105578559D01*
X186341890Y-105433569D01*
X186090000Y-105382560D01*
X184590000Y-105382560D01*
X184354683Y-105426838D01*
X184138559Y-105565910D01*
X183995904Y-105774693D01*
X183922811Y-105665302D01*
X183778535Y-105568899D01*
X183915317Y-105543162D01*
X184131441Y-105404090D01*
X184276431Y-105191890D01*
X184327440Y-104940000D01*
X184327440Y-103790961D01*
X189108096Y-103790961D01*
X189230085Y-104013000D01*
X190373000Y-104013000D01*
X190373000Y-102869371D01*
X190627000Y-102869371D01*
X190627000Y-104013000D01*
X191769915Y-104013000D01*
X191891904Y-103790961D01*
X191731041Y-103402577D01*
X191355134Y-102987611D01*
X190849041Y-102748086D01*
X190627000Y-102869371D01*
X190373000Y-102869371D01*
X190150959Y-102748086D01*
X189644866Y-102987611D01*
X189268959Y-103402577D01*
X189108096Y-103790961D01*
X184327440Y-103790961D01*
X184327440Y-103340000D01*
X184283162Y-103104683D01*
X184144090Y-102888559D01*
X183931890Y-102743569D01*
X183680000Y-102692560D01*
X182080000Y-102692560D01*
X181844683Y-102736838D01*
X181628559Y-102875910D01*
X181483569Y-103088110D01*
X181432560Y-103340000D01*
X181432560Y-104940000D01*
X181476838Y-105175317D01*
X181615910Y-105391441D01*
X181828110Y-105536431D01*
X181983089Y-105567815D01*
X181837189Y-105665302D01*
X181526120Y-106130849D01*
X181416887Y-106680000D01*
X173074521Y-106680000D01*
X173145486Y-106528892D01*
X173024819Y-106299000D01*
X171831000Y-106299000D01*
X171577000Y-106299000D01*
X171557000Y-106299000D01*
X171557000Y-106045000D01*
X171577000Y-106045000D01*
X171577000Y-104851845D01*
X171831000Y-104851845D01*
X171831000Y-106045000D01*
X173024819Y-106045000D01*
X173145486Y-105815108D01*
X172899183Y-105290642D01*
X172470924Y-104900355D01*
X172060890Y-104730524D01*
X171831000Y-104851845D01*
X171577000Y-104851845D01*
X171347110Y-104730524D01*
X170937076Y-104900355D01*
X170634063Y-105176501D01*
X170617162Y-105086683D01*
X170478090Y-104870559D01*
X170265890Y-104725569D01*
X170014000Y-104674560D01*
X168314000Y-104674560D01*
X168078683Y-104718838D01*
X167862559Y-104857910D01*
X167717569Y-105070110D01*
X167666560Y-105322000D01*
X148104630Y-105322000D01*
X150906815Y-102519816D01*
X151071996Y-102272605D01*
X151092104Y-102171514D01*
X151130000Y-101981000D01*
X151130000Y-96501630D01*
X151221487Y-96410143D01*
X151176560Y-96632000D01*
X151176560Y-97932000D01*
X151220838Y-98167317D01*
X151359910Y-98383441D01*
X151572110Y-98528431D01*
X151812000Y-98577010D01*
X151812000Y-99332634D01*
X151688683Y-99355838D01*
X151472559Y-99494910D01*
X151327569Y-99707110D01*
X151276560Y-99959000D01*
X151276560Y-101209000D01*
X151320838Y-101444317D01*
X151459910Y-101660441D01*
X151672110Y-101805431D01*
X151924000Y-101856440D01*
X153424000Y-101856440D01*
X153659317Y-101812162D01*
X153875441Y-101673090D01*
X153921969Y-101604994D01*
X154064302Y-101747327D01*
X154297691Y-101844000D01*
X154888250Y-101844000D01*
X155047000Y-101685250D01*
X155047000Y-100711000D01*
X155301000Y-100711000D01*
X155301000Y-101685250D01*
X155459750Y-101844000D01*
X156050309Y-101844000D01*
X156283698Y-101747327D01*
X156462327Y-101568699D01*
X156559000Y-101335310D01*
X156559000Y-100869750D01*
X156400250Y-100711000D01*
X155301000Y-100711000D01*
X155047000Y-100711000D01*
X155027000Y-100711000D01*
X155027000Y-100457000D01*
X155047000Y-100457000D01*
X155047000Y-99482750D01*
X155301000Y-99482750D01*
X155301000Y-100457000D01*
X156400250Y-100457000D01*
X156559000Y-100298250D01*
X156559000Y-99832690D01*
X156462327Y-99599301D01*
X156283698Y-99420673D01*
X156050309Y-99324000D01*
X155459750Y-99324000D01*
X155301000Y-99482750D01*
X155047000Y-99482750D01*
X154888250Y-99324000D01*
X154297691Y-99324000D01*
X154064302Y-99420673D01*
X153923064Y-99561910D01*
X153888090Y-99507559D01*
X153675890Y-99362569D01*
X153424000Y-99311560D01*
X153336000Y-99311560D01*
X153336000Y-98577182D01*
X153559317Y-98535162D01*
X153775441Y-98396090D01*
X153920431Y-98183890D01*
X153923081Y-98170803D01*
X154059910Y-98383441D01*
X154272110Y-98528431D01*
X154524000Y-98579440D01*
X156024000Y-98579440D01*
X156259317Y-98535162D01*
X156475441Y-98396090D01*
X156620431Y-98183890D01*
X156648759Y-98044000D01*
X157652338Y-98044000D01*
X157670838Y-98142317D01*
X157809910Y-98358441D01*
X158022110Y-98503431D01*
X158274000Y-98554440D01*
X159774000Y-98554440D01*
X160009317Y-98510162D01*
X160225441Y-98371090D01*
X160271969Y-98302994D01*
X160414302Y-98445327D01*
X160647691Y-98542000D01*
X161238250Y-98542000D01*
X161397000Y-98383250D01*
X161397000Y-97409000D01*
X161651000Y-97409000D01*
X161651000Y-98383250D01*
X161809750Y-98542000D01*
X162400309Y-98542000D01*
X162633698Y-98445327D01*
X162812327Y-98266699D01*
X162909000Y-98033310D01*
X162909000Y-97567750D01*
X162750250Y-97409000D01*
X161651000Y-97409000D01*
X161397000Y-97409000D01*
X161377000Y-97409000D01*
X161377000Y-97155000D01*
X161397000Y-97155000D01*
X161397000Y-96180750D01*
X161651000Y-96180750D01*
X161651000Y-97155000D01*
X162750250Y-97155000D01*
X162909000Y-96996250D01*
X162909000Y-96530690D01*
X162812327Y-96297301D01*
X162633698Y-96118673D01*
X162400309Y-96022000D01*
X161809750Y-96022000D01*
X161651000Y-96180750D01*
X161397000Y-96180750D01*
X161238250Y-96022000D01*
X160647691Y-96022000D01*
X160414302Y-96118673D01*
X160273064Y-96259910D01*
X160238090Y-96205559D01*
X160025890Y-96060569D01*
X159774000Y-96009560D01*
X158274000Y-96009560D01*
X158038683Y-96053838D01*
X157822559Y-96192910D01*
X157677569Y-96405110D01*
X157654303Y-96520000D01*
X156650366Y-96520000D01*
X156627162Y-96396683D01*
X156488090Y-96180559D01*
X156275890Y-96035569D01*
X156036000Y-95986990D01*
X156036000Y-95275182D01*
X156259317Y-95233162D01*
X156475441Y-95094090D01*
X156620431Y-94881890D01*
X156671440Y-94630000D01*
X156671440Y-93330000D01*
X156627162Y-93094683D01*
X156488090Y-92878559D01*
X156427437Y-92837117D01*
X156517069Y-92747641D01*
X156663833Y-92394193D01*
X156664167Y-92011486D01*
X156518020Y-91657783D01*
X156374308Y-91513819D01*
X156375441Y-91513090D01*
X156520431Y-91300890D01*
X156571440Y-91049000D01*
X156571440Y-89799000D01*
X156527162Y-89563683D01*
X156388090Y-89347559D01*
X156203914Y-89221717D01*
X156833529Y-88592102D01*
X156908514Y-88592167D01*
X157262217Y-88446020D01*
X157533069Y-88175641D01*
X157679833Y-87822193D01*
X157680167Y-87439486D01*
X157534020Y-87085783D01*
X157263641Y-86814931D01*
X156910193Y-86668167D01*
X156571440Y-86667871D01*
X156571440Y-86243000D01*
X156547033Y-86113286D01*
X156771069Y-85889641D01*
X156917833Y-85536193D01*
X156918167Y-85153486D01*
X156772020Y-84799783D01*
X156501641Y-84528931D01*
X156148193Y-84382167D01*
X155765486Y-84381833D01*
X155411783Y-84527980D01*
X155140931Y-84798359D01*
X154994167Y-85151807D01*
X154994100Y-85228270D01*
X154635185Y-85587185D01*
X154629589Y-85595560D01*
X154424000Y-85595560D01*
X154188683Y-85639838D01*
X153972559Y-85778910D01*
X153924866Y-85848711D01*
X153888090Y-85791559D01*
X153675890Y-85646569D01*
X153424000Y-85595560D01*
X151924000Y-85595560D01*
X151688683Y-85639838D01*
X151472559Y-85778910D01*
X151327569Y-85991110D01*
X151276560Y-86243000D01*
X151276560Y-87493000D01*
X151320838Y-87728317D01*
X151459910Y-87944441D01*
X151672110Y-88089431D01*
X151924000Y-88140440D01*
X152868810Y-88140440D01*
X153162000Y-88433630D01*
X153162000Y-89151560D01*
X151924000Y-89151560D01*
X151688683Y-89195838D01*
X151472559Y-89334910D01*
X151327569Y-89547110D01*
X151276560Y-89799000D01*
X151276560Y-90743809D01*
X147913370Y-94107000D01*
X143764000Y-94107000D01*
X143472395Y-94165004D01*
X143225184Y-94330185D01*
X141955185Y-95600185D01*
X141790004Y-95847395D01*
X141732000Y-96139000D01*
X141732000Y-97347369D01*
X139669185Y-99410185D01*
X139504004Y-99657395D01*
X139448408Y-99936895D01*
X139228657Y-100083728D01*
X138928427Y-100533054D01*
X138823000Y-101063071D01*
X138823000Y-102136929D01*
X138928427Y-102666946D01*
X139228657Y-103116272D01*
X139677983Y-103416502D01*
X140208000Y-103521929D01*
X140738017Y-103416502D01*
X140863216Y-103332846D01*
X141398000Y-103867630D01*
X141398000Y-105840909D01*
X141021923Y-105464176D01*
X140494691Y-105245250D01*
X139923813Y-105244752D01*
X139396200Y-105462757D01*
X139248026Y-105610673D01*
X139021923Y-105384176D01*
X138494691Y-105165250D01*
X137923813Y-105164752D01*
X137396200Y-105382757D01*
X136992176Y-105786077D01*
X136773250Y-106313309D01*
X136772752Y-106884187D01*
X136600000Y-106884187D01*
X136600000Y-96884187D01*
X136772752Y-96884187D01*
X136990757Y-97411800D01*
X137394077Y-97815824D01*
X137921309Y-98034750D01*
X138492187Y-98035248D01*
X139019800Y-97817243D01*
X139207974Y-97629397D01*
X139394077Y-97815824D01*
X139921309Y-98034750D01*
X140492187Y-98035248D01*
X141019800Y-97817243D01*
X141423824Y-97413923D01*
X141642750Y-96886691D01*
X141643248Y-96315813D01*
X141425243Y-95788200D01*
X141021923Y-95384176D01*
X140494691Y-95165250D01*
X139923813Y-95164752D01*
X139396200Y-95382757D01*
X139208026Y-95570603D01*
X139021923Y-95384176D01*
X138494691Y-95165250D01*
X137923813Y-95164752D01*
X137396200Y-95382757D01*
X136992176Y-95786077D01*
X136773250Y-96313309D01*
X136772752Y-96884187D01*
X136600000Y-96884187D01*
X136600000Y-91771187D01*
X136772752Y-91771187D01*
X136990757Y-92298800D01*
X137394077Y-92702824D01*
X137921309Y-92921750D01*
X138492187Y-92922248D01*
X139019800Y-92704243D01*
X139167974Y-92556327D01*
X139394077Y-92782824D01*
X139921309Y-93001750D01*
X140492187Y-93002248D01*
X141019800Y-92784243D01*
X141423824Y-92380923D01*
X141642750Y-91853691D01*
X141643248Y-91282813D01*
X141425243Y-90755200D01*
X141021923Y-90351176D01*
X140494691Y-90132250D01*
X139923813Y-90131752D01*
X139396200Y-90349757D01*
X139248026Y-90497673D01*
X139021923Y-90271176D01*
X138494691Y-90052250D01*
X137923813Y-90051752D01*
X137396200Y-90269757D01*
X136992176Y-90673077D01*
X136773250Y-91200309D01*
X136772752Y-91771187D01*
X136600000Y-91771187D01*
X136600000Y-85950071D01*
X138823000Y-85950071D01*
X138823000Y-87023929D01*
X138928427Y-87553946D01*
X139228657Y-88003272D01*
X139677983Y-88303502D01*
X140208000Y-88408929D01*
X140738017Y-88303502D01*
X141187343Y-88003272D01*
X141487573Y-87553946D01*
X141593000Y-87023929D01*
X141593000Y-85950071D01*
X141487573Y-85420054D01*
X141187343Y-84970728D01*
X140738017Y-84670498D01*
X140208000Y-84565071D01*
X139677983Y-84670498D01*
X139228657Y-84970728D01*
X138928427Y-85420054D01*
X138823000Y-85950071D01*
X136600000Y-85950071D01*
X136600000Y-81771187D01*
X136772752Y-81771187D01*
X136990757Y-82298800D01*
X137394077Y-82702824D01*
X137921309Y-82921750D01*
X138492187Y-82922248D01*
X139019800Y-82704243D01*
X139207974Y-82516397D01*
X139394077Y-82702824D01*
X139921309Y-82921750D01*
X140492187Y-82922248D01*
X141019800Y-82704243D01*
X141423824Y-82300923D01*
X141642750Y-81773691D01*
X141643248Y-81202813D01*
X141425243Y-80675200D01*
X141021923Y-80271176D01*
X140494691Y-80052250D01*
X139923813Y-80051752D01*
X139396200Y-80269757D01*
X139208026Y-80457603D01*
X139021923Y-80271176D01*
X138494691Y-80052250D01*
X137923813Y-80051752D01*
X137396200Y-80269757D01*
X136992176Y-80673077D01*
X136773250Y-81200309D01*
X136772752Y-81771187D01*
X136600000Y-81771187D01*
X136600000Y-77813869D01*
X136746950Y-78169515D01*
X137824811Y-79249259D01*
X139233825Y-79834333D01*
X140759482Y-79835664D01*
X142169515Y-79253050D01*
X143249259Y-78175189D01*
X143834333Y-76766175D01*
X143834716Y-76327000D01*
X147151369Y-76327000D01*
X144669185Y-78809185D01*
X144669185Y-78809185D01*
G37*
X144669185Y-78809185D02*
X144504004Y-79056395D01*
X144446000Y-79348000D01*
X144446000Y-80146769D01*
X144141054Y-80207427D01*
X143691728Y-80507657D01*
X143391498Y-80956983D01*
X143286071Y-81487000D01*
X143391498Y-82017017D01*
X143691728Y-82466343D01*
X144096795Y-82737000D01*
X143691728Y-83007657D01*
X143391498Y-83456983D01*
X143286071Y-83987000D01*
X143391498Y-84517017D01*
X143691728Y-84966343D01*
X144126225Y-85256664D01*
X143822722Y-85559637D01*
X143573284Y-86160352D01*
X143572716Y-86810795D01*
X143821106Y-87411943D01*
X144126069Y-87717440D01*
X143691728Y-88007657D01*
X143391498Y-88456983D01*
X143286071Y-88987000D01*
X143391498Y-89517017D01*
X143691728Y-89966343D01*
X144096795Y-90237000D01*
X143691728Y-90507657D01*
X143391498Y-90956983D01*
X143286071Y-91487000D01*
X143391498Y-92017017D01*
X143691728Y-92466343D01*
X144141054Y-92766573D01*
X144671071Y-92872000D01*
X145744929Y-92872000D01*
X146274946Y-92766573D01*
X146724272Y-92466343D01*
X147024502Y-92017017D01*
X147129929Y-91487000D01*
X147121750Y-91445880D01*
X150652815Y-87914815D01*
X150693995Y-87853185D01*
X150817996Y-87667605D01*
X150876000Y-87376000D01*
X150876000Y-85933662D01*
X150974317Y-85915162D01*
X151190441Y-85776090D01*
X151335431Y-85563890D01*
X151386440Y-85312000D01*
X151386440Y-83812000D01*
X151342162Y-83576683D01*
X151203090Y-83360559D01*
X151134994Y-83314031D01*
X151277327Y-83171698D01*
X151374000Y-82938309D01*
X151374000Y-82347750D01*
X151215250Y-82189000D01*
X150241000Y-82189000D01*
X150241000Y-82209000D01*
X149987000Y-82209000D01*
X149987000Y-82189000D01*
X149012750Y-82189000D01*
X148854000Y-82347750D01*
X148854000Y-82938309D01*
X148950673Y-83171698D01*
X149091910Y-83312936D01*
X149037559Y-83347910D01*
X148892569Y-83560110D01*
X148841560Y-83812000D01*
X148841560Y-85312000D01*
X148885838Y-85547317D01*
X149024910Y-85763441D01*
X149237110Y-85908431D01*
X149352000Y-85931697D01*
X149352000Y-87060370D01*
X147056570Y-89355800D01*
X147129929Y-88987000D01*
X147024502Y-88456983D01*
X146724272Y-88007657D01*
X146289775Y-87717336D01*
X146593278Y-87414363D01*
X146842716Y-86813648D01*
X146843284Y-86163205D01*
X146594894Y-85562057D01*
X146289931Y-85256560D01*
X146724272Y-84966343D01*
X147024502Y-84517017D01*
X147129929Y-83987000D01*
X147024502Y-83456983D01*
X146724272Y-83007657D01*
X146319205Y-82737000D01*
X146724272Y-82466343D01*
X147024502Y-82017017D01*
X147129929Y-81487000D01*
X147069995Y-81185691D01*
X148854000Y-81185691D01*
X148854000Y-81776250D01*
X149012750Y-81935000D01*
X149987000Y-81935000D01*
X149987000Y-80835750D01*
X150241000Y-80835750D01*
X150241000Y-81935000D01*
X151215250Y-81935000D01*
X151374000Y-81776250D01*
X151374000Y-81185691D01*
X151277327Y-80952302D01*
X151098699Y-80773673D01*
X150865310Y-80677000D01*
X150399750Y-80677000D01*
X150241000Y-80835750D01*
X149987000Y-80835750D01*
X149828250Y-80677000D01*
X149362690Y-80677000D01*
X149129301Y-80773673D01*
X148950673Y-80952302D01*
X148854000Y-81185691D01*
X147069995Y-81185691D01*
X147024502Y-80956983D01*
X146724272Y-80507657D01*
X146274946Y-80207427D01*
X145970000Y-80146769D01*
X145970000Y-79663630D01*
X148405880Y-77227750D01*
X148854000Y-77227750D01*
X148854000Y-77818309D01*
X148950673Y-78051698D01*
X149129301Y-78230327D01*
X149362690Y-78327000D01*
X149828250Y-78327000D01*
X149987000Y-78168250D01*
X149987000Y-77069000D01*
X150241000Y-77069000D01*
X150241000Y-78168250D01*
X150399750Y-78327000D01*
X150865310Y-78327000D01*
X151098699Y-78230327D01*
X151277327Y-78051698D01*
X151294702Y-78009750D01*
X152947000Y-78009750D01*
X152947000Y-78700310D01*
X153043673Y-78933699D01*
X153222302Y-79112327D01*
X153455691Y-79209000D01*
X154146250Y-79209000D01*
X154305000Y-79050250D01*
X154305000Y-77851000D01*
X154559000Y-77851000D01*
X154559000Y-79050250D01*
X154717750Y-79209000D01*
X155408309Y-79209000D01*
X155641698Y-79112327D01*
X155820327Y-78933699D01*
X155917000Y-78700310D01*
X155917000Y-78009750D01*
X155758250Y-77851000D01*
X154559000Y-77851000D01*
X154305000Y-77851000D01*
X153105750Y-77851000D01*
X152947000Y-78009750D01*
X151294702Y-78009750D01*
X151374000Y-77818309D01*
X151374000Y-77227750D01*
X151215250Y-77069000D01*
X150241000Y-77069000D01*
X149987000Y-77069000D01*
X149012750Y-77069000D01*
X148854000Y-77227750D01*
X148405880Y-77227750D01*
X148915690Y-76717940D01*
X149012750Y-76815000D01*
X149987000Y-76815000D01*
X149987000Y-76795000D01*
X150241000Y-76795000D01*
X150241000Y-76815000D01*
X151215250Y-76815000D01*
X151374000Y-76656250D01*
X151374000Y-76327000D01*
X153243240Y-76327000D01*
X153222302Y-76335673D01*
X153043673Y-76514301D01*
X152947000Y-76747690D01*
X152947000Y-77438250D01*
X153105750Y-77597000D01*
X154305000Y-77597000D01*
X154305000Y-77577000D01*
X154559000Y-77577000D01*
X154559000Y-77597000D01*
X155758250Y-77597000D01*
X155917000Y-77438250D01*
X155917000Y-76747690D01*
X155820327Y-76514301D01*
X155641698Y-76335673D01*
X155620760Y-76327000D01*
X176784000Y-76327000D01*
X176784000Y-81697383D01*
X176730931Y-81750359D01*
X176584167Y-82103807D01*
X176583833Y-82486514D01*
X176610065Y-82550000D01*
X173736000Y-82550000D01*
X173444395Y-82608004D01*
X173197184Y-82773185D01*
X171207471Y-84762898D01*
X171132486Y-84762833D01*
X170778783Y-84908980D01*
X170507931Y-85179359D01*
X170361167Y-85532807D01*
X170360833Y-85915514D01*
X170387065Y-85979000D01*
X169672000Y-85979000D01*
X169380395Y-86037004D01*
X169287329Y-86099189D01*
X169133185Y-86202184D01*
X168794471Y-86540898D01*
X168719486Y-86540833D01*
X168365783Y-86686980D01*
X168094931Y-86957359D01*
X167948167Y-87310807D01*
X167947833Y-87693514D01*
X168093980Y-88047217D01*
X168364359Y-88318069D01*
X168717807Y-88464833D01*
X168766176Y-88464875D01*
X168855980Y-88682217D01*
X169126359Y-88953069D01*
X169472160Y-89096658D01*
X169471833Y-89471514D01*
X169617980Y-89825217D01*
X169672000Y-89879332D01*
X169672000Y-90805000D01*
X169730004Y-91096605D01*
X169828493Y-91244004D01*
X169895185Y-91343815D01*
X173324184Y-94772815D01*
X173563191Y-94932514D01*
X173571395Y-94937996D01*
X173863000Y-94996000D01*
X169098630Y-94996000D01*
X168729102Y-94626472D01*
X168729167Y-94551486D01*
X168583020Y-94197783D01*
X168312641Y-93926931D01*
X167959193Y-93780167D01*
X167576486Y-93779833D01*
X167222783Y-93925980D01*
X167132000Y-94016604D01*
X167132000Y-88990617D01*
X167185069Y-88937641D01*
X167331833Y-88584193D01*
X167332167Y-88201486D01*
X167186020Y-87847783D01*
X166915641Y-87576931D01*
X166562193Y-87430167D01*
X166179486Y-87429833D01*
X165825783Y-87575980D01*
X165554931Y-87846359D01*
X165408167Y-88199807D01*
X165407833Y-88582514D01*
X165553980Y-88936217D01*
X165608000Y-88990332D01*
X165608000Y-95885000D01*
X165666004Y-96176605D01*
X165746326Y-96296815D01*
X165831185Y-96423815D01*
X166720185Y-97312815D01*
X166967395Y-97477996D01*
X167259000Y-97536000D01*
X183297383Y-97536000D01*
X183350359Y-97589069D01*
X183703807Y-97735833D01*
X184086514Y-97736167D01*
X184440217Y-97590020D01*
X184711069Y-97319641D01*
X184857833Y-96966193D01*
X184858167Y-96583486D01*
X184726842Y-96265655D01*
X184857833Y-95950193D01*
X184858167Y-95567486D01*
X184712020Y-95213783D01*
X184441641Y-94942931D01*
X184088193Y-94796167D01*
X183705486Y-94795833D01*
X183351783Y-94941980D01*
X183297668Y-94996000D01*
X183097332Y-94996000D01*
X183314069Y-94779641D01*
X183460833Y-94426193D01*
X183461167Y-94043486D01*
X183329842Y-93725655D01*
X183460833Y-93410193D01*
X183461167Y-93027486D01*
X183315020Y-92673783D01*
X183044641Y-92402931D01*
X182691193Y-92256167D01*
X182308486Y-92255833D01*
X181954783Y-92401980D01*
X181900668Y-92456000D01*
X176083630Y-92456000D01*
X172981748Y-89354118D01*
X173037514Y-89354167D01*
X173391217Y-89208020D01*
X173445332Y-89154000D01*
X176595370Y-89154000D01*
X178488898Y-91047529D01*
X178488833Y-91122514D01*
X178634980Y-91476217D01*
X178905359Y-91747069D01*
X179258807Y-91893833D01*
X179641514Y-91894167D01*
X179995217Y-91748020D01*
X180266069Y-91477641D01*
X180382289Y-91197750D01*
X184922000Y-91197750D01*
X184922000Y-91788309D01*
X185018673Y-92021698D01*
X185197301Y-92200327D01*
X185430690Y-92297000D01*
X185896250Y-92297000D01*
X186055000Y-92138250D01*
X186055000Y-91039000D01*
X186309000Y-91039000D01*
X186309000Y-92138250D01*
X186467750Y-92297000D01*
X186933310Y-92297000D01*
X187166699Y-92200327D01*
X187345327Y-92021698D01*
X187442000Y-91788309D01*
X187442000Y-91197750D01*
X196225000Y-91197750D01*
X196225000Y-91788309D01*
X196321673Y-92021698D01*
X196500301Y-92200327D01*
X196733690Y-92297000D01*
X197199250Y-92297000D01*
X197358000Y-92138250D01*
X197358000Y-91039000D01*
X197612000Y-91039000D01*
X197612000Y-92138250D01*
X197770750Y-92297000D01*
X198236310Y-92297000D01*
X198469699Y-92200327D01*
X198648327Y-92021698D01*
X198745000Y-91788309D01*
X198745000Y-91197750D01*
X207274000Y-91197750D01*
X207274000Y-91788309D01*
X207370673Y-92021698D01*
X207549301Y-92200327D01*
X207782690Y-92297000D01*
X208248250Y-92297000D01*
X208407000Y-92138250D01*
X208407000Y-91039000D01*
X208661000Y-91039000D01*
X208661000Y-92138250D01*
X208819750Y-92297000D01*
X209285310Y-92297000D01*
X209518699Y-92200327D01*
X209697327Y-92021698D01*
X209794000Y-91788309D01*
X209794000Y-91197750D01*
X209635250Y-91039000D01*
X208661000Y-91039000D01*
X208407000Y-91039000D01*
X207432750Y-91039000D01*
X207274000Y-91197750D01*
X198745000Y-91197750D01*
X198586250Y-91039000D01*
X197612000Y-91039000D01*
X197358000Y-91039000D01*
X196383750Y-91039000D01*
X196225000Y-91197750D01*
X187442000Y-91197750D01*
X187283250Y-91039000D01*
X186309000Y-91039000D01*
X186055000Y-91039000D01*
X185080750Y-91039000D01*
X184922000Y-91197750D01*
X180382289Y-91197750D01*
X180412833Y-91124193D01*
X180413167Y-90741486D01*
X180267020Y-90387783D01*
X179996641Y-90116931D01*
X179643193Y-89970167D01*
X179566731Y-89970100D01*
X177929558Y-88332928D01*
X177963217Y-88319020D01*
X178017332Y-88265000D01*
X179614383Y-88265000D01*
X179667359Y-88318069D01*
X180020807Y-88464833D01*
X180403514Y-88465167D01*
X180757217Y-88319020D01*
X181028069Y-88048641D01*
X181095786Y-87885560D01*
X182989106Y-89097284D01*
X183079980Y-89317217D01*
X183350359Y-89588069D01*
X183703807Y-89734833D01*
X184086514Y-89735167D01*
X184440217Y-89589020D01*
X184711069Y-89318641D01*
X184857833Y-88965193D01*
X184858167Y-88582486D01*
X184712020Y-88228783D01*
X184441641Y-87957931D01*
X184088193Y-87811167D01*
X183806340Y-87810921D01*
X183573651Y-87662000D01*
X184909560Y-87662000D01*
X184909560Y-89162000D01*
X184953838Y-89397317D01*
X185092910Y-89613441D01*
X185161006Y-89659969D01*
X185018673Y-89802302D01*
X184922000Y-90035691D01*
X184922000Y-90626250D01*
X185080750Y-90785000D01*
X186055000Y-90785000D01*
X186055000Y-90765000D01*
X186309000Y-90765000D01*
X186309000Y-90785000D01*
X187283250Y-90785000D01*
X187442000Y-90626250D01*
X187442000Y-90035691D01*
X187345327Y-89802302D01*
X187204090Y-89661064D01*
X187258441Y-89626090D01*
X187403431Y-89413890D01*
X187454440Y-89162000D01*
X187454440Y-87662000D01*
X196212560Y-87662000D01*
X196212560Y-89162000D01*
X196256838Y-89397317D01*
X196395910Y-89613441D01*
X196464006Y-89659969D01*
X196321673Y-89802302D01*
X196225000Y-90035691D01*
X196225000Y-90626250D01*
X196383750Y-90785000D01*
X197358000Y-90785000D01*
X197358000Y-90765000D01*
X197612000Y-90765000D01*
X197612000Y-90785000D01*
X198586250Y-90785000D01*
X198745000Y-90626250D01*
X198745000Y-90035691D01*
X198648327Y-89802302D01*
X198507090Y-89661064D01*
X198561441Y-89626090D01*
X198706431Y-89413890D01*
X198757440Y-89162000D01*
X198757440Y-87662000D01*
X198713162Y-87426683D01*
X198574090Y-87210559D01*
X198361890Y-87065569D01*
X198283072Y-87049608D01*
X198300069Y-87032641D01*
X198446833Y-86679193D01*
X198447167Y-86296486D01*
X198301020Y-85942783D01*
X198030641Y-85671931D01*
X197677193Y-85525167D01*
X197294486Y-85524833D01*
X196940783Y-85670980D01*
X196669931Y-85941359D01*
X196523167Y-86294807D01*
X196522833Y-86677514D01*
X196668980Y-87031217D01*
X196685188Y-87047453D01*
X196624683Y-87058838D01*
X196408559Y-87197910D01*
X196263569Y-87410110D01*
X196212560Y-87662000D01*
X187454440Y-87662000D01*
X187410162Y-87426683D01*
X187271090Y-87210559D01*
X187058890Y-87065569D01*
X186944000Y-87042303D01*
X186944000Y-86958617D01*
X186997069Y-86905641D01*
X187143833Y-86552193D01*
X187144167Y-86169486D01*
X186998020Y-85815783D01*
X186727641Y-85544931D01*
X186374193Y-85398167D01*
X185991486Y-85397833D01*
X185637783Y-85543980D01*
X185366931Y-85814359D01*
X185220167Y-86167807D01*
X185219833Y-86550514D01*
X185365980Y-86904217D01*
X185420000Y-86958332D01*
X185420000Y-87040338D01*
X185321683Y-87058838D01*
X185105559Y-87197910D01*
X184960569Y-87410110D01*
X184909560Y-87662000D01*
X183573651Y-87662000D01*
X181131759Y-86099189D01*
X181068809Y-86074558D01*
X181012605Y-86037004D01*
X180931699Y-86020911D01*
X180854881Y-85990854D01*
X180787300Y-85992188D01*
X180721000Y-85979000D01*
X172259169Y-85979000D01*
X172284833Y-85917193D01*
X172284900Y-85840730D01*
X174051631Y-84074000D01*
X179070000Y-84074000D01*
X179361605Y-84015996D01*
X179608815Y-83850815D01*
X180751815Y-82707815D01*
X180916996Y-82460605D01*
X180939444Y-82347750D01*
X180975000Y-82169000D01*
X180975000Y-79719617D01*
X181028069Y-79666641D01*
X181174833Y-79313193D01*
X181175167Y-78930486D01*
X181029020Y-78576783D01*
X180796394Y-78343750D01*
X184897000Y-78343750D01*
X184897000Y-78934309D01*
X184993673Y-79167698D01*
X185172301Y-79346327D01*
X185405690Y-79443000D01*
X185896250Y-79443000D01*
X186055000Y-79284250D01*
X186055000Y-78185000D01*
X186309000Y-78185000D01*
X186309000Y-79284250D01*
X186467750Y-79443000D01*
X186958310Y-79443000D01*
X187191699Y-79346327D01*
X187370327Y-79167698D01*
X187467000Y-78934309D01*
X187467000Y-78497750D01*
X196225000Y-78497750D01*
X196225000Y-79088309D01*
X196321673Y-79321698D01*
X196500301Y-79500327D01*
X196733690Y-79597000D01*
X197199250Y-79597000D01*
X197358000Y-79438250D01*
X197358000Y-78339000D01*
X197612000Y-78339000D01*
X197612000Y-79438250D01*
X197770750Y-79597000D01*
X198236310Y-79597000D01*
X198312323Y-79565514D01*
X201983833Y-79565514D01*
X202129980Y-79919217D01*
X202400359Y-80190069D01*
X202753807Y-80336833D01*
X202830270Y-80336900D01*
X207571898Y-85078529D01*
X207571833Y-85153514D01*
X207717980Y-85507217D01*
X207772000Y-85561332D01*
X207772000Y-87040338D01*
X207673683Y-87058838D01*
X207457559Y-87197910D01*
X207312569Y-87410110D01*
X207261560Y-87662000D01*
X207261560Y-89162000D01*
X207305838Y-89397317D01*
X207444910Y-89613441D01*
X207513006Y-89659969D01*
X207370673Y-89802302D01*
X207274000Y-90035691D01*
X207274000Y-90626250D01*
X207432750Y-90785000D01*
X208407000Y-90785000D01*
X208407000Y-90765000D01*
X208661000Y-90765000D01*
X208661000Y-90785000D01*
X209635250Y-90785000D01*
X209794000Y-90626250D01*
X209794000Y-90035691D01*
X209697327Y-89802302D01*
X209556090Y-89661064D01*
X209610441Y-89626090D01*
X209755431Y-89413890D01*
X209806440Y-89162000D01*
X209806440Y-87662000D01*
X209762162Y-87426683D01*
X209623090Y-87210559D01*
X209410890Y-87065569D01*
X209296000Y-87042303D01*
X209296000Y-85561617D01*
X209349069Y-85508641D01*
X209495833Y-85155193D01*
X209496167Y-84772486D01*
X209350020Y-84418783D01*
X209079641Y-84147931D01*
X208726193Y-84001167D01*
X208649731Y-84001100D01*
X203908102Y-79259471D01*
X203908167Y-79184486D01*
X203762020Y-78830783D01*
X203491641Y-78559931D01*
X203341893Y-78497750D01*
X207274000Y-78497750D01*
X207274000Y-79088309D01*
X207370673Y-79321698D01*
X207549301Y-79500327D01*
X207782690Y-79597000D01*
X208248250Y-79597000D01*
X208407000Y-79438250D01*
X208407000Y-78339000D01*
X208661000Y-78339000D01*
X208661000Y-79438250D01*
X208819750Y-79597000D01*
X209285310Y-79597000D01*
X209518699Y-79500327D01*
X209697327Y-79321698D01*
X209794000Y-79088309D01*
X209794000Y-78497750D01*
X209635250Y-78339000D01*
X208661000Y-78339000D01*
X208407000Y-78339000D01*
X207432750Y-78339000D01*
X207274000Y-78497750D01*
X203341893Y-78497750D01*
X203138193Y-78413167D01*
X202755486Y-78412833D01*
X202401783Y-78558980D01*
X202130931Y-78829359D01*
X201984167Y-79182807D01*
X201983833Y-79565514D01*
X198312323Y-79565514D01*
X198469699Y-79500327D01*
X198648327Y-79321698D01*
X198745000Y-79088309D01*
X198745000Y-78497750D01*
X198586250Y-78339000D01*
X197612000Y-78339000D01*
X197358000Y-78339000D01*
X196383750Y-78339000D01*
X196225000Y-78497750D01*
X187467000Y-78497750D01*
X187467000Y-78343750D01*
X187308250Y-78185000D01*
X186309000Y-78185000D01*
X186055000Y-78185000D01*
X185055750Y-78185000D01*
X184897000Y-78343750D01*
X180796394Y-78343750D01*
X180758641Y-78305931D01*
X180405193Y-78159167D01*
X180022486Y-78158833D01*
X179668783Y-78304980D01*
X179397931Y-78575359D01*
X179251167Y-78928807D01*
X179250833Y-79311514D01*
X179396980Y-79665217D01*
X179451000Y-79719332D01*
X179451000Y-81853370D01*
X178754370Y-82550000D01*
X178482169Y-82550000D01*
X178507833Y-82488193D01*
X178508167Y-82105486D01*
X178362020Y-81751783D01*
X178308000Y-81697668D01*
X178308000Y-76327000D01*
X184925768Y-76327000D01*
X184928838Y-76343317D01*
X185067910Y-76559441D01*
X185280110Y-76704431D01*
X185313490Y-76711191D01*
X185172301Y-76769673D01*
X184993673Y-76948302D01*
X184897000Y-77181691D01*
X184897000Y-77772250D01*
X185055750Y-77931000D01*
X186055000Y-77931000D01*
X186055000Y-77911000D01*
X186309000Y-77911000D01*
X186309000Y-77931000D01*
X187308250Y-77931000D01*
X187467000Y-77772250D01*
X187467000Y-77181691D01*
X187370327Y-76948302D01*
X187191699Y-76769673D01*
X187055713Y-76713346D01*
X187067317Y-76711162D01*
X187283441Y-76572090D01*
X187428431Y-76359890D01*
X187435091Y-76327000D01*
X196212560Y-76327000D01*
X196212560Y-76462000D01*
X196256838Y-76697317D01*
X196395910Y-76913441D01*
X196464006Y-76959969D01*
X196321673Y-77102302D01*
X196225000Y-77335691D01*
X196225000Y-77926250D01*
X196383750Y-78085000D01*
X197358000Y-78085000D01*
X197358000Y-78065000D01*
X197612000Y-78065000D01*
X197612000Y-78085000D01*
X198586250Y-78085000D01*
X198745000Y-77926250D01*
X198745000Y-77335691D01*
X198648327Y-77102302D01*
X198507090Y-76961064D01*
X198561441Y-76926090D01*
X198706431Y-76713890D01*
X198757440Y-76462000D01*
X198757440Y-76327000D01*
X207261560Y-76327000D01*
X207261560Y-76462000D01*
X207305838Y-76697317D01*
X207444910Y-76913441D01*
X207513006Y-76959969D01*
X207370673Y-77102302D01*
X207274000Y-77335691D01*
X207274000Y-77926250D01*
X207432750Y-78085000D01*
X208407000Y-78085000D01*
X208407000Y-78065000D01*
X208661000Y-78065000D01*
X208661000Y-78085000D01*
X209635250Y-78085000D01*
X209794000Y-77926250D01*
X209794000Y-77335691D01*
X209697327Y-77102302D01*
X209556090Y-76961064D01*
X209610441Y-76926090D01*
X209755431Y-76713890D01*
X209806440Y-76462000D01*
X209806440Y-76327000D01*
X213164713Y-76327000D01*
X213164336Y-76759482D01*
X213746950Y-78169515D01*
X214824811Y-79249259D01*
X216233825Y-79834333D01*
X217759482Y-79835664D01*
X219169515Y-79253050D01*
X219583000Y-78840286D01*
X219583000Y-121793000D01*
X147120580Y-121793000D01*
X147024502Y-121309983D01*
X146724272Y-120860657D01*
X146319205Y-120590000D01*
X146724272Y-120319343D01*
X147024502Y-119870017D01*
X147129929Y-119340000D01*
X147024502Y-118809983D01*
X146837424Y-118530000D01*
X167412560Y-118530000D01*
X167412560Y-120230000D01*
X167456838Y-120465317D01*
X167595910Y-120681441D01*
X167808110Y-120826431D01*
X168060000Y-120877440D01*
X169760000Y-120877440D01*
X169995317Y-120833162D01*
X170211441Y-120694090D01*
X170356431Y-120481890D01*
X170378301Y-120373893D01*
X170683076Y-120651645D01*
X171093110Y-120821476D01*
X171323000Y-120700155D01*
X171323000Y-119507000D01*
X171577000Y-119507000D01*
X171577000Y-120700155D01*
X171806890Y-120821476D01*
X172216924Y-120651645D01*
X172645183Y-120261358D01*
X172891486Y-119736892D01*
X172770819Y-119507000D01*
X171577000Y-119507000D01*
X171323000Y-119507000D01*
X171303000Y-119507000D01*
X171303000Y-119253000D01*
X171323000Y-119253000D01*
X171323000Y-118059845D01*
X171577000Y-118059845D01*
X171577000Y-119253000D01*
X172770819Y-119253000D01*
X172891486Y-119023108D01*
X172645183Y-118498642D01*
X172216924Y-118108355D01*
X172008432Y-118022000D01*
X178842560Y-118022000D01*
X178842560Y-119722000D01*
X178886838Y-119957317D01*
X179025910Y-120173441D01*
X179238110Y-120318431D01*
X179490000Y-120369440D01*
X181190000Y-120369440D01*
X181425317Y-120325162D01*
X181641441Y-120186090D01*
X181786431Y-119973890D01*
X181800086Y-119906459D01*
X181829946Y-119951147D01*
X182311715Y-120273054D01*
X182880000Y-120386093D01*
X183448285Y-120273054D01*
X183930054Y-119951147D01*
X184157702Y-119610447D01*
X184224817Y-119753358D01*
X184653076Y-120143645D01*
X185063110Y-120313476D01*
X185293000Y-120192155D01*
X185293000Y-118999000D01*
X185273000Y-118999000D01*
X185273000Y-118745000D01*
X185293000Y-118745000D01*
X185293000Y-117551845D01*
X185547000Y-117551845D01*
X185547000Y-118745000D01*
X185567000Y-118745000D01*
X185567000Y-118999000D01*
X185547000Y-118999000D01*
X185547000Y-120192155D01*
X185776890Y-120313476D01*
X186186924Y-120143645D01*
X186615183Y-119753358D01*
X186682298Y-119610447D01*
X186909946Y-119951147D01*
X187391715Y-120273054D01*
X187960000Y-120386093D01*
X188528285Y-120273054D01*
X189010054Y-119951147D01*
X189230000Y-119621974D01*
X189449946Y-119951147D01*
X189931715Y-120273054D01*
X190500000Y-120386093D01*
X191068285Y-120273054D01*
X191550054Y-119951147D01*
X191770000Y-119621974D01*
X191989946Y-119951147D01*
X192471715Y-120273054D01*
X193040000Y-120386093D01*
X193608285Y-120273054D01*
X194090054Y-119951147D01*
X194411961Y-119469378D01*
X194525000Y-118901093D01*
X194525000Y-118842907D01*
X194486579Y-118649750D01*
X205779000Y-118649750D01*
X205779000Y-119340310D01*
X205875673Y-119573699D01*
X206054302Y-119752327D01*
X206287691Y-119849000D01*
X206978250Y-119849000D01*
X207137000Y-119690250D01*
X207137000Y-118491000D01*
X207391000Y-118491000D01*
X207391000Y-119690250D01*
X207549750Y-119849000D01*
X208240309Y-119849000D01*
X208473698Y-119752327D01*
X208652327Y-119573699D01*
X208749000Y-119340310D01*
X208749000Y-118649750D01*
X208590250Y-118491000D01*
X207391000Y-118491000D01*
X207137000Y-118491000D01*
X205937750Y-118491000D01*
X205779000Y-118649750D01*
X194486579Y-118649750D01*
X194429740Y-118364000D01*
X213877907Y-118364000D01*
X213990946Y-118932285D01*
X214312853Y-119414054D01*
X214794622Y-119735961D01*
X215362907Y-119849000D01*
X215421093Y-119849000D01*
X215989378Y-119735961D01*
X216471147Y-119414054D01*
X216793054Y-118932285D01*
X216906093Y-118364000D01*
X216793054Y-117795715D01*
X216471147Y-117313946D01*
X216130447Y-117086298D01*
X216273358Y-117019183D01*
X216663645Y-116590924D01*
X216833476Y-116180890D01*
X216712155Y-115951000D01*
X215519000Y-115951000D01*
X215519000Y-115971000D01*
X215265000Y-115971000D01*
X215265000Y-115951000D01*
X214071845Y-115951000D01*
X213950524Y-116180890D01*
X214120355Y-116590924D01*
X214510642Y-117019183D01*
X214653553Y-117086298D01*
X214312853Y-117313946D01*
X213990946Y-117795715D01*
X213877907Y-118364000D01*
X194429740Y-118364000D01*
X194411961Y-118274622D01*
X194090054Y-117792853D01*
X193608285Y-117470946D01*
X193189730Y-117387690D01*
X205779000Y-117387690D01*
X205779000Y-118078250D01*
X205937750Y-118237000D01*
X207137000Y-118237000D01*
X207137000Y-115951000D01*
X207391000Y-115951000D01*
X207391000Y-118237000D01*
X208590250Y-118237000D01*
X208749000Y-118078250D01*
X208749000Y-117387690D01*
X208652327Y-117154301D01*
X208473698Y-116975673D01*
X208264122Y-116888864D01*
X208535645Y-116590924D01*
X208705476Y-116180890D01*
X208584155Y-115951000D01*
X207391000Y-115951000D01*
X207137000Y-115951000D01*
X205943845Y-115951000D01*
X205822524Y-116180890D01*
X205992355Y-116590924D01*
X206263878Y-116888864D01*
X206054302Y-116975673D01*
X205875673Y-117154301D01*
X205779000Y-117387690D01*
X193189730Y-117387690D01*
X193040000Y-117357907D01*
X192471715Y-117470946D01*
X191989946Y-117792853D01*
X191770000Y-118122026D01*
X191550054Y-117792853D01*
X191068285Y-117470946D01*
X190500000Y-117357907D01*
X189931715Y-117470946D01*
X189449946Y-117792853D01*
X189230000Y-118122026D01*
X189010054Y-117792853D01*
X188528285Y-117470946D01*
X187960000Y-117357907D01*
X187391715Y-117470946D01*
X186909946Y-117792853D01*
X186682298Y-118133553D01*
X186615183Y-117990642D01*
X186186924Y-117600355D01*
X185776890Y-117430524D01*
X185547000Y-117551845D01*
X185293000Y-117551845D01*
X185063110Y-117430524D01*
X184653076Y-117600355D01*
X184224817Y-117990642D01*
X184157702Y-118133553D01*
X183930054Y-117792853D01*
X183448285Y-117470946D01*
X182880000Y-117357907D01*
X182311715Y-117470946D01*
X181829946Y-117792853D01*
X181802150Y-117834452D01*
X181793162Y-117786683D01*
X181654090Y-117570559D01*
X181441890Y-117425569D01*
X181190000Y-117374560D01*
X179490000Y-117374560D01*
X179254683Y-117418838D01*
X179038559Y-117557910D01*
X178893569Y-117770110D01*
X178842560Y-118022000D01*
X172008432Y-118022000D01*
X171806890Y-117938524D01*
X171577000Y-118059845D01*
X171323000Y-118059845D01*
X171093110Y-117938524D01*
X170683076Y-118108355D01*
X170380063Y-118384501D01*
X170363162Y-118294683D01*
X170224090Y-118078559D01*
X170011890Y-117933569D01*
X169760000Y-117882560D01*
X168060000Y-117882560D01*
X167824683Y-117926838D01*
X167608559Y-118065910D01*
X167463569Y-118278110D01*
X167412560Y-118530000D01*
X146837424Y-118530000D01*
X146724272Y-118360657D01*
X146289775Y-118070336D01*
X146593278Y-117767363D01*
X146842716Y-117166648D01*
X146843284Y-116516205D01*
X146594894Y-115915057D01*
X146289931Y-115609560D01*
X146724272Y-115319343D01*
X147024502Y-114870017D01*
X147129929Y-114340000D01*
X147024502Y-113809983D01*
X146724272Y-113360657D01*
X146319205Y-113090000D01*
X146724272Y-112819343D01*
X147024502Y-112370017D01*
X147099161Y-111994677D01*
X173058794Y-111994677D01*
X173238820Y-112430372D01*
X173571875Y-112764009D01*
X174007255Y-112944794D01*
X174478677Y-112945206D01*
X174914372Y-112765180D01*
X175248009Y-112432125D01*
X175428794Y-111996745D01*
X175429016Y-111742418D01*
X177274448Y-109896986D01*
X177526677Y-109897206D01*
X177962372Y-109717180D01*
X178296009Y-109384125D01*
X178476794Y-108948745D01*
X178477206Y-108477323D01*
X178297180Y-108041628D01*
X177964125Y-107707991D01*
X177528745Y-107527206D01*
X177057323Y-107526794D01*
X176621628Y-107706820D01*
X176287991Y-108039875D01*
X176107206Y-108475255D01*
X176106984Y-108729582D01*
X174261552Y-110575014D01*
X174009323Y-110574794D01*
X173573628Y-110754820D01*
X173239991Y-111087875D01*
X173059206Y-111523255D01*
X173058794Y-111994677D01*
X147099161Y-111994677D01*
X147129929Y-111840000D01*
X147024502Y-111309983D01*
X146724272Y-110860657D01*
X146274946Y-110560427D01*
X145744929Y-110455000D01*
X144671071Y-110455000D01*
X144141054Y-110560427D01*
X143691728Y-110860657D01*
X143391498Y-111309983D01*
X143286071Y-111840000D01*
X143391498Y-112370017D01*
X143691728Y-112819343D01*
X144096795Y-113090000D01*
X143691728Y-113360657D01*
X143391498Y-113809983D01*
X143286071Y-114340000D01*
X143391498Y-114870017D01*
X143691728Y-115319343D01*
X144126225Y-115609664D01*
X143822722Y-115912637D01*
X143573284Y-116513352D01*
X143572716Y-117163795D01*
X143821106Y-117764943D01*
X144126069Y-118070440D01*
X143691728Y-118360657D01*
X143391498Y-118809983D01*
X143286071Y-119340000D01*
X143391498Y-119870017D01*
X143691728Y-120319343D01*
X144096795Y-120590000D01*
X143691728Y-120860657D01*
X143391498Y-121309983D01*
X143295420Y-121793000D01*
X141643111Y-121793000D01*
X141643248Y-121635813D01*
X141425243Y-121108200D01*
X141021923Y-120704176D01*
X140494691Y-120485250D01*
X139923813Y-120484752D01*
X139396200Y-120702757D01*
X139248026Y-120850673D01*
X139021923Y-120624176D01*
X138494691Y-120405250D01*
X137923813Y-120404752D01*
X137396200Y-120622757D01*
X136992176Y-121026077D01*
X136773250Y-121553309D01*
X136773041Y-121793000D01*
X136600000Y-121793000D01*
X136600000Y-116967000D01*
X138823000Y-116967000D01*
X138823000Y-117467000D01*
X138977028Y-117987349D01*
X139318460Y-118409145D01*
X139795316Y-118668173D01*
X139866815Y-118682318D01*
X140081000Y-118559656D01*
X140081000Y-116967000D01*
X140335000Y-116967000D01*
X140335000Y-118559656D01*
X140549185Y-118682318D01*
X140620684Y-118668173D01*
X141097540Y-118409145D01*
X141438972Y-117987349D01*
X141593000Y-117467000D01*
X141593000Y-116967000D01*
X140335000Y-116967000D01*
X140081000Y-116967000D01*
X138823000Y-116967000D01*
X136600000Y-116967000D01*
X136600000Y-116213000D01*
X138823000Y-116213000D01*
X138823000Y-116713000D01*
X140081000Y-116713000D01*
X140081000Y-115120344D01*
X140335000Y-115120344D01*
X140335000Y-116713000D01*
X141593000Y-116713000D01*
X141593000Y-116213000D01*
X141438972Y-115692651D01*
X141097540Y-115270855D01*
X140620684Y-115011827D01*
X140549185Y-114997682D01*
X140335000Y-115120344D01*
X140081000Y-115120344D01*
X139866815Y-114997682D01*
X139795316Y-115011827D01*
X139318460Y-115270855D01*
X138977028Y-115692651D01*
X138823000Y-116213000D01*
X136600000Y-116213000D01*
X136600000Y-112124187D01*
X136772752Y-112124187D01*
X136990757Y-112651800D01*
X137394077Y-113055824D01*
X137921309Y-113274750D01*
X138492187Y-113275248D01*
X139019800Y-113057243D01*
X139207974Y-112869397D01*
X139394077Y-113055824D01*
X139921309Y-113274750D01*
X140492187Y-113275248D01*
X141019800Y-113057243D01*
X141423824Y-112653923D01*
X141642750Y-112126691D01*
X141643248Y-111555813D01*
X141425243Y-111028200D01*
X141021923Y-110624176D01*
X140494691Y-110405250D01*
X139923813Y-110404752D01*
X139396200Y-110622757D01*
X139208026Y-110810603D01*
X139021923Y-110624176D01*
X138494691Y-110405250D01*
X137923813Y-110404752D01*
X137396200Y-110622757D01*
X136992176Y-111026077D01*
X136773250Y-111553309D01*
X136772752Y-112124187D01*
X136600000Y-112124187D01*
X136600000Y-106884187D01*
X136772752Y-106884187D01*
X136990757Y-107411800D01*
X137394077Y-107815824D01*
X137921309Y-108034750D01*
X138492187Y-108035248D01*
X139019800Y-107817243D01*
X139167974Y-107669327D01*
X139394077Y-107895824D01*
X139921309Y-108114750D01*
X140492187Y-108115248D01*
X140803548Y-107986597D01*
X140762560Y-108189000D01*
X140762560Y-109489000D01*
X140806838Y-109724317D01*
X140945910Y-109940441D01*
X141158110Y-110085431D01*
X141410000Y-110136440D01*
X142910000Y-110136440D01*
X143145317Y-110092162D01*
X143361441Y-109953090D01*
X143506431Y-109740890D01*
X143513191Y-109707510D01*
X143571673Y-109848699D01*
X143750302Y-110027327D01*
X143983691Y-110124000D01*
X144574250Y-110124000D01*
X144733000Y-109965250D01*
X144733000Y-108966000D01*
X144987000Y-108966000D01*
X144987000Y-109965250D01*
X145145750Y-110124000D01*
X145736309Y-110124000D01*
X145969698Y-110027327D01*
X146148327Y-109848699D01*
X146245000Y-109615310D01*
X146245000Y-109124750D01*
X146086250Y-108966000D01*
X144987000Y-108966000D01*
X144733000Y-108966000D01*
X144713000Y-108966000D01*
X144713000Y-108712000D01*
X144733000Y-108712000D01*
X144733000Y-108692000D01*
X144987000Y-108692000D01*
X144987000Y-108712000D01*
X146086250Y-108712000D01*
X146245000Y-108553250D01*
X146245000Y-108062690D01*
X146177204Y-107899015D01*
X146274946Y-107879573D01*
X146724272Y-107579343D01*
X147024502Y-107130017D01*
X147129929Y-106600000D01*
X147079608Y-106347022D01*
X148104630Y-105322000D01*
X167666560Y-105322000D01*
X167666560Y-107022000D01*
X167710838Y-107257317D01*
X167849910Y-107473441D01*
X168062110Y-107618431D01*
X168314000Y-107669440D01*
X170014000Y-107669440D01*
X170249317Y-107625162D01*
X170465441Y-107486090D01*
X170610431Y-107273890D01*
X170632301Y-107165893D01*
X170937076Y-107443645D01*
X171347110Y-107613476D01*
X171577000Y-107492155D01*
X171577000Y-106299000D01*
X171831000Y-106299000D01*
X171831000Y-107492155D01*
X172060890Y-107613476D01*
X172470924Y-107443645D01*
X172899183Y-107053358D01*
X173074521Y-106680000D01*
X181416887Y-106680000D01*
X181526120Y-107229151D01*
X181837189Y-107694698D01*
X182219275Y-107950000D01*
X181837189Y-108205302D01*
X181526120Y-108670849D01*
X181416887Y-109220000D01*
X181526120Y-109769151D01*
X181837189Y-110234698D01*
X182219275Y-110490000D01*
X181837189Y-110745302D01*
X181526120Y-111210849D01*
X181416887Y-111760000D01*
X181526120Y-112309151D01*
X181837189Y-112774698D01*
X182302736Y-113085767D01*
X182851887Y-113195000D01*
X182908113Y-113195000D01*
X183457264Y-113085767D01*
X183922811Y-112774698D01*
X184233880Y-112309151D01*
X184343113Y-111760000D01*
X184338438Y-111736497D01*
X184590000Y-111787440D01*
X186090000Y-111787440D01*
X186325317Y-111743162D01*
X186541441Y-111604090D01*
X186686431Y-111391890D01*
X186689081Y-111378803D01*
X186825910Y-111591441D01*
X187038110Y-111736431D01*
X187278000Y-111785010D01*
X187278000Y-112050424D01*
X187336004Y-112342029D01*
X187495014Y-112580003D01*
X187501185Y-112589239D01*
X190512762Y-115600817D01*
X190698615Y-115725000D01*
X190759973Y-115765998D01*
X191051578Y-115824002D01*
X205485998Y-115824002D01*
X205777603Y-115765998D01*
X205927427Y-115665889D01*
X205943845Y-115697000D01*
X207137000Y-115697000D01*
X207137000Y-115677000D01*
X207391000Y-115677000D01*
X207391000Y-115697000D01*
X208584155Y-115697000D01*
X208705476Y-115467110D01*
X208535645Y-115057076D01*
X208145358Y-114628817D01*
X208002447Y-114561702D01*
X208343147Y-114334054D01*
X208665054Y-113852285D01*
X208778093Y-113284000D01*
X208665054Y-112715715D01*
X208343147Y-112233946D01*
X208013974Y-112014000D01*
X208343147Y-111794054D01*
X208665054Y-111312285D01*
X208778093Y-110744000D01*
X208665054Y-110175715D01*
X208343147Y-109693946D01*
X208013974Y-109474000D01*
X208343147Y-109254054D01*
X208665054Y-108772285D01*
X208778093Y-108204000D01*
X208714942Y-107886514D01*
X211254833Y-107886514D01*
X211400980Y-108240217D01*
X211455000Y-108294332D01*
X211455000Y-113574383D01*
X211401931Y-113627359D01*
X211255167Y-113980807D01*
X211254833Y-114363514D01*
X211400980Y-114717217D01*
X211671359Y-114988069D01*
X212024807Y-115134833D01*
X212407514Y-115135167D01*
X212761217Y-114989020D01*
X213032069Y-114718641D01*
X213178833Y-114365193D01*
X213179167Y-113982486D01*
X213033020Y-113628783D01*
X212979000Y-113574668D01*
X212979000Y-108294617D01*
X213032069Y-108241641D01*
X213178833Y-107888193D01*
X213179167Y-107505486D01*
X213033020Y-107151783D01*
X212762641Y-106880931D01*
X212409193Y-106734167D01*
X212026486Y-106733833D01*
X211672783Y-106879980D01*
X211401931Y-107150359D01*
X211255167Y-107503807D01*
X211254833Y-107886514D01*
X208714942Y-107886514D01*
X208665054Y-107635715D01*
X208343147Y-107153946D01*
X208013974Y-106934000D01*
X208343147Y-106714054D01*
X208665054Y-106232285D01*
X208778093Y-105664000D01*
X208665054Y-105095715D01*
X208343147Y-104613946D01*
X208013974Y-104394000D01*
X208343147Y-104174054D01*
X208665054Y-103692285D01*
X208778093Y-103124000D01*
X208665054Y-102555715D01*
X208408340Y-102171514D01*
X212143833Y-102171514D01*
X212289980Y-102525217D01*
X212344000Y-102579332D01*
X212344000Y-104267000D01*
X212402004Y-104558605D01*
X212461736Y-104648000D01*
X212567185Y-104805815D01*
X213964184Y-106202815D01*
X213988288Y-106218921D01*
X213990946Y-106232285D01*
X214312853Y-106714054D01*
X214642026Y-106934000D01*
X214312853Y-107153946D01*
X213990946Y-107635715D01*
X213877907Y-108204000D01*
X213990946Y-108772285D01*
X214312853Y-109254054D01*
X214642026Y-109474000D01*
X214312853Y-109693946D01*
X213990946Y-110175715D01*
X213877907Y-110744000D01*
X213990946Y-111312285D01*
X214312853Y-111794054D01*
X214642026Y-112014000D01*
X214312853Y-112233946D01*
X213990946Y-112715715D01*
X213877907Y-113284000D01*
X213990946Y-113852285D01*
X214312853Y-114334054D01*
X214653553Y-114561702D01*
X214510642Y-114628817D01*
X214120355Y-115057076D01*
X213950524Y-115467110D01*
X214071845Y-115697000D01*
X215265000Y-115697000D01*
X215265000Y-115677000D01*
X215519000Y-115677000D01*
X215519000Y-115697000D01*
X216712155Y-115697000D01*
X216833476Y-115467110D01*
X216663645Y-115057076D01*
X216273358Y-114628817D01*
X216130447Y-114561702D01*
X216471147Y-114334054D01*
X216793054Y-113852285D01*
X216906093Y-113284000D01*
X216833679Y-112919951D01*
X218597816Y-111155815D01*
X218762997Y-110908604D01*
X218821000Y-110617000D01*
X218821000Y-99150617D01*
X218874069Y-99097641D01*
X219020833Y-98744193D01*
X219021167Y-98361486D01*
X218875020Y-98007783D01*
X218604641Y-97736931D01*
X218251193Y-97590167D01*
X217868486Y-97589833D01*
X217514783Y-97735980D01*
X217243931Y-98006359D01*
X217097167Y-98359807D01*
X217096833Y-98742514D01*
X217242980Y-99096217D01*
X217297000Y-99150332D01*
X217297000Y-110301369D01*
X216897511Y-110700858D01*
X216793054Y-110175715D01*
X216471147Y-109693946D01*
X216141974Y-109474000D01*
X216471147Y-109254054D01*
X216793054Y-108772285D01*
X216906093Y-108204000D01*
X216793054Y-107635715D01*
X216471147Y-107153946D01*
X216141974Y-106934000D01*
X216471147Y-106714054D01*
X216793054Y-106232285D01*
X216906093Y-105664000D01*
X216793054Y-105095715D01*
X216471147Y-104613946D01*
X216141974Y-104394000D01*
X216471147Y-104174054D01*
X216793054Y-103692285D01*
X216906093Y-103124000D01*
X216793054Y-102555715D01*
X216471147Y-102073946D01*
X216429548Y-102046150D01*
X216477317Y-102037162D01*
X216693441Y-101898090D01*
X216838431Y-101685890D01*
X216889440Y-101434000D01*
X216889440Y-99734000D01*
X216845162Y-99498683D01*
X216706090Y-99282559D01*
X216493890Y-99137569D01*
X216242000Y-99086560D01*
X214542000Y-99086560D01*
X214306683Y-99130838D01*
X214090559Y-99269910D01*
X213945569Y-99482110D01*
X213894560Y-99734000D01*
X213894560Y-101409275D01*
X213651641Y-101165931D01*
X213298193Y-101019167D01*
X212915486Y-101018833D01*
X212561783Y-101164980D01*
X212290931Y-101435359D01*
X212144167Y-101788807D01*
X212143833Y-102171514D01*
X208408340Y-102171514D01*
X208343147Y-102073946D01*
X208013974Y-101854000D01*
X208343147Y-101634054D01*
X208665054Y-101152285D01*
X208778093Y-100584000D01*
X208665054Y-100015715D01*
X208343147Y-99533946D01*
X207861378Y-99212039D01*
X207293093Y-99099000D01*
X207234907Y-99099000D01*
X206666622Y-99212039D01*
X206184853Y-99533946D01*
X205862946Y-100015715D01*
X205749907Y-100584000D01*
X205822321Y-100948049D01*
X204693188Y-102077182D01*
X204693185Y-102077184D01*
X202122370Y-104648000D01*
X199576366Y-104648000D01*
X199553162Y-104524683D01*
X199414090Y-104308559D01*
X199201890Y-104163569D01*
X198950000Y-104112560D01*
X197450000Y-104112560D01*
X197214683Y-104156838D01*
X196998559Y-104295910D01*
X196853569Y-104508110D01*
X196850919Y-104521197D01*
X196714090Y-104308559D01*
X196501890Y-104163569D01*
X196250000Y-104112560D01*
X194750000Y-104112560D01*
X194514683Y-104156838D01*
X194298559Y-104295910D01*
X194153569Y-104508110D01*
X194102560Y-104760000D01*
X194102560Y-105729810D01*
X193914370Y-105918000D01*
X191711659Y-105918000D01*
X191542811Y-105665302D01*
X191138297Y-105395014D01*
X191355134Y-105292389D01*
X191731041Y-104877423D01*
X191891904Y-104489039D01*
X191769915Y-104267000D01*
X190627000Y-104267000D01*
X190627000Y-104287000D01*
X190373000Y-104287000D01*
X190373000Y-104267000D01*
X189230085Y-104267000D01*
X189108096Y-104489039D01*
X189268959Y-104877423D01*
X189644866Y-105292389D01*
X189861703Y-105395014D01*
X189457189Y-105665302D01*
X189382162Y-105777588D01*
X189254090Y-105578559D01*
X189041890Y-105433569D01*
X188790000Y-105382560D01*
X187290000Y-105382560D01*
X187054683Y-105426838D01*
X186838559Y-105565910D01*
X186693569Y-105778110D01*
X186690919Y-105791197D01*
X186554090Y-105578559D01*
X186341890Y-105433569D01*
X186090000Y-105382560D01*
X184590000Y-105382560D01*
X184354683Y-105426838D01*
X184138559Y-105565910D01*
X183995904Y-105774693D01*
X183922811Y-105665302D01*
X183778535Y-105568899D01*
X183915317Y-105543162D01*
X184131441Y-105404090D01*
X184276431Y-105191890D01*
X184327440Y-104940000D01*
X184327440Y-103790961D01*
X189108096Y-103790961D01*
X189230085Y-104013000D01*
X190373000Y-104013000D01*
X190373000Y-102869371D01*
X190627000Y-102869371D01*
X190627000Y-104013000D01*
X191769915Y-104013000D01*
X191891904Y-103790961D01*
X191731041Y-103402577D01*
X191355134Y-102987611D01*
X190849041Y-102748086D01*
X190627000Y-102869371D01*
X190373000Y-102869371D01*
X190150959Y-102748086D01*
X189644866Y-102987611D01*
X189268959Y-103402577D01*
X189108096Y-103790961D01*
X184327440Y-103790961D01*
X184327440Y-103340000D01*
X184283162Y-103104683D01*
X184144090Y-102888559D01*
X183931890Y-102743569D01*
X183680000Y-102692560D01*
X182080000Y-102692560D01*
X181844683Y-102736838D01*
X181628559Y-102875910D01*
X181483569Y-103088110D01*
X181432560Y-103340000D01*
X181432560Y-104940000D01*
X181476838Y-105175317D01*
X181615910Y-105391441D01*
X181828110Y-105536431D01*
X181983089Y-105567815D01*
X181837189Y-105665302D01*
X181526120Y-106130849D01*
X181416887Y-106680000D01*
X173074521Y-106680000D01*
X173145486Y-106528892D01*
X173024819Y-106299000D01*
X171831000Y-106299000D01*
X171577000Y-106299000D01*
X171557000Y-106299000D01*
X171557000Y-106045000D01*
X171577000Y-106045000D01*
X171577000Y-104851845D01*
X171831000Y-104851845D01*
X171831000Y-106045000D01*
X173024819Y-106045000D01*
X173145486Y-105815108D01*
X172899183Y-105290642D01*
X172470924Y-104900355D01*
X172060890Y-104730524D01*
X171831000Y-104851845D01*
X171577000Y-104851845D01*
X171347110Y-104730524D01*
X170937076Y-104900355D01*
X170634063Y-105176501D01*
X170617162Y-105086683D01*
X170478090Y-104870559D01*
X170265890Y-104725569D01*
X170014000Y-104674560D01*
X168314000Y-104674560D01*
X168078683Y-104718838D01*
X167862559Y-104857910D01*
X167717569Y-105070110D01*
X167666560Y-105322000D01*
X148104630Y-105322000D01*
X150906815Y-102519816D01*
X151071996Y-102272605D01*
X151092104Y-102171514D01*
X151130000Y-101981000D01*
X151130000Y-96501630D01*
X151221487Y-96410143D01*
X151176560Y-96632000D01*
X151176560Y-97932000D01*
X151220838Y-98167317D01*
X151359910Y-98383441D01*
X151572110Y-98528431D01*
X151812000Y-98577010D01*
X151812000Y-99332634D01*
X151688683Y-99355838D01*
X151472559Y-99494910D01*
X151327569Y-99707110D01*
X151276560Y-99959000D01*
X151276560Y-101209000D01*
X151320838Y-101444317D01*
X151459910Y-101660441D01*
X151672110Y-101805431D01*
X151924000Y-101856440D01*
X153424000Y-101856440D01*
X153659317Y-101812162D01*
X153875441Y-101673090D01*
X153921969Y-101604994D01*
X154064302Y-101747327D01*
X154297691Y-101844000D01*
X154888250Y-101844000D01*
X155047000Y-101685250D01*
X155047000Y-100711000D01*
X155301000Y-100711000D01*
X155301000Y-101685250D01*
X155459750Y-101844000D01*
X156050309Y-101844000D01*
X156283698Y-101747327D01*
X156462327Y-101568699D01*
X156559000Y-101335310D01*
X156559000Y-100869750D01*
X156400250Y-100711000D01*
X155301000Y-100711000D01*
X155047000Y-100711000D01*
X155027000Y-100711000D01*
X155027000Y-100457000D01*
X155047000Y-100457000D01*
X155047000Y-99482750D01*
X155301000Y-99482750D01*
X155301000Y-100457000D01*
X156400250Y-100457000D01*
X156559000Y-100298250D01*
X156559000Y-99832690D01*
X156462327Y-99599301D01*
X156283698Y-99420673D01*
X156050309Y-99324000D01*
X155459750Y-99324000D01*
X155301000Y-99482750D01*
X155047000Y-99482750D01*
X154888250Y-99324000D01*
X154297691Y-99324000D01*
X154064302Y-99420673D01*
X153923064Y-99561910D01*
X153888090Y-99507559D01*
X153675890Y-99362569D01*
X153424000Y-99311560D01*
X153336000Y-99311560D01*
X153336000Y-98577182D01*
X153559317Y-98535162D01*
X153775441Y-98396090D01*
X153920431Y-98183890D01*
X153923081Y-98170803D01*
X154059910Y-98383441D01*
X154272110Y-98528431D01*
X154524000Y-98579440D01*
X156024000Y-98579440D01*
X156259317Y-98535162D01*
X156475441Y-98396090D01*
X156620431Y-98183890D01*
X156648759Y-98044000D01*
X157652338Y-98044000D01*
X157670838Y-98142317D01*
X157809910Y-98358441D01*
X158022110Y-98503431D01*
X158274000Y-98554440D01*
X159774000Y-98554440D01*
X160009317Y-98510162D01*
X160225441Y-98371090D01*
X160271969Y-98302994D01*
X160414302Y-98445327D01*
X160647691Y-98542000D01*
X161238250Y-98542000D01*
X161397000Y-98383250D01*
X161397000Y-97409000D01*
X161651000Y-97409000D01*
X161651000Y-98383250D01*
X161809750Y-98542000D01*
X162400309Y-98542000D01*
X162633698Y-98445327D01*
X162812327Y-98266699D01*
X162909000Y-98033310D01*
X162909000Y-97567750D01*
X162750250Y-97409000D01*
X161651000Y-97409000D01*
X161397000Y-97409000D01*
X161377000Y-97409000D01*
X161377000Y-97155000D01*
X161397000Y-97155000D01*
X161397000Y-96180750D01*
X161651000Y-96180750D01*
X161651000Y-97155000D01*
X162750250Y-97155000D01*
X162909000Y-96996250D01*
X162909000Y-96530690D01*
X162812327Y-96297301D01*
X162633698Y-96118673D01*
X162400309Y-96022000D01*
X161809750Y-96022000D01*
X161651000Y-96180750D01*
X161397000Y-96180750D01*
X161238250Y-96022000D01*
X160647691Y-96022000D01*
X160414302Y-96118673D01*
X160273064Y-96259910D01*
X160238090Y-96205559D01*
X160025890Y-96060569D01*
X159774000Y-96009560D01*
X158274000Y-96009560D01*
X158038683Y-96053838D01*
X157822559Y-96192910D01*
X157677569Y-96405110D01*
X157654303Y-96520000D01*
X156650366Y-96520000D01*
X156627162Y-96396683D01*
X156488090Y-96180559D01*
X156275890Y-96035569D01*
X156036000Y-95986990D01*
X156036000Y-95275182D01*
X156259317Y-95233162D01*
X156475441Y-95094090D01*
X156620431Y-94881890D01*
X156671440Y-94630000D01*
X156671440Y-93330000D01*
X156627162Y-93094683D01*
X156488090Y-92878559D01*
X156427437Y-92837117D01*
X156517069Y-92747641D01*
X156663833Y-92394193D01*
X156664167Y-92011486D01*
X156518020Y-91657783D01*
X156374308Y-91513819D01*
X156375441Y-91513090D01*
X156520431Y-91300890D01*
X156571440Y-91049000D01*
X156571440Y-89799000D01*
X156527162Y-89563683D01*
X156388090Y-89347559D01*
X156203914Y-89221717D01*
X156833529Y-88592102D01*
X156908514Y-88592167D01*
X157262217Y-88446020D01*
X157533069Y-88175641D01*
X157679833Y-87822193D01*
X157680167Y-87439486D01*
X157534020Y-87085783D01*
X157263641Y-86814931D01*
X156910193Y-86668167D01*
X156571440Y-86667871D01*
X156571440Y-86243000D01*
X156547033Y-86113286D01*
X156771069Y-85889641D01*
X156917833Y-85536193D01*
X156918167Y-85153486D01*
X156772020Y-84799783D01*
X156501641Y-84528931D01*
X156148193Y-84382167D01*
X155765486Y-84381833D01*
X155411783Y-84527980D01*
X155140931Y-84798359D01*
X154994167Y-85151807D01*
X154994100Y-85228270D01*
X154635185Y-85587185D01*
X154629589Y-85595560D01*
X154424000Y-85595560D01*
X154188683Y-85639838D01*
X153972559Y-85778910D01*
X153924866Y-85848711D01*
X153888090Y-85791559D01*
X153675890Y-85646569D01*
X153424000Y-85595560D01*
X151924000Y-85595560D01*
X151688683Y-85639838D01*
X151472559Y-85778910D01*
X151327569Y-85991110D01*
X151276560Y-86243000D01*
X151276560Y-87493000D01*
X151320838Y-87728317D01*
X151459910Y-87944441D01*
X151672110Y-88089431D01*
X151924000Y-88140440D01*
X152868810Y-88140440D01*
X153162000Y-88433630D01*
X153162000Y-89151560D01*
X151924000Y-89151560D01*
X151688683Y-89195838D01*
X151472559Y-89334910D01*
X151327569Y-89547110D01*
X151276560Y-89799000D01*
X151276560Y-90743809D01*
X147913370Y-94107000D01*
X143764000Y-94107000D01*
X143472395Y-94165004D01*
X143225184Y-94330185D01*
X141955185Y-95600185D01*
X141790004Y-95847395D01*
X141732000Y-96139000D01*
X141732000Y-97347369D01*
X139669185Y-99410185D01*
X139504004Y-99657395D01*
X139448408Y-99936895D01*
X139228657Y-100083728D01*
X138928427Y-100533054D01*
X138823000Y-101063071D01*
X138823000Y-102136929D01*
X138928427Y-102666946D01*
X139228657Y-103116272D01*
X139677983Y-103416502D01*
X140208000Y-103521929D01*
X140738017Y-103416502D01*
X140863216Y-103332846D01*
X141398000Y-103867630D01*
X141398000Y-105840909D01*
X141021923Y-105464176D01*
X140494691Y-105245250D01*
X139923813Y-105244752D01*
X139396200Y-105462757D01*
X139248026Y-105610673D01*
X139021923Y-105384176D01*
X138494691Y-105165250D01*
X137923813Y-105164752D01*
X137396200Y-105382757D01*
X136992176Y-105786077D01*
X136773250Y-106313309D01*
X136772752Y-106884187D01*
X136600000Y-106884187D01*
X136600000Y-96884187D01*
X136772752Y-96884187D01*
X136990757Y-97411800D01*
X137394077Y-97815824D01*
X137921309Y-98034750D01*
X138492187Y-98035248D01*
X139019800Y-97817243D01*
X139207974Y-97629397D01*
X139394077Y-97815824D01*
X139921309Y-98034750D01*
X140492187Y-98035248D01*
X141019800Y-97817243D01*
X141423824Y-97413923D01*
X141642750Y-96886691D01*
X141643248Y-96315813D01*
X141425243Y-95788200D01*
X141021923Y-95384176D01*
X140494691Y-95165250D01*
X139923813Y-95164752D01*
X139396200Y-95382757D01*
X139208026Y-95570603D01*
X139021923Y-95384176D01*
X138494691Y-95165250D01*
X137923813Y-95164752D01*
X137396200Y-95382757D01*
X136992176Y-95786077D01*
X136773250Y-96313309D01*
X136772752Y-96884187D01*
X136600000Y-96884187D01*
X136600000Y-91771187D01*
X136772752Y-91771187D01*
X136990757Y-92298800D01*
X137394077Y-92702824D01*
X137921309Y-92921750D01*
X138492187Y-92922248D01*
X139019800Y-92704243D01*
X139167974Y-92556327D01*
X139394077Y-92782824D01*
X139921309Y-93001750D01*
X140492187Y-93002248D01*
X141019800Y-92784243D01*
X141423824Y-92380923D01*
X141642750Y-91853691D01*
X141643248Y-91282813D01*
X141425243Y-90755200D01*
X141021923Y-90351176D01*
X140494691Y-90132250D01*
X139923813Y-90131752D01*
X139396200Y-90349757D01*
X139248026Y-90497673D01*
X139021923Y-90271176D01*
X138494691Y-90052250D01*
X137923813Y-90051752D01*
X137396200Y-90269757D01*
X136992176Y-90673077D01*
X136773250Y-91200309D01*
X136772752Y-91771187D01*
X136600000Y-91771187D01*
X136600000Y-85950071D01*
X138823000Y-85950071D01*
X138823000Y-87023929D01*
X138928427Y-87553946D01*
X139228657Y-88003272D01*
X139677983Y-88303502D01*
X140208000Y-88408929D01*
X140738017Y-88303502D01*
X141187343Y-88003272D01*
X141487573Y-87553946D01*
X141593000Y-87023929D01*
X141593000Y-85950071D01*
X141487573Y-85420054D01*
X141187343Y-84970728D01*
X140738017Y-84670498D01*
X140208000Y-84565071D01*
X139677983Y-84670498D01*
X139228657Y-84970728D01*
X138928427Y-85420054D01*
X138823000Y-85950071D01*
X136600000Y-85950071D01*
X136600000Y-81771187D01*
X136772752Y-81771187D01*
X136990757Y-82298800D01*
X137394077Y-82702824D01*
X137921309Y-82921750D01*
X138492187Y-82922248D01*
X139019800Y-82704243D01*
X139207974Y-82516397D01*
X139394077Y-82702824D01*
X139921309Y-82921750D01*
X140492187Y-82922248D01*
X141019800Y-82704243D01*
X141423824Y-82300923D01*
X141642750Y-81773691D01*
X141643248Y-81202813D01*
X141425243Y-80675200D01*
X141021923Y-80271176D01*
X140494691Y-80052250D01*
X139923813Y-80051752D01*
X139396200Y-80269757D01*
X139208026Y-80457603D01*
X139021923Y-80271176D01*
X138494691Y-80052250D01*
X137923813Y-80051752D01*
X137396200Y-80269757D01*
X136992176Y-80673077D01*
X136773250Y-81200309D01*
X136772752Y-81771187D01*
X136600000Y-81771187D01*
X136600000Y-77813869D01*
X136746950Y-78169515D01*
X137824811Y-79249259D01*
X139233825Y-79834333D01*
X140759482Y-79835664D01*
X142169515Y-79253050D01*
X143249259Y-78175189D01*
X143834333Y-76766175D01*
X143834716Y-76327000D01*
X147151369Y-76327000D01*
X144669185Y-78809185D01*
M02*
